M48
;DRILL file {KiCad 4.0.7-e2-6376~58~ubuntu16.04.1} date Sat Oct 21 15:52:32 2017
;FORMAT={-:-/ absolute / metric / decimal}
FMAT,2
METRIC,TZ
T1C0.800
T2C1.000
T3C1.300
T4C1.800
%
G90
G05
M71
T1
X79.756Y-120.142
X79.883Y-80.01
X80.01Y-91.059
X80.01Y-108.966
X91.059Y-79.883
X91.948Y-131.318
X94.742Y-130.048
X97.028Y-120.142
X97.536Y-132.842
X97.663Y-175.641
X102.616Y-131.826
X102.87Y-137.414
X102.997Y-120.015
X104.902Y-146.558
X105.283Y-124.587
X105.283Y-172.72
X105.664Y-154.686
X107.188Y-163.322
X107.442Y-132.588
X108.966Y-79.883
X109.474Y-151.892
X113.538Y-151.892
X116.84Y-156.21
X117.602Y-132.59
X120.015Y-108.839
X120.015Y-120.015
X120.142Y-79.883
X120.142Y-91.059
X120.904Y-145.034
T2
X100.Y-155.
X100.Y-162.6
T3
X97.489Y-150.
X99.989Y-140.
X102.489Y-150.
T4
X85.806Y-186.029
X93.426Y-186.029
X106.426Y-186.029
X114.046Y-186.029
T0
M30
