G04 #@! TF.FileFunction,Copper,L1,Top,Signal*
%FSLAX46Y46*%
G04 Gerber Fmt 4.6, Leading zero omitted, Abs format (unit mm)*
G04 Created by KiCad (PCBNEW 4.0.7-e2-6376~58~ubuntu16.04.1) date Sat Oct 21 15:52:31 2017*
%MOMM*%
%LPD*%
G01*
G04 APERTURE LIST*
%ADD10C,0.100000*%
%ADD11C,4.000000*%
%ADD12C,2.340000*%
%ADD13R,1.600000X1.600000*%
%ADD14C,1.600000*%
%ADD15R,1.600000X1.000000*%
%ADD16R,1.250000X1.000000*%
%ADD17R,4.200000X4.200000*%
%ADD18R,1.000000X1.000000*%
%ADD19R,2.440000X1.000000*%
%ADD20R,3.800000X1.000000*%
%ADD21R,1.000000X2.440000*%
%ADD22R,1.000000X3.800000*%
%ADD23R,0.800000X0.900000*%
%ADD24R,1.700000X0.900000*%
%ADD25R,1.550000X0.600000*%
%ADD26R,2.500000X1.200000*%
%ADD27R,1.300000X0.700000*%
%ADD28R,1.925000X0.700000*%
%ADD29R,0.700000X1.925000*%
%ADD30R,3.800000X2.000000*%
%ADD31R,1.500000X2.000000*%
%ADD32R,1.500000X1.500000*%
%ADD33R,0.700000X1.300000*%
%ADD34R,1.021080X2.540000*%
%ADD35C,1.200000*%
%ADD36C,0.300000*%
%ADD37C,0.500000*%
G04 APERTURE END LIST*
D10*
D11*
X93426000Y-186029000D03*
X85806000Y-186029000D03*
X106426000Y-186029000D03*
X114046000Y-186029000D03*
D12*
X102489000Y-150000000D03*
X99989000Y-140000000D03*
X97489000Y-150000000D03*
D13*
X100000000Y-155000000D03*
D14*
X100000000Y-162600000D03*
D15*
X107569000Y-129746000D03*
X107569000Y-126746000D03*
D16*
X105283000Y-128746000D03*
X105283000Y-126746000D03*
D17*
X99949000Y-100076000D03*
D18*
X77910000Y-77910000D03*
X122090000Y-77910000D03*
X122090000Y-122090000D03*
X77910000Y-122090000D03*
D19*
X79630000Y-77910000D03*
X79630000Y-122090000D03*
D20*
X84950000Y-77910000D03*
X84950000Y-122090000D03*
X90950000Y-77910000D03*
X90950000Y-122090000D03*
X96950000Y-77910000D03*
X96950000Y-122090000D03*
X103050000Y-77910000D03*
X103050000Y-122090000D03*
X109050000Y-77910000D03*
X109050000Y-122090000D03*
X115050000Y-77910000D03*
X115050000Y-122090000D03*
D19*
X120370000Y-77910000D03*
X120370000Y-122090000D03*
D21*
X77910000Y-79630000D03*
X122090000Y-79630000D03*
D22*
X77910000Y-84950000D03*
X122090000Y-84950000D03*
X77910000Y-90950000D03*
X122090000Y-90950000D03*
X77910000Y-96950000D03*
X122090000Y-96950000D03*
X77910000Y-103050000D03*
X122090000Y-103050000D03*
X77910000Y-109050000D03*
X122090000Y-109050000D03*
X77910000Y-115050000D03*
X122090000Y-115050000D03*
D21*
X77910000Y-120370000D03*
X122090000Y-120370000D03*
D23*
X102804000Y-103648000D03*
X100904000Y-103648000D03*
X101854000Y-105648000D03*
X99121000Y-103648000D03*
X97221000Y-103648000D03*
X98171000Y-105648000D03*
D24*
X98171000Y-107315000D03*
X98171000Y-110215000D03*
X101854000Y-107315000D03*
X101854000Y-110215000D03*
D25*
X97300000Y-126492000D03*
X97300000Y-127762000D03*
X97300000Y-129032000D03*
X97300000Y-130302000D03*
X102700000Y-130302000D03*
X102700000Y-129032000D03*
X102700000Y-127762000D03*
X102700000Y-126492000D03*
D15*
X94742000Y-168807000D03*
X94742000Y-171807000D03*
D16*
X105283000Y-168799000D03*
X105283000Y-170799000D03*
D26*
X86250000Y-160500000D03*
X91750000Y-160500000D03*
X86250000Y-155500000D03*
X91750000Y-155500000D03*
X86250000Y-158000000D03*
X91750000Y-158000000D03*
D27*
X94615000Y-126558000D03*
X94615000Y-128458000D03*
D15*
X88900000Y-148336000D03*
X88900000Y-151336000D03*
D26*
X108250000Y-160500000D03*
X113750000Y-160500000D03*
X108250000Y-155500000D03*
X113750000Y-155500000D03*
X108250000Y-158000000D03*
X113750000Y-158000000D03*
D24*
X95961200Y-107320080D03*
X95961200Y-110220080D03*
D28*
X110755500Y-145034000D03*
X110755500Y-146304000D03*
X110755500Y-147574000D03*
X110755500Y-143764000D03*
X110755500Y-142494000D03*
D29*
X112268000Y-149086500D03*
X113538000Y-149086500D03*
X114808000Y-149086500D03*
X116078000Y-149086500D03*
X117348000Y-149086500D03*
D28*
X118860500Y-147574000D03*
X118860500Y-146304000D03*
X118860500Y-145034000D03*
X118860500Y-143764000D03*
X118860500Y-142494000D03*
D29*
X117348000Y-140981500D03*
X116078000Y-140981500D03*
X114808000Y-140981500D03*
X113538000Y-140981500D03*
X112268000Y-140981500D03*
D30*
X100000000Y-166850000D03*
D31*
X100000000Y-173150000D03*
X102300000Y-173150000D03*
X97700000Y-173150000D03*
D32*
X80010000Y-135890000D03*
X80010000Y-132590000D03*
X99949000Y-135890000D03*
X99949000Y-132590000D03*
X84994750Y-132590000D03*
X84994750Y-135890000D03*
X104933750Y-132590000D03*
X104933750Y-135890000D03*
X119888000Y-135890000D03*
X119888000Y-132590000D03*
X89979500Y-135890000D03*
X89979500Y-132590000D03*
X109918500Y-135890000D03*
X109918500Y-132590000D03*
X94964250Y-132590000D03*
X94964250Y-135890000D03*
X114903250Y-132590000D03*
X114903250Y-135890000D03*
D33*
X116906000Y-151892000D03*
X118806000Y-151892000D03*
X116906000Y-154178000D03*
X118806000Y-154178000D03*
D15*
X107442000Y-146328000D03*
X107442000Y-149328000D03*
D34*
X105280460Y-151892000D03*
X107571540Y-151892000D03*
D35*
X104902000Y-146558000D03*
X94742000Y-130048000D03*
X102616000Y-131826000D03*
X116840000Y-156210000D03*
X109474000Y-151892000D03*
X102997000Y-120015000D03*
X108966000Y-79883000D03*
X91059000Y-79883000D03*
X120015000Y-108839000D03*
X120142000Y-91059000D03*
X80010000Y-108966000D03*
X80010000Y-91059000D03*
X97028000Y-120142000D03*
X105283000Y-172720000D03*
X97663000Y-175641000D03*
X105283000Y-124587000D03*
X120015000Y-120015000D03*
X120142000Y-79883000D03*
X79756000Y-120142000D03*
X79883000Y-80010000D03*
X102870000Y-137414000D03*
X113538000Y-151892000D03*
X91948000Y-131318000D03*
X105664000Y-154686000D03*
X107188000Y-163322000D03*
X117602000Y-132590000D03*
X120904000Y-145034000D03*
X107442000Y-132588000D03*
X97536000Y-132842000D03*
D36*
X102804000Y-103648000D02*
X102804000Y-103598000D01*
X102804000Y-103598000D02*
X99949000Y-100743000D01*
X99949000Y-100743000D02*
X99949000Y-100076000D01*
X110060002Y-166850000D02*
X102200000Y-166850000D01*
X113587990Y-163322012D02*
X110060002Y-166850000D01*
X114436533Y-163322012D02*
X113587990Y-163322012D01*
X121088001Y-156670544D02*
X114436533Y-163322012D01*
X102200000Y-166850000D02*
X100000000Y-166850000D01*
X121088001Y-149166086D02*
X121088001Y-156670544D01*
X121088001Y-142815454D02*
X122554013Y-144281466D01*
X121088001Y-131479999D02*
X121088001Y-142815454D01*
X107569000Y-129746000D02*
X119354002Y-129746000D01*
X119354002Y-129746000D02*
X121088001Y-131479999D01*
X122554013Y-144281466D02*
X122554013Y-147700074D01*
X122554013Y-147700074D02*
X121088001Y-149166086D01*
X105378000Y-128746000D02*
X106378000Y-129746000D01*
X106378000Y-129746000D02*
X107569000Y-129746000D01*
X105283000Y-128746000D02*
X105378000Y-128746000D01*
X105283000Y-128746000D02*
X104299000Y-127762000D01*
X104299000Y-127762000D02*
X102700000Y-127762000D01*
X102700000Y-127762000D02*
X102700000Y-126492000D01*
X107442000Y-146328000D02*
X105132000Y-146328000D01*
X105132000Y-146328000D02*
X104902000Y-146558000D01*
X94615000Y-128458000D02*
X94615000Y-129921000D01*
X94615000Y-129921000D02*
X94742000Y-130048000D01*
X102700000Y-130302000D02*
X102700000Y-131742000D01*
X102700000Y-131742000D02*
X102616000Y-131826000D01*
X116906000Y-154178000D02*
X116906000Y-156144000D01*
X116906000Y-156144000D02*
X116840000Y-156210000D01*
X112268000Y-149086500D02*
X112268000Y-149699000D01*
X112268000Y-149699000D02*
X110075000Y-151892000D01*
X110075000Y-151892000D02*
X109474000Y-151892000D01*
X103050000Y-122090000D02*
X103050000Y-120068000D01*
X103050000Y-120068000D02*
X102997000Y-120015000D01*
X109050000Y-77910000D02*
X109050000Y-79799000D01*
X109050000Y-79799000D02*
X108966000Y-79883000D01*
X90950000Y-77910000D02*
X90950000Y-79774000D01*
X90950000Y-79774000D02*
X91059000Y-79883000D01*
X122090000Y-109050000D02*
X120226000Y-109050000D01*
X120226000Y-109050000D02*
X120015000Y-108839000D01*
X122090000Y-90950000D02*
X120251000Y-90950000D01*
X120251000Y-90950000D02*
X120142000Y-91059000D01*
X77910000Y-109050000D02*
X79926000Y-109050000D01*
X79926000Y-109050000D02*
X80010000Y-108966000D01*
X77910000Y-90950000D02*
X79901000Y-90950000D01*
X79901000Y-90950000D02*
X80010000Y-91059000D01*
X96950000Y-122090000D02*
X96950000Y-120220000D01*
X96950000Y-120220000D02*
X97028000Y-120142000D01*
X105283000Y-170799000D02*
X105283000Y-172720000D01*
X97700000Y-173150000D02*
X97700000Y-175604000D01*
X97700000Y-175604000D02*
X97663000Y-175641000D01*
X105283000Y-126746000D02*
X105283000Y-124587000D01*
X122090000Y-120370000D02*
X120370000Y-120370000D01*
X120370000Y-120370000D02*
X120015000Y-120015000D01*
X120370000Y-77910000D02*
X120370000Y-79655000D01*
X120370000Y-79655000D02*
X120142000Y-79883000D01*
X79630000Y-122090000D02*
X79630000Y-120268000D01*
X79630000Y-120268000D02*
X79756000Y-120142000D01*
X77910000Y-79630000D02*
X79503000Y-79630000D01*
X79503000Y-79630000D02*
X79883000Y-80010000D01*
X102616000Y-130386000D02*
X102700000Y-130302000D01*
X91440000Y-148336000D02*
X94996000Y-151892000D01*
X94996000Y-151892000D02*
X96266000Y-153162000D01*
X105280460Y-151892000D02*
X94996000Y-151892000D01*
X78809999Y-125914001D02*
X81280000Y-123444000D01*
X92806002Y-123444000D02*
X94599999Y-121650003D01*
X94599999Y-106571279D02*
X96623277Y-104548001D01*
X96623277Y-104548001D02*
X98360999Y-104548001D01*
X78809999Y-138545999D02*
X78809999Y-132334000D01*
X78809999Y-132334000D02*
X78809999Y-125914001D01*
X94599999Y-121650003D02*
X94599999Y-106571279D01*
X88600000Y-148336000D02*
X78809999Y-138545999D01*
X81280000Y-123444000D02*
X92806002Y-123444000D01*
X96266000Y-153162000D02*
X96266000Y-157988000D01*
X96266000Y-157988000D02*
X96266000Y-168807000D01*
X88900000Y-148336000D02*
X88600000Y-148336000D01*
X94742000Y-168807000D02*
X96266000Y-168807000D01*
X96266000Y-168807000D02*
X102235000Y-168807000D01*
X88900000Y-148336000D02*
X91440000Y-148336000D01*
X90424000Y-148336000D02*
X88900000Y-148336000D01*
X102235000Y-168807000D02*
X105275000Y-168807000D01*
X102235000Y-168807000D02*
X102300000Y-168872000D01*
X102300000Y-168872000D02*
X102300000Y-173150000D01*
X105275000Y-168807000D02*
X105283000Y-168799000D01*
X100838000Y-104548001D02*
X103564001Y-104548001D01*
X100076000Y-104548001D02*
X100838000Y-104548001D01*
X100838000Y-104548001D02*
X100904000Y-104482001D01*
X100904000Y-104482001D02*
X100904000Y-103648000D01*
X98360999Y-104548001D02*
X100076000Y-104548001D01*
X100053999Y-102747999D02*
X100053999Y-104526000D01*
X100053999Y-104526000D02*
X100076000Y-104548001D01*
X98298000Y-102747999D02*
X98270999Y-102775000D01*
X98270999Y-102775000D02*
X98270999Y-104458001D01*
X98270999Y-104458001D02*
X98360999Y-104548001D01*
X102235000Y-97409000D02*
X97605998Y-97409000D01*
X103564001Y-104548001D02*
X103654001Y-104458001D01*
X103654001Y-104458001D02*
X103654001Y-102837999D01*
X103654001Y-102837999D02*
X103305002Y-102489000D01*
X97221000Y-97793998D02*
X97221000Y-103648000D01*
X103305002Y-102489000D02*
X102616000Y-102489000D01*
X102616000Y-102489000D02*
X102616000Y-97790000D01*
X102616000Y-97790000D02*
X102235000Y-97409000D01*
X97605998Y-97409000D02*
X97221000Y-97793998D01*
X98298000Y-102747999D02*
X100053999Y-102747999D01*
X97371001Y-102747999D02*
X98298000Y-102747999D01*
X97221000Y-103648000D02*
X97221000Y-102898000D01*
X97221000Y-102898000D02*
X97371001Y-102747999D01*
X100904000Y-103598000D02*
X100904000Y-103648000D01*
X100904000Y-103648000D02*
X100904000Y-103698000D01*
X101854000Y-107315000D02*
X101854000Y-108065000D01*
X101854000Y-108065000D02*
X100553999Y-109365001D01*
X100553999Y-109365001D02*
X100553999Y-126253001D01*
X100553999Y-126253001D02*
X97775000Y-129032000D01*
X97775000Y-129032000D02*
X97300000Y-129032000D01*
X101854000Y-107315000D02*
X101854000Y-105648000D01*
X102653500Y-186029000D02*
X92202000Y-175577500D01*
X92202000Y-175577500D02*
X92202000Y-164084000D01*
X106426000Y-186029000D02*
X102653500Y-186029000D01*
X114046000Y-186029000D02*
X106426000Y-186029000D01*
X87800000Y-155500000D02*
X86250000Y-155500000D01*
X92202000Y-164084000D02*
X88900000Y-160782000D01*
X88900000Y-160782000D02*
X88900000Y-155500000D01*
X88900000Y-155500000D02*
X87800000Y-155500000D01*
X103158002Y-136830998D02*
X103158002Y-137125998D01*
X103158002Y-137125998D02*
X102870000Y-137414000D01*
X113538000Y-151892000D02*
X113538000Y-149086500D01*
X101276001Y-129980999D02*
X101276001Y-132233997D01*
X102225000Y-129032000D02*
X101276001Y-129980999D01*
X101276001Y-132233997D02*
X103158002Y-134115998D01*
X103158002Y-134115998D02*
X103158002Y-136830998D01*
X102700000Y-129032000D02*
X102225000Y-129032000D01*
X94615000Y-126558000D02*
X94315000Y-126558000D01*
X94315000Y-126558000D02*
X91948000Y-128925000D01*
X91948000Y-130469472D02*
X91948000Y-131318000D01*
X91948000Y-128925000D02*
X91948000Y-130469472D01*
X97300000Y-126492000D02*
X94681000Y-126492000D01*
X94681000Y-126492000D02*
X94615000Y-126558000D01*
X97300000Y-126492000D02*
X96825000Y-126492000D01*
X98171000Y-107315000D02*
X95966280Y-107315000D01*
X95966280Y-107315000D02*
X95961200Y-107320080D01*
X98171000Y-107315000D02*
X98571000Y-107315000D01*
X97775000Y-127762000D02*
X97300000Y-127762000D01*
X98571000Y-107315000D02*
X99471001Y-108215001D01*
X99471001Y-108215001D02*
X99471001Y-126065999D01*
X99471001Y-126065999D02*
X97775000Y-127762000D01*
X98171000Y-107315000D02*
X98171000Y-105648000D01*
X105664000Y-154686000D02*
X106478000Y-155500000D01*
X106478000Y-155500000D02*
X108250000Y-155500000D01*
X100500000Y-155500000D02*
X100000000Y-155000000D01*
X82296000Y-152908000D02*
X83868000Y-151336000D01*
X83868000Y-151336000D02*
X88900000Y-151336000D01*
X82296000Y-155596000D02*
X82296000Y-152908000D01*
X86250000Y-158000000D02*
X84700000Y-158000000D01*
X84700000Y-158000000D02*
X82296000Y-155596000D01*
X91750000Y-158000000D02*
X92400000Y-158000000D01*
X121188004Y-143764000D02*
X120123000Y-143764000D01*
X120273001Y-149132543D02*
X121954002Y-147451542D01*
X120123000Y-143764000D02*
X118860500Y-143764000D01*
X120273001Y-156637001D02*
X120273001Y-149132543D01*
X121954002Y-144529998D02*
X121188004Y-143764000D01*
X121954002Y-147451542D02*
X121954002Y-144529998D01*
X114554000Y-162356002D02*
X120273001Y-156637001D01*
X114310002Y-162600000D02*
X114554000Y-162356002D01*
X107188000Y-163322000D02*
X107787999Y-162722001D01*
X107787999Y-162722001D02*
X114188001Y-162722001D01*
X114188001Y-162722001D02*
X114554000Y-162356002D01*
X110755500Y-145034000D02*
X88232000Y-145034000D01*
X88232000Y-145034000D02*
X80010000Y-136812000D01*
X80010000Y-136812000D02*
X80010000Y-135762000D01*
X113538000Y-140981500D02*
X113538000Y-139719000D01*
X113538000Y-139719000D02*
X113387999Y-139568999D01*
X113387999Y-139568999D02*
X102577999Y-139568999D01*
X102577999Y-139568999D02*
X99949000Y-136940000D01*
X99949000Y-136940000D02*
X99949000Y-135890000D01*
X110755500Y-143764000D02*
X91818750Y-143764000D01*
X91818750Y-143764000D02*
X84994750Y-136940000D01*
X84994750Y-136940000D02*
X84994750Y-135890000D01*
X113265000Y-138176000D02*
X108269750Y-138176000D01*
X108269750Y-138176000D02*
X105983750Y-135890000D01*
X105983750Y-135890000D02*
X104933750Y-135890000D01*
X114808000Y-140981500D02*
X114808000Y-139719000D01*
X114808000Y-139719000D02*
X113265000Y-138176000D01*
X118860500Y-142494000D02*
X118860500Y-136917500D01*
X118860500Y-136917500D02*
X119888000Y-135890000D01*
X110755500Y-142494000D02*
X101589688Y-142494000D01*
X101589688Y-142494000D02*
X101263665Y-142820023D01*
X101263665Y-142820023D02*
X95859523Y-142820023D01*
X95859523Y-142820023D02*
X89979500Y-136940000D01*
X89979500Y-136940000D02*
X89979500Y-135890000D01*
X116078000Y-140981500D02*
X116078000Y-139719000D01*
X110968500Y-135890000D02*
X109918500Y-135890000D01*
X116078000Y-139719000D02*
X112249000Y-135890000D01*
X112249000Y-135890000D02*
X110968500Y-135890000D01*
X94964250Y-138221395D02*
X94964250Y-136940000D01*
X98962867Y-142220012D02*
X94964250Y-138221395D01*
X101015133Y-142220012D02*
X98962867Y-142220012D01*
X102253644Y-140981500D02*
X101015133Y-142220012D01*
X112268000Y-140981500D02*
X102253644Y-140981500D01*
X94964250Y-136940000D02*
X94964250Y-135890000D01*
X117348000Y-140981500D02*
X117348000Y-137284750D01*
X117348000Y-137284750D02*
X115953250Y-135890000D01*
X115953250Y-135890000D02*
X114903250Y-135890000D01*
X117348000Y-149086500D02*
X117348000Y-151450000D01*
X117348000Y-151450000D02*
X116906000Y-151892000D01*
X116906000Y-151892000D02*
X116256000Y-151892000D01*
X116256000Y-151892000D02*
X114808000Y-150444000D01*
X114808000Y-150444000D02*
X114808000Y-150349000D01*
X114808000Y-150349000D02*
X114808000Y-149086500D01*
X119713002Y-146304000D02*
X118860500Y-146304000D01*
X118806000Y-151892000D02*
X118806000Y-149751002D01*
X118806000Y-149751002D02*
X120273001Y-148284001D01*
X120273001Y-148284001D02*
X120273001Y-146863999D01*
X120273001Y-146863999D02*
X119713002Y-146304000D01*
X118806000Y-154178000D02*
X118806000Y-151892000D01*
X110755500Y-147574000D02*
X115467998Y-147574000D01*
X115467998Y-147574000D02*
X118007998Y-145034000D01*
X118007998Y-145034000D02*
X118860500Y-145034000D01*
X110755500Y-147574000D02*
X109493000Y-147574000D01*
X118860500Y-145034000D02*
X120904000Y-145034000D01*
X118838000Y-132590000D02*
X117856000Y-132590000D01*
X117856000Y-132590000D02*
X114903250Y-132590000D01*
X107571540Y-151892000D02*
X107571540Y-152161538D01*
X107571540Y-152161538D02*
X109950001Y-154539999D01*
X108900000Y-158000000D02*
X108250000Y-158000000D01*
X109950001Y-154539999D02*
X109950001Y-156949999D01*
X109950001Y-156949999D02*
X108900000Y-158000000D01*
X107571540Y-150322000D02*
X107571540Y-151892000D01*
X109493000Y-147574000D02*
X107571540Y-149495460D01*
X107571540Y-149495460D02*
X107571540Y-150322000D01*
X119888000Y-132590000D02*
X118838000Y-132590000D01*
X109918500Y-132590000D02*
X114903250Y-132590000D01*
X109918500Y-132590000D02*
X107444000Y-132590000D01*
X107444000Y-132590000D02*
X107442000Y-132588000D01*
X107442000Y-132588000D02*
X104935750Y-132588000D01*
X104935750Y-132588000D02*
X104933750Y-132590000D01*
X97536000Y-132590000D02*
X99949000Y-132590000D01*
X94964250Y-132590000D02*
X97536000Y-132590000D01*
X97536000Y-132590000D02*
X97536000Y-132842000D01*
X89979500Y-132590000D02*
X94964250Y-132590000D01*
X84994750Y-132590000D02*
X89979500Y-132590000D01*
X80010000Y-132590000D02*
X84994750Y-132590000D01*
D37*
G36*
X82329405Y-76928513D02*
X82200000Y-77240924D01*
X82200000Y-77647500D01*
X82412500Y-77860000D01*
X84900000Y-77860000D01*
X84900000Y-77840000D01*
X85000000Y-77840000D01*
X85000000Y-77860000D01*
X87487500Y-77860000D01*
X87700000Y-77647500D01*
X87700000Y-77240924D01*
X87570595Y-76928513D01*
X87513082Y-76871000D01*
X88386918Y-76871000D01*
X88329405Y-76928513D01*
X88200000Y-77240924D01*
X88200000Y-77647500D01*
X88412500Y-77860000D01*
X90900000Y-77860000D01*
X90900000Y-77840000D01*
X91000000Y-77840000D01*
X91000000Y-77860000D01*
X93487500Y-77860000D01*
X93700000Y-77647500D01*
X93700000Y-77240924D01*
X93570595Y-76928513D01*
X93513082Y-76871000D01*
X94386918Y-76871000D01*
X94329405Y-76928513D01*
X94200000Y-77240924D01*
X94200000Y-77647500D01*
X94412500Y-77860000D01*
X96900000Y-77860000D01*
X96900000Y-77840000D01*
X97000000Y-77840000D01*
X97000000Y-77860000D01*
X99487500Y-77860000D01*
X99700000Y-77647500D01*
X99700000Y-77240924D01*
X99570595Y-76928513D01*
X99513082Y-76871000D01*
X100486918Y-76871000D01*
X100429405Y-76928513D01*
X100300000Y-77240924D01*
X100300000Y-77647500D01*
X100512500Y-77860000D01*
X103000000Y-77860000D01*
X103000000Y-77840000D01*
X103100000Y-77840000D01*
X103100000Y-77860000D01*
X105587500Y-77860000D01*
X105800000Y-77647500D01*
X105800000Y-77240924D01*
X105670595Y-76928513D01*
X105613082Y-76871000D01*
X106486918Y-76871000D01*
X106429405Y-76928513D01*
X106300000Y-77240924D01*
X106300000Y-77647500D01*
X106512500Y-77860000D01*
X109000000Y-77860000D01*
X109000000Y-77840000D01*
X109100000Y-77840000D01*
X109100000Y-77860000D01*
X111587500Y-77860000D01*
X111800000Y-77647500D01*
X111800000Y-77240924D01*
X111670595Y-76928513D01*
X111613082Y-76871000D01*
X112486918Y-76871000D01*
X112429405Y-76928513D01*
X112300000Y-77240924D01*
X112300000Y-77647500D01*
X112512500Y-77860000D01*
X115000000Y-77860000D01*
X115000000Y-77840000D01*
X115100000Y-77840000D01*
X115100000Y-77860000D01*
X117587500Y-77860000D01*
X117800000Y-77647500D01*
X117800000Y-77240924D01*
X117670595Y-76928513D01*
X117613082Y-76871000D01*
X118486918Y-76871000D01*
X118429405Y-76928513D01*
X118300000Y-77240924D01*
X118300000Y-77647500D01*
X118512500Y-77860000D01*
X120320000Y-77860000D01*
X120320000Y-77840000D01*
X120420000Y-77840000D01*
X120420000Y-77860000D01*
X120440000Y-77860000D01*
X120440000Y-77960000D01*
X120420000Y-77960000D01*
X120420000Y-79047500D01*
X120632500Y-79260000D01*
X120740000Y-79260000D01*
X120740000Y-79367500D01*
X120952500Y-79580000D01*
X122040000Y-79580000D01*
X122040000Y-79560000D01*
X122140000Y-79560000D01*
X122140000Y-79580000D01*
X122160000Y-79580000D01*
X122160000Y-79680000D01*
X122140000Y-79680000D01*
X122140000Y-81487500D01*
X122352500Y-81700000D01*
X122759075Y-81700000D01*
X123071486Y-81570595D01*
X123281000Y-81361082D01*
X123281000Y-82538918D01*
X123071486Y-82329405D01*
X122759075Y-82200000D01*
X122352500Y-82200000D01*
X122140000Y-82412500D01*
X122140000Y-84900000D01*
X122160000Y-84900000D01*
X122160000Y-85000000D01*
X122140000Y-85000000D01*
X122140000Y-87487500D01*
X122352500Y-87700000D01*
X122759075Y-87700000D01*
X123071486Y-87570595D01*
X123281000Y-87361082D01*
X123281000Y-88538918D01*
X123071486Y-88329405D01*
X122759075Y-88200000D01*
X122352500Y-88200000D01*
X122140000Y-88412500D01*
X122140000Y-90900000D01*
X122160000Y-90900000D01*
X122160000Y-91000000D01*
X122140000Y-91000000D01*
X122140000Y-93487500D01*
X122352500Y-93700000D01*
X122759075Y-93700000D01*
X123071486Y-93570595D01*
X123281000Y-93361082D01*
X123281000Y-94538918D01*
X123071486Y-94329405D01*
X122759075Y-94200000D01*
X122352500Y-94200000D01*
X122140000Y-94412500D01*
X122140000Y-96900000D01*
X122160000Y-96900000D01*
X122160000Y-97000000D01*
X122140000Y-97000000D01*
X122140000Y-99487500D01*
X122352500Y-99700000D01*
X122759075Y-99700000D01*
X123071486Y-99570595D01*
X123281000Y-99361082D01*
X123281000Y-100638918D01*
X123071486Y-100429405D01*
X122759075Y-100300000D01*
X122352500Y-100300000D01*
X122140000Y-100512500D01*
X122140000Y-103000000D01*
X122160000Y-103000000D01*
X122160000Y-103100000D01*
X122140000Y-103100000D01*
X122140000Y-105587500D01*
X122352500Y-105800000D01*
X122759075Y-105800000D01*
X123071486Y-105670595D01*
X123281000Y-105461082D01*
X123281000Y-106638918D01*
X123071486Y-106429405D01*
X122759075Y-106300000D01*
X122352500Y-106300000D01*
X122140000Y-106512500D01*
X122140000Y-109000000D01*
X122160000Y-109000000D01*
X122160000Y-109100000D01*
X122140000Y-109100000D01*
X122140000Y-111587500D01*
X122352500Y-111800000D01*
X122759075Y-111800000D01*
X123071486Y-111670595D01*
X123281000Y-111461082D01*
X123281000Y-112638918D01*
X123071486Y-112429405D01*
X122759075Y-112300000D01*
X122352500Y-112300000D01*
X122140000Y-112512500D01*
X122140000Y-115000000D01*
X122160000Y-115000000D01*
X122160000Y-115100000D01*
X122140000Y-115100000D01*
X122140000Y-117587500D01*
X122352500Y-117800000D01*
X122759075Y-117800000D01*
X123071486Y-117670595D01*
X123281000Y-117461082D01*
X123281000Y-118638918D01*
X123071486Y-118429405D01*
X122759075Y-118300000D01*
X122352500Y-118300000D01*
X122140000Y-118512500D01*
X122140000Y-120320000D01*
X122160000Y-120320000D01*
X122160000Y-120420000D01*
X122140000Y-120420000D01*
X122140000Y-120440000D01*
X122040000Y-120440000D01*
X122040000Y-120420000D01*
X120952500Y-120420000D01*
X120740000Y-120632500D01*
X120740000Y-120740000D01*
X120632500Y-120740000D01*
X120420000Y-120952500D01*
X120420000Y-122040000D01*
X120440000Y-122040000D01*
X120440000Y-122140000D01*
X120420000Y-122140000D01*
X120420000Y-123227500D01*
X120632500Y-123440000D01*
X121827500Y-123440000D01*
X121875884Y-123391616D01*
X122071486Y-123310595D01*
X122147291Y-123234791D01*
X122352500Y-123440000D01*
X122759075Y-123440000D01*
X123071486Y-123310595D01*
X123281000Y-123101082D01*
X123281000Y-143604111D01*
X123261120Y-143574359D01*
X122088001Y-142401240D01*
X122088001Y-131479999D01*
X122039409Y-131235709D01*
X122011881Y-131097315D01*
X121795108Y-130772892D01*
X120061109Y-129038893D01*
X119736686Y-128822120D01*
X119354002Y-128746000D01*
X109057332Y-128746000D01*
X108990223Y-128641709D01*
X108706176Y-128447628D01*
X108369000Y-128379348D01*
X106774652Y-128379348D01*
X106774652Y-128246000D01*
X106746427Y-128096000D01*
X107306500Y-128096000D01*
X107519000Y-127883500D01*
X107519000Y-126796000D01*
X107619000Y-126796000D01*
X107619000Y-127883500D01*
X107831500Y-128096000D01*
X108538076Y-128096000D01*
X108850487Y-127966595D01*
X109089595Y-127727486D01*
X109219000Y-127415075D01*
X109219000Y-127008500D01*
X109006500Y-126796000D01*
X107619000Y-126796000D01*
X107519000Y-126796000D01*
X105333000Y-126796000D01*
X105333000Y-126816000D01*
X105233000Y-126816000D01*
X105233000Y-126796000D01*
X105213000Y-126796000D01*
X105213000Y-126696000D01*
X105233000Y-126696000D01*
X105233000Y-125608500D01*
X105333000Y-125608500D01*
X105333000Y-126696000D01*
X107519000Y-126696000D01*
X107519000Y-125608500D01*
X107619000Y-125608500D01*
X107619000Y-126696000D01*
X109006500Y-126696000D01*
X109219000Y-126483500D01*
X109219000Y-126076925D01*
X109089595Y-125764514D01*
X108850487Y-125525405D01*
X108538076Y-125396000D01*
X107831500Y-125396000D01*
X107619000Y-125608500D01*
X107519000Y-125608500D01*
X107306500Y-125396000D01*
X106599924Y-125396000D01*
X106338500Y-125504285D01*
X106077076Y-125396000D01*
X105545500Y-125396000D01*
X105333000Y-125608500D01*
X105233000Y-125608500D01*
X105020500Y-125396000D01*
X104488924Y-125396000D01*
X104176513Y-125525405D01*
X104103265Y-125598653D01*
X104096223Y-125587709D01*
X103812176Y-125393628D01*
X103475000Y-125325348D01*
X101925000Y-125325348D01*
X101610009Y-125384618D01*
X101553999Y-125420659D01*
X101553999Y-123440000D01*
X102787500Y-123440000D01*
X103000000Y-123227500D01*
X103000000Y-122140000D01*
X103100000Y-122140000D01*
X103100000Y-123227500D01*
X103312500Y-123440000D01*
X105119075Y-123440000D01*
X105431486Y-123310595D01*
X105670595Y-123071487D01*
X105800000Y-122759076D01*
X105800000Y-122352500D01*
X106300000Y-122352500D01*
X106300000Y-122759076D01*
X106429405Y-123071487D01*
X106668514Y-123310595D01*
X106980925Y-123440000D01*
X108787500Y-123440000D01*
X109000000Y-123227500D01*
X109000000Y-122140000D01*
X109100000Y-122140000D01*
X109100000Y-123227500D01*
X109312500Y-123440000D01*
X111119075Y-123440000D01*
X111431486Y-123310595D01*
X111670595Y-123071487D01*
X111800000Y-122759076D01*
X111800000Y-122352500D01*
X112300000Y-122352500D01*
X112300000Y-122759076D01*
X112429405Y-123071487D01*
X112668514Y-123310595D01*
X112980925Y-123440000D01*
X114787500Y-123440000D01*
X115000000Y-123227500D01*
X115000000Y-122140000D01*
X115100000Y-122140000D01*
X115100000Y-123227500D01*
X115312500Y-123440000D01*
X117119075Y-123440000D01*
X117431486Y-123310595D01*
X117670595Y-123071487D01*
X117800000Y-122759076D01*
X117800000Y-122352500D01*
X118300000Y-122352500D01*
X118300000Y-122759076D01*
X118429405Y-123071487D01*
X118668514Y-123310595D01*
X118980925Y-123440000D01*
X120107500Y-123440000D01*
X120320000Y-123227500D01*
X120320000Y-122140000D01*
X118512500Y-122140000D01*
X118300000Y-122352500D01*
X117800000Y-122352500D01*
X117587500Y-122140000D01*
X115100000Y-122140000D01*
X115000000Y-122140000D01*
X112512500Y-122140000D01*
X112300000Y-122352500D01*
X111800000Y-122352500D01*
X111587500Y-122140000D01*
X109100000Y-122140000D01*
X109000000Y-122140000D01*
X106512500Y-122140000D01*
X106300000Y-122352500D01*
X105800000Y-122352500D01*
X105587500Y-122140000D01*
X103100000Y-122140000D01*
X103000000Y-122140000D01*
X102980000Y-122140000D01*
X102980000Y-122040000D01*
X103000000Y-122040000D01*
X103000000Y-120952500D01*
X103100000Y-120952500D01*
X103100000Y-122040000D01*
X105587500Y-122040000D01*
X105800000Y-121827500D01*
X105800000Y-121420924D01*
X106300000Y-121420924D01*
X106300000Y-121827500D01*
X106512500Y-122040000D01*
X109000000Y-122040000D01*
X109000000Y-120952500D01*
X109100000Y-120952500D01*
X109100000Y-122040000D01*
X111587500Y-122040000D01*
X111800000Y-121827500D01*
X111800000Y-121420924D01*
X112300000Y-121420924D01*
X112300000Y-121827500D01*
X112512500Y-122040000D01*
X115000000Y-122040000D01*
X115000000Y-120952500D01*
X115100000Y-120952500D01*
X115100000Y-122040000D01*
X117587500Y-122040000D01*
X117800000Y-121827500D01*
X117800000Y-121420924D01*
X118300000Y-121420924D01*
X118300000Y-121827500D01*
X118512500Y-122040000D01*
X120320000Y-122040000D01*
X120320000Y-120952500D01*
X120107500Y-120740000D01*
X118980925Y-120740000D01*
X118668514Y-120869405D01*
X118429405Y-121108513D01*
X118300000Y-121420924D01*
X117800000Y-121420924D01*
X117670595Y-121108513D01*
X117431486Y-120869405D01*
X117119075Y-120740000D01*
X115312500Y-120740000D01*
X115100000Y-120952500D01*
X115000000Y-120952500D01*
X114787500Y-120740000D01*
X112980925Y-120740000D01*
X112668514Y-120869405D01*
X112429405Y-121108513D01*
X112300000Y-121420924D01*
X111800000Y-121420924D01*
X111670595Y-121108513D01*
X111431486Y-120869405D01*
X111119075Y-120740000D01*
X109312500Y-120740000D01*
X109100000Y-120952500D01*
X109000000Y-120952500D01*
X108787500Y-120740000D01*
X106980925Y-120740000D01*
X106668514Y-120869405D01*
X106429405Y-121108513D01*
X106300000Y-121420924D01*
X105800000Y-121420924D01*
X105670595Y-121108513D01*
X105431486Y-120869405D01*
X105119075Y-120740000D01*
X103312500Y-120740000D01*
X103100000Y-120952500D01*
X103000000Y-120952500D01*
X102787500Y-120740000D01*
X101553999Y-120740000D01*
X101553999Y-118980924D01*
X120740000Y-118980924D01*
X120740000Y-120107500D01*
X120952500Y-120320000D01*
X122040000Y-120320000D01*
X122040000Y-118512500D01*
X121827500Y-118300000D01*
X121420925Y-118300000D01*
X121108514Y-118429405D01*
X120869405Y-118668513D01*
X120740000Y-118980924D01*
X101553999Y-118980924D01*
X101553999Y-115312500D01*
X120740000Y-115312500D01*
X120740000Y-117119076D01*
X120869405Y-117431487D01*
X121108514Y-117670595D01*
X121420925Y-117800000D01*
X121827500Y-117800000D01*
X122040000Y-117587500D01*
X122040000Y-115100000D01*
X120952500Y-115100000D01*
X120740000Y-115312500D01*
X101553999Y-115312500D01*
X101553999Y-112980924D01*
X120740000Y-112980924D01*
X120740000Y-114787500D01*
X120952500Y-115000000D01*
X122040000Y-115000000D01*
X122040000Y-112512500D01*
X121827500Y-112300000D01*
X121420925Y-112300000D01*
X121108514Y-112429405D01*
X120869405Y-112668513D01*
X120740000Y-112980924D01*
X101553999Y-112980924D01*
X101553999Y-111515000D01*
X101591500Y-111515000D01*
X101804000Y-111302500D01*
X101804000Y-110265000D01*
X101904000Y-110265000D01*
X101904000Y-111302500D01*
X102116500Y-111515000D01*
X102873076Y-111515000D01*
X103185487Y-111385595D01*
X103424595Y-111146486D01*
X103554000Y-110834075D01*
X103554000Y-110477500D01*
X103341500Y-110265000D01*
X101904000Y-110265000D01*
X101804000Y-110265000D01*
X101784000Y-110265000D01*
X101784000Y-110165000D01*
X101804000Y-110165000D01*
X101804000Y-110145000D01*
X101904000Y-110145000D01*
X101904000Y-110165000D01*
X103341500Y-110165000D01*
X103554000Y-109952500D01*
X103554000Y-109595925D01*
X103436602Y-109312500D01*
X120740000Y-109312500D01*
X120740000Y-111119076D01*
X120869405Y-111431487D01*
X121108514Y-111670595D01*
X121420925Y-111800000D01*
X121827500Y-111800000D01*
X122040000Y-111587500D01*
X122040000Y-109100000D01*
X120952500Y-109100000D01*
X120740000Y-109312500D01*
X103436602Y-109312500D01*
X103424595Y-109283514D01*
X103185487Y-109044405D01*
X102873076Y-108915000D01*
X102418214Y-108915000D01*
X102561107Y-108772107D01*
X102654956Y-108631652D01*
X102704000Y-108631652D01*
X103018991Y-108572382D01*
X103308291Y-108386223D01*
X103502372Y-108102176D01*
X103570652Y-107765000D01*
X103570652Y-106980924D01*
X120740000Y-106980924D01*
X120740000Y-108787500D01*
X120952500Y-109000000D01*
X122040000Y-109000000D01*
X122040000Y-106512500D01*
X121827500Y-106300000D01*
X121420925Y-106300000D01*
X121108514Y-106429405D01*
X120869405Y-106668513D01*
X120740000Y-106980924D01*
X103570652Y-106980924D01*
X103570652Y-106865000D01*
X103511382Y-106550009D01*
X103325223Y-106260709D01*
X103116573Y-106118144D01*
X103120652Y-106098000D01*
X103120652Y-105683963D01*
X105158941Y-105659983D01*
X105246864Y-105642903D01*
X105330318Y-105589202D01*
X105386304Y-105507264D01*
X105406000Y-105410000D01*
X105406000Y-103312500D01*
X120740000Y-103312500D01*
X120740000Y-105119076D01*
X120869405Y-105431487D01*
X121108514Y-105670595D01*
X121420925Y-105800000D01*
X121827500Y-105800000D01*
X122040000Y-105587500D01*
X122040000Y-103100000D01*
X120952500Y-103100000D01*
X120740000Y-103312500D01*
X105406000Y-103312500D01*
X105406000Y-100980924D01*
X120740000Y-100980924D01*
X120740000Y-102787500D01*
X120952500Y-103000000D01*
X122040000Y-103000000D01*
X122040000Y-100512500D01*
X121827500Y-100300000D01*
X121420925Y-100300000D01*
X121108514Y-100429405D01*
X120869405Y-100668513D01*
X120740000Y-100980924D01*
X105406000Y-100980924D01*
X105406000Y-97212500D01*
X120740000Y-97212500D01*
X120740000Y-99019076D01*
X120869405Y-99331487D01*
X121108514Y-99570595D01*
X121420925Y-99700000D01*
X121827500Y-99700000D01*
X122040000Y-99487500D01*
X122040000Y-97000000D01*
X120952500Y-97000000D01*
X120740000Y-97212500D01*
X105406000Y-97212500D01*
X105406000Y-94880924D01*
X120740000Y-94880924D01*
X120740000Y-96687500D01*
X120952500Y-96900000D01*
X122040000Y-96900000D01*
X122040000Y-94412500D01*
X121827500Y-94200000D01*
X121420925Y-94200000D01*
X121108514Y-94329405D01*
X120869405Y-94568513D01*
X120740000Y-94880924D01*
X105406000Y-94880924D01*
X105406000Y-94488000D01*
X105388903Y-94397136D01*
X105335202Y-94313682D01*
X105253264Y-94257696D01*
X105156000Y-94238000D01*
X95379433Y-94238000D01*
X94492888Y-94220664D01*
X94397136Y-94237713D01*
X94313682Y-94291414D01*
X94257696Y-94373352D01*
X94238000Y-94470616D01*
X94238000Y-105519064D01*
X93892892Y-105864172D01*
X93676119Y-106188595D01*
X93676119Y-106188596D01*
X93599999Y-106571279D01*
X93599999Y-121179500D01*
X93570595Y-121108513D01*
X93331486Y-120869405D01*
X93019075Y-120740000D01*
X91212500Y-120740000D01*
X91000000Y-120952500D01*
X91000000Y-122040000D01*
X91020000Y-122040000D01*
X91020000Y-122140000D01*
X91000000Y-122140000D01*
X91000000Y-122160000D01*
X90900000Y-122160000D01*
X90900000Y-122140000D01*
X88412500Y-122140000D01*
X88200000Y-122352500D01*
X88200000Y-122444000D01*
X87700000Y-122444000D01*
X87700000Y-122352500D01*
X87487500Y-122140000D01*
X85000000Y-122140000D01*
X85000000Y-122160000D01*
X84900000Y-122160000D01*
X84900000Y-122140000D01*
X82412500Y-122140000D01*
X82200000Y-122352500D01*
X82200000Y-122444000D01*
X81700000Y-122444000D01*
X81700000Y-122352500D01*
X81487500Y-122140000D01*
X79680000Y-122140000D01*
X79680000Y-123227500D01*
X79881143Y-123428643D01*
X78102892Y-125206894D01*
X77886119Y-125531317D01*
X77855885Y-125683315D01*
X77809999Y-125914001D01*
X77809999Y-138545999D01*
X77886119Y-138928683D01*
X78102892Y-139253106D01*
X87233348Y-148383562D01*
X87233348Y-148836000D01*
X87292618Y-149150991D01*
X87478777Y-149440291D01*
X87762824Y-149634372D01*
X88100000Y-149702652D01*
X89700000Y-149702652D01*
X90014991Y-149643382D01*
X90304291Y-149457223D01*
X90387119Y-149336000D01*
X91025786Y-149336000D01*
X94288891Y-152599104D01*
X94288893Y-152599107D01*
X95266000Y-153576214D01*
X95266000Y-167440348D01*
X93942000Y-167440348D01*
X93627009Y-167499618D01*
X93337709Y-167685777D01*
X93202000Y-167884394D01*
X93202000Y-164084000D01*
X93125880Y-163701317D01*
X92909107Y-163376893D01*
X91482214Y-161950000D01*
X91487500Y-161950000D01*
X91700000Y-161737500D01*
X91700000Y-160550000D01*
X91800000Y-160550000D01*
X91800000Y-161737500D01*
X92012500Y-161950000D01*
X93169076Y-161950000D01*
X93481487Y-161820595D01*
X93720595Y-161581486D01*
X93850000Y-161269075D01*
X93850000Y-160762500D01*
X93637500Y-160550000D01*
X91800000Y-160550000D01*
X91700000Y-160550000D01*
X91680000Y-160550000D01*
X91680000Y-160450000D01*
X91700000Y-160450000D01*
X91700000Y-160430000D01*
X91800000Y-160430000D01*
X91800000Y-160450000D01*
X93637500Y-160450000D01*
X93850000Y-160237500D01*
X93850000Y-159730925D01*
X93720595Y-159418514D01*
X93555014Y-159252932D01*
X93604291Y-159221223D01*
X93798372Y-158937176D01*
X93866652Y-158600000D01*
X93866652Y-157400000D01*
X93807382Y-157085009D01*
X93621223Y-156795709D01*
X93556869Y-156751738D01*
X93604291Y-156721223D01*
X93798372Y-156437176D01*
X93866652Y-156100000D01*
X93866652Y-154900000D01*
X93807382Y-154585009D01*
X93621223Y-154295709D01*
X93337176Y-154101628D01*
X93000000Y-154033348D01*
X90500000Y-154033348D01*
X90185009Y-154092618D01*
X89895709Y-154278777D01*
X89701628Y-154562824D01*
X89643890Y-154847943D01*
X89607107Y-154792893D01*
X89282683Y-154576120D01*
X88900000Y-154500000D01*
X88252680Y-154500000D01*
X88121223Y-154295709D01*
X87837176Y-154101628D01*
X87500000Y-154033348D01*
X85000000Y-154033348D01*
X84685009Y-154092618D01*
X84395709Y-154278777D01*
X84201628Y-154562824D01*
X84133348Y-154900000D01*
X84133348Y-156019134D01*
X83296000Y-155181786D01*
X83296000Y-153322214D01*
X84282214Y-152336000D01*
X87411668Y-152336000D01*
X87478777Y-152440291D01*
X87762824Y-152634372D01*
X88100000Y-152702652D01*
X89700000Y-152702652D01*
X90014991Y-152643382D01*
X90304291Y-152457223D01*
X90498372Y-152173176D01*
X90566652Y-151836000D01*
X90566652Y-150836000D01*
X90507382Y-150521009D01*
X90321223Y-150231709D01*
X90037176Y-150037628D01*
X89700000Y-149969348D01*
X88100000Y-149969348D01*
X87785009Y-150028618D01*
X87495709Y-150214777D01*
X87412881Y-150336000D01*
X83868005Y-150336000D01*
X83868000Y-150335999D01*
X83485316Y-150412120D01*
X83160893Y-150628893D01*
X81588893Y-152200893D01*
X81372120Y-152525316D01*
X81316009Y-152807405D01*
X81296000Y-152908000D01*
X81296000Y-155596000D01*
X81372120Y-155978684D01*
X81588893Y-156303107D01*
X83992891Y-158707104D01*
X83992893Y-158707107D01*
X84176598Y-158829855D01*
X84192618Y-158914991D01*
X84378777Y-159204291D01*
X84447007Y-159250911D01*
X84279405Y-159418514D01*
X84150000Y-159730925D01*
X84150000Y-160237500D01*
X84362500Y-160450000D01*
X86200000Y-160450000D01*
X86200000Y-160430000D01*
X86300000Y-160430000D01*
X86300000Y-160450000D01*
X86320000Y-160450000D01*
X86320000Y-160550000D01*
X86300000Y-160550000D01*
X86300000Y-161737500D01*
X86512500Y-161950000D01*
X87669076Y-161950000D01*
X87981487Y-161820595D01*
X88220595Y-161581486D01*
X88239538Y-161535752D01*
X91202000Y-164498214D01*
X91202000Y-175577500D01*
X91278120Y-175960184D01*
X91494893Y-176284607D01*
X100651500Y-185441214D01*
X100651500Y-193548000D01*
X100668597Y-193638864D01*
X100722298Y-193722318D01*
X100804236Y-193778304D01*
X100901500Y-193798000D01*
X118554500Y-193798000D01*
X118645364Y-193780903D01*
X118728818Y-193727202D01*
X118784804Y-193645264D01*
X118804500Y-193548000D01*
X118804500Y-178562000D01*
X118787403Y-178471136D01*
X118733702Y-178387682D01*
X118651764Y-178331696D01*
X118554500Y-178312000D01*
X100901500Y-178312000D01*
X100810636Y-178329097D01*
X100727182Y-178382798D01*
X100671196Y-178464736D01*
X100651500Y-178562000D01*
X100651500Y-182612786D01*
X93202000Y-175163286D01*
X93202000Y-173412500D01*
X96100000Y-173412500D01*
X96100000Y-174319075D01*
X96229405Y-174631486D01*
X96468513Y-174870595D01*
X96780924Y-175000000D01*
X97437500Y-175000000D01*
X97650000Y-174787500D01*
X97650000Y-173200000D01*
X96312500Y-173200000D01*
X96100000Y-173412500D01*
X93202000Y-173412500D01*
X93202000Y-172741638D01*
X93221405Y-172788486D01*
X93460513Y-173027595D01*
X93772924Y-173157000D01*
X94479500Y-173157000D01*
X94692000Y-172944500D01*
X94692000Y-171857000D01*
X94672000Y-171857000D01*
X94672000Y-171757000D01*
X94692000Y-171757000D01*
X94692000Y-170669500D01*
X94792000Y-170669500D01*
X94792000Y-171757000D01*
X94812000Y-171757000D01*
X94812000Y-171857000D01*
X94792000Y-171857000D01*
X94792000Y-172944500D01*
X95004500Y-173157000D01*
X95711076Y-173157000D01*
X96023487Y-173027595D01*
X96131791Y-172919291D01*
X96312500Y-173100000D01*
X97650000Y-173100000D01*
X97650000Y-171512500D01*
X97437500Y-171300000D01*
X96780924Y-171300000D01*
X96468513Y-171429405D01*
X96392000Y-171505918D01*
X96392000Y-171137925D01*
X96262595Y-170825514D01*
X96023487Y-170586405D01*
X95711076Y-170457000D01*
X95004500Y-170457000D01*
X94792000Y-170669500D01*
X94692000Y-170669500D01*
X94479500Y-170457000D01*
X93772924Y-170457000D01*
X93460513Y-170586405D01*
X93221405Y-170825514D01*
X93202000Y-170872362D01*
X93202000Y-169726706D01*
X93320777Y-169911291D01*
X93604824Y-170105372D01*
X93942000Y-170173652D01*
X95542000Y-170173652D01*
X95856991Y-170114382D01*
X96146291Y-169928223D01*
X96229119Y-169807000D01*
X101300000Y-169807000D01*
X101300000Y-171330389D01*
X101235009Y-171342618D01*
X101152085Y-171395978D01*
X101087176Y-171351628D01*
X100750000Y-171283348D01*
X99250000Y-171283348D01*
X98935009Y-171342618D01*
X98851577Y-171396305D01*
X98619076Y-171300000D01*
X97962500Y-171300000D01*
X97750000Y-171512500D01*
X97750000Y-173100000D01*
X97770000Y-173100000D01*
X97770000Y-173200000D01*
X97750000Y-173200000D01*
X97750000Y-174787500D01*
X97962500Y-175000000D01*
X98619076Y-175000000D01*
X98848999Y-174904763D01*
X98912824Y-174948372D01*
X99250000Y-175016652D01*
X100750000Y-175016652D01*
X101064991Y-174957382D01*
X101147915Y-174904022D01*
X101212824Y-174948372D01*
X101550000Y-175016652D01*
X103050000Y-175016652D01*
X103364991Y-174957382D01*
X103654291Y-174771223D01*
X103848372Y-174487176D01*
X103916652Y-174150000D01*
X103916652Y-172150000D01*
X103857382Y-171835009D01*
X103671223Y-171545709D01*
X103387176Y-171351628D01*
X103300000Y-171333974D01*
X103300000Y-171061500D01*
X103808000Y-171061500D01*
X103808000Y-171468075D01*
X103937405Y-171780486D01*
X104176513Y-172019595D01*
X104488924Y-172149000D01*
X105020500Y-172149000D01*
X105233000Y-171936500D01*
X105233000Y-170849000D01*
X105333000Y-170849000D01*
X105333000Y-171936500D01*
X105545500Y-172149000D01*
X106077076Y-172149000D01*
X106389487Y-172019595D01*
X106628595Y-171780486D01*
X106758000Y-171468075D01*
X106758000Y-171061500D01*
X106545500Y-170849000D01*
X105333000Y-170849000D01*
X105233000Y-170849000D01*
X104020500Y-170849000D01*
X103808000Y-171061500D01*
X103300000Y-171061500D01*
X103300000Y-169807000D01*
X103947919Y-169807000D01*
X103937405Y-169817514D01*
X103808000Y-170129925D01*
X103808000Y-170536500D01*
X104020500Y-170749000D01*
X105233000Y-170749000D01*
X105233000Y-170729000D01*
X105333000Y-170729000D01*
X105333000Y-170749000D01*
X106545500Y-170749000D01*
X106758000Y-170536500D01*
X106758000Y-170129925D01*
X106628595Y-169817514D01*
X106601192Y-169790111D01*
X106706372Y-169636176D01*
X106774652Y-169299000D01*
X106774652Y-168299000D01*
X106715382Y-167984009D01*
X106629150Y-167850000D01*
X110060002Y-167850000D01*
X110442686Y-167773880D01*
X110767109Y-167557107D01*
X114002203Y-164322012D01*
X114436533Y-164322012D01*
X114819217Y-164245892D01*
X115143640Y-164029119D01*
X121795108Y-157377651D01*
X121851741Y-157292893D01*
X122011881Y-157053227D01*
X122088001Y-156670544D01*
X122088001Y-149580300D01*
X123261120Y-148407181D01*
X123281000Y-148377429D01*
X123281000Y-191640852D01*
X119631852Y-195290000D01*
X80520148Y-195290000D01*
X76998000Y-191767852D01*
X76998000Y-187968503D01*
X83937208Y-187968503D01*
X84138697Y-188408911D01*
X85176365Y-188865801D01*
X86309890Y-188890812D01*
X87366701Y-188480140D01*
X87473303Y-188408911D01*
X87674792Y-187968503D01*
X91557208Y-187968503D01*
X91758697Y-188408911D01*
X92796365Y-188865801D01*
X93929890Y-188890812D01*
X94986701Y-188480140D01*
X95093303Y-188408911D01*
X95294792Y-187968503D01*
X93426000Y-186099711D01*
X91557208Y-187968503D01*
X87674792Y-187968503D01*
X85806000Y-186099711D01*
X83937208Y-187968503D01*
X76998000Y-187968503D01*
X76998000Y-186532890D01*
X82944188Y-186532890D01*
X83354860Y-187589701D01*
X83426089Y-187696303D01*
X83866497Y-187897792D01*
X85735289Y-186029000D01*
X85876711Y-186029000D01*
X87745503Y-187897792D01*
X88185911Y-187696303D01*
X88642801Y-186658635D01*
X88645575Y-186532890D01*
X90564188Y-186532890D01*
X90974860Y-187589701D01*
X91046089Y-187696303D01*
X91486497Y-187897792D01*
X93355289Y-186029000D01*
X93496711Y-186029000D01*
X95365503Y-187897792D01*
X95805911Y-187696303D01*
X96262801Y-186658635D01*
X96287812Y-185525110D01*
X95877140Y-184468299D01*
X95805911Y-184361697D01*
X95365503Y-184160208D01*
X93496711Y-186029000D01*
X93355289Y-186029000D01*
X91486497Y-184160208D01*
X91046089Y-184361697D01*
X90589199Y-185399365D01*
X90564188Y-186532890D01*
X88645575Y-186532890D01*
X88667812Y-185525110D01*
X88257140Y-184468299D01*
X88185911Y-184361697D01*
X87745503Y-184160208D01*
X85876711Y-186029000D01*
X85735289Y-186029000D01*
X83866497Y-184160208D01*
X83426089Y-184361697D01*
X82969199Y-185399365D01*
X82944188Y-186532890D01*
X76998000Y-186532890D01*
X76998000Y-184089497D01*
X83937208Y-184089497D01*
X85806000Y-185958289D01*
X87674792Y-184089497D01*
X91557208Y-184089497D01*
X93426000Y-185958289D01*
X95294792Y-184089497D01*
X95093303Y-183649089D01*
X94055635Y-183192199D01*
X92922110Y-183167188D01*
X91865299Y-183577860D01*
X91758697Y-183649089D01*
X91557208Y-184089497D01*
X87674792Y-184089497D01*
X87473303Y-183649089D01*
X86435635Y-183192199D01*
X85302110Y-183167188D01*
X84245299Y-183577860D01*
X84138697Y-183649089D01*
X83937208Y-184089497D01*
X76998000Y-184089497D01*
X76998000Y-160762500D01*
X84150000Y-160762500D01*
X84150000Y-161269075D01*
X84279405Y-161581486D01*
X84518513Y-161820595D01*
X84830924Y-161950000D01*
X85987500Y-161950000D01*
X86200000Y-161737500D01*
X86200000Y-160550000D01*
X84362500Y-160550000D01*
X84150000Y-160762500D01*
X76998000Y-160762500D01*
X76998000Y-123339377D01*
X77240925Y-123440000D01*
X77647500Y-123440000D01*
X77852709Y-123234791D01*
X77928514Y-123310595D01*
X78124116Y-123391616D01*
X78172500Y-123440000D01*
X79367500Y-123440000D01*
X79580000Y-123227500D01*
X79580000Y-122140000D01*
X79560000Y-122140000D01*
X79560000Y-122040000D01*
X79580000Y-122040000D01*
X79580000Y-120952500D01*
X79680000Y-120952500D01*
X79680000Y-122040000D01*
X81487500Y-122040000D01*
X81700000Y-121827500D01*
X81700000Y-121420924D01*
X82200000Y-121420924D01*
X82200000Y-121827500D01*
X82412500Y-122040000D01*
X84900000Y-122040000D01*
X84900000Y-120952500D01*
X85000000Y-120952500D01*
X85000000Y-122040000D01*
X87487500Y-122040000D01*
X87700000Y-121827500D01*
X87700000Y-121420924D01*
X88200000Y-121420924D01*
X88200000Y-121827500D01*
X88412500Y-122040000D01*
X90900000Y-122040000D01*
X90900000Y-120952500D01*
X90687500Y-120740000D01*
X88880925Y-120740000D01*
X88568514Y-120869405D01*
X88329405Y-121108513D01*
X88200000Y-121420924D01*
X87700000Y-121420924D01*
X87570595Y-121108513D01*
X87331486Y-120869405D01*
X87019075Y-120740000D01*
X85212500Y-120740000D01*
X85000000Y-120952500D01*
X84900000Y-120952500D01*
X84687500Y-120740000D01*
X82880925Y-120740000D01*
X82568514Y-120869405D01*
X82329405Y-121108513D01*
X82200000Y-121420924D01*
X81700000Y-121420924D01*
X81570595Y-121108513D01*
X81331486Y-120869405D01*
X81019075Y-120740000D01*
X79892500Y-120740000D01*
X79680000Y-120952500D01*
X79580000Y-120952500D01*
X79367500Y-120740000D01*
X79260000Y-120740000D01*
X79260000Y-120632500D01*
X79047500Y-120420000D01*
X77960000Y-120420000D01*
X77960000Y-120440000D01*
X77860000Y-120440000D01*
X77860000Y-120420000D01*
X77840000Y-120420000D01*
X77840000Y-120320000D01*
X77860000Y-120320000D01*
X77860000Y-118512500D01*
X77960000Y-118512500D01*
X77960000Y-120320000D01*
X79047500Y-120320000D01*
X79260000Y-120107500D01*
X79260000Y-118980924D01*
X79130595Y-118668513D01*
X78891486Y-118429405D01*
X78579075Y-118300000D01*
X78172500Y-118300000D01*
X77960000Y-118512500D01*
X77860000Y-118512500D01*
X77647500Y-118300000D01*
X77240925Y-118300000D01*
X76998000Y-118400623D01*
X76998000Y-117699377D01*
X77240925Y-117800000D01*
X77647500Y-117800000D01*
X77860000Y-117587500D01*
X77860000Y-115100000D01*
X77960000Y-115100000D01*
X77960000Y-117587500D01*
X78172500Y-117800000D01*
X78579075Y-117800000D01*
X78891486Y-117670595D01*
X79130595Y-117431487D01*
X79260000Y-117119076D01*
X79260000Y-115312500D01*
X79047500Y-115100000D01*
X77960000Y-115100000D01*
X77860000Y-115100000D01*
X77840000Y-115100000D01*
X77840000Y-115000000D01*
X77860000Y-115000000D01*
X77860000Y-112512500D01*
X77960000Y-112512500D01*
X77960000Y-115000000D01*
X79047500Y-115000000D01*
X79260000Y-114787500D01*
X79260000Y-112980924D01*
X79130595Y-112668513D01*
X78891486Y-112429405D01*
X78579075Y-112300000D01*
X78172500Y-112300000D01*
X77960000Y-112512500D01*
X77860000Y-112512500D01*
X77647500Y-112300000D01*
X77240925Y-112300000D01*
X76998000Y-112400623D01*
X76998000Y-111699377D01*
X77240925Y-111800000D01*
X77647500Y-111800000D01*
X77860000Y-111587500D01*
X77860000Y-109100000D01*
X77960000Y-109100000D01*
X77960000Y-111587500D01*
X78172500Y-111800000D01*
X78579075Y-111800000D01*
X78891486Y-111670595D01*
X79130595Y-111431487D01*
X79260000Y-111119076D01*
X79260000Y-109312500D01*
X79047500Y-109100000D01*
X77960000Y-109100000D01*
X77860000Y-109100000D01*
X77840000Y-109100000D01*
X77840000Y-109000000D01*
X77860000Y-109000000D01*
X77860000Y-106512500D01*
X77960000Y-106512500D01*
X77960000Y-109000000D01*
X79047500Y-109000000D01*
X79260000Y-108787500D01*
X79260000Y-106980924D01*
X79130595Y-106668513D01*
X78891486Y-106429405D01*
X78579075Y-106300000D01*
X78172500Y-106300000D01*
X77960000Y-106512500D01*
X77860000Y-106512500D01*
X77647500Y-106300000D01*
X77240925Y-106300000D01*
X76998000Y-106400623D01*
X76998000Y-105699377D01*
X77240925Y-105800000D01*
X77647500Y-105800000D01*
X77860000Y-105587500D01*
X77860000Y-103100000D01*
X77960000Y-103100000D01*
X77960000Y-105587500D01*
X78172500Y-105800000D01*
X78579075Y-105800000D01*
X78891486Y-105670595D01*
X79130595Y-105431487D01*
X79260000Y-105119076D01*
X79260000Y-103312500D01*
X79047500Y-103100000D01*
X77960000Y-103100000D01*
X77860000Y-103100000D01*
X77840000Y-103100000D01*
X77840000Y-103000000D01*
X77860000Y-103000000D01*
X77860000Y-100512500D01*
X77960000Y-100512500D01*
X77960000Y-103000000D01*
X79047500Y-103000000D01*
X79260000Y-102787500D01*
X79260000Y-100980924D01*
X79130595Y-100668513D01*
X78891486Y-100429405D01*
X78579075Y-100300000D01*
X78172500Y-100300000D01*
X77960000Y-100512500D01*
X77860000Y-100512500D01*
X77647500Y-100300000D01*
X77240925Y-100300000D01*
X76998000Y-100400623D01*
X76998000Y-99599377D01*
X77240925Y-99700000D01*
X77647500Y-99700000D01*
X77860000Y-99487500D01*
X77860000Y-97000000D01*
X77960000Y-97000000D01*
X77960000Y-99487500D01*
X78172500Y-99700000D01*
X78579075Y-99700000D01*
X78891486Y-99570595D01*
X79130595Y-99331487D01*
X79260000Y-99019076D01*
X79260000Y-97212500D01*
X79047500Y-97000000D01*
X77960000Y-97000000D01*
X77860000Y-97000000D01*
X77840000Y-97000000D01*
X77840000Y-96900000D01*
X77860000Y-96900000D01*
X77860000Y-94412500D01*
X77960000Y-94412500D01*
X77960000Y-96900000D01*
X79047500Y-96900000D01*
X79260000Y-96687500D01*
X79260000Y-94880924D01*
X79130595Y-94568513D01*
X78891486Y-94329405D01*
X78579075Y-94200000D01*
X78172500Y-94200000D01*
X77960000Y-94412500D01*
X77860000Y-94412500D01*
X77647500Y-94200000D01*
X77240925Y-94200000D01*
X76998000Y-94300623D01*
X76998000Y-93599377D01*
X77240925Y-93700000D01*
X77647500Y-93700000D01*
X77860000Y-93487500D01*
X77860000Y-91000000D01*
X77960000Y-91000000D01*
X77960000Y-93487500D01*
X78172500Y-93700000D01*
X78579075Y-93700000D01*
X78891486Y-93570595D01*
X79130595Y-93331487D01*
X79260000Y-93019076D01*
X79260000Y-91212500D01*
X120740000Y-91212500D01*
X120740000Y-93019076D01*
X120869405Y-93331487D01*
X121108514Y-93570595D01*
X121420925Y-93700000D01*
X121827500Y-93700000D01*
X122040000Y-93487500D01*
X122040000Y-91000000D01*
X120952500Y-91000000D01*
X120740000Y-91212500D01*
X79260000Y-91212500D01*
X79047500Y-91000000D01*
X77960000Y-91000000D01*
X77860000Y-91000000D01*
X77840000Y-91000000D01*
X77840000Y-90900000D01*
X77860000Y-90900000D01*
X77860000Y-88412500D01*
X77960000Y-88412500D01*
X77960000Y-90900000D01*
X79047500Y-90900000D01*
X79260000Y-90687500D01*
X79260000Y-88880924D01*
X120740000Y-88880924D01*
X120740000Y-90687500D01*
X120952500Y-90900000D01*
X122040000Y-90900000D01*
X122040000Y-88412500D01*
X121827500Y-88200000D01*
X121420925Y-88200000D01*
X121108514Y-88329405D01*
X120869405Y-88568513D01*
X120740000Y-88880924D01*
X79260000Y-88880924D01*
X79130595Y-88568513D01*
X78891486Y-88329405D01*
X78579075Y-88200000D01*
X78172500Y-88200000D01*
X77960000Y-88412500D01*
X77860000Y-88412500D01*
X77647500Y-88200000D01*
X77240925Y-88200000D01*
X76998000Y-88300623D01*
X76998000Y-87599377D01*
X77240925Y-87700000D01*
X77647500Y-87700000D01*
X77860000Y-87487500D01*
X77860000Y-85000000D01*
X77960000Y-85000000D01*
X77960000Y-87487500D01*
X78172500Y-87700000D01*
X78579075Y-87700000D01*
X78891486Y-87570595D01*
X79130595Y-87331487D01*
X79260000Y-87019076D01*
X79260000Y-85212500D01*
X120740000Y-85212500D01*
X120740000Y-87019076D01*
X120869405Y-87331487D01*
X121108514Y-87570595D01*
X121420925Y-87700000D01*
X121827500Y-87700000D01*
X122040000Y-87487500D01*
X122040000Y-85000000D01*
X120952500Y-85000000D01*
X120740000Y-85212500D01*
X79260000Y-85212500D01*
X79047500Y-85000000D01*
X77960000Y-85000000D01*
X77860000Y-85000000D01*
X77840000Y-85000000D01*
X77840000Y-84900000D01*
X77860000Y-84900000D01*
X77860000Y-82412500D01*
X77960000Y-82412500D01*
X77960000Y-84900000D01*
X79047500Y-84900000D01*
X79260000Y-84687500D01*
X79260000Y-82880924D01*
X120740000Y-82880924D01*
X120740000Y-84687500D01*
X120952500Y-84900000D01*
X122040000Y-84900000D01*
X122040000Y-82412500D01*
X121827500Y-82200000D01*
X121420925Y-82200000D01*
X121108514Y-82329405D01*
X120869405Y-82568513D01*
X120740000Y-82880924D01*
X79260000Y-82880924D01*
X79130595Y-82568513D01*
X78891486Y-82329405D01*
X78579075Y-82200000D01*
X78172500Y-82200000D01*
X77960000Y-82412500D01*
X77860000Y-82412500D01*
X77647500Y-82200000D01*
X77240925Y-82200000D01*
X76998000Y-82300623D01*
X76998000Y-81599377D01*
X77240925Y-81700000D01*
X77647500Y-81700000D01*
X77860000Y-81487500D01*
X77860000Y-79680000D01*
X77960000Y-79680000D01*
X77960000Y-81487500D01*
X78172500Y-81700000D01*
X78579075Y-81700000D01*
X78891486Y-81570595D01*
X79130595Y-81331487D01*
X79260000Y-81019076D01*
X79260000Y-79892500D01*
X120740000Y-79892500D01*
X120740000Y-81019076D01*
X120869405Y-81331487D01*
X121108514Y-81570595D01*
X121420925Y-81700000D01*
X121827500Y-81700000D01*
X122040000Y-81487500D01*
X122040000Y-79680000D01*
X120952500Y-79680000D01*
X120740000Y-79892500D01*
X79260000Y-79892500D01*
X79047500Y-79680000D01*
X77960000Y-79680000D01*
X77860000Y-79680000D01*
X77840000Y-79680000D01*
X77840000Y-79580000D01*
X77860000Y-79580000D01*
X77860000Y-79560000D01*
X77960000Y-79560000D01*
X77960000Y-79580000D01*
X79047500Y-79580000D01*
X79260000Y-79367500D01*
X79260000Y-79260000D01*
X79367500Y-79260000D01*
X79580000Y-79047500D01*
X79580000Y-77960000D01*
X79680000Y-77960000D01*
X79680000Y-79047500D01*
X79892500Y-79260000D01*
X81019075Y-79260000D01*
X81331486Y-79130595D01*
X81570595Y-78891487D01*
X81700000Y-78579076D01*
X81700000Y-78172500D01*
X82200000Y-78172500D01*
X82200000Y-78579076D01*
X82329405Y-78891487D01*
X82568514Y-79130595D01*
X82880925Y-79260000D01*
X84687500Y-79260000D01*
X84900000Y-79047500D01*
X84900000Y-77960000D01*
X85000000Y-77960000D01*
X85000000Y-79047500D01*
X85212500Y-79260000D01*
X87019075Y-79260000D01*
X87331486Y-79130595D01*
X87570595Y-78891487D01*
X87700000Y-78579076D01*
X87700000Y-78172500D01*
X88200000Y-78172500D01*
X88200000Y-78579076D01*
X88329405Y-78891487D01*
X88568514Y-79130595D01*
X88880925Y-79260000D01*
X90687500Y-79260000D01*
X90900000Y-79047500D01*
X90900000Y-77960000D01*
X91000000Y-77960000D01*
X91000000Y-79047500D01*
X91212500Y-79260000D01*
X93019075Y-79260000D01*
X93331486Y-79130595D01*
X93570595Y-78891487D01*
X93700000Y-78579076D01*
X93700000Y-78172500D01*
X94200000Y-78172500D01*
X94200000Y-78579076D01*
X94329405Y-78891487D01*
X94568514Y-79130595D01*
X94880925Y-79260000D01*
X96687500Y-79260000D01*
X96900000Y-79047500D01*
X96900000Y-77960000D01*
X97000000Y-77960000D01*
X97000000Y-79047500D01*
X97212500Y-79260000D01*
X99019075Y-79260000D01*
X99331486Y-79130595D01*
X99570595Y-78891487D01*
X99700000Y-78579076D01*
X99700000Y-78172500D01*
X100300000Y-78172500D01*
X100300000Y-78579076D01*
X100429405Y-78891487D01*
X100668514Y-79130595D01*
X100980925Y-79260000D01*
X102787500Y-79260000D01*
X103000000Y-79047500D01*
X103000000Y-77960000D01*
X103100000Y-77960000D01*
X103100000Y-79047500D01*
X103312500Y-79260000D01*
X105119075Y-79260000D01*
X105431486Y-79130595D01*
X105670595Y-78891487D01*
X105800000Y-78579076D01*
X105800000Y-78172500D01*
X106300000Y-78172500D01*
X106300000Y-78579076D01*
X106429405Y-78891487D01*
X106668514Y-79130595D01*
X106980925Y-79260000D01*
X108787500Y-79260000D01*
X109000000Y-79047500D01*
X109000000Y-77960000D01*
X109100000Y-77960000D01*
X109100000Y-79047500D01*
X109312500Y-79260000D01*
X111119075Y-79260000D01*
X111431486Y-79130595D01*
X111670595Y-78891487D01*
X111800000Y-78579076D01*
X111800000Y-78172500D01*
X112300000Y-78172500D01*
X112300000Y-78579076D01*
X112429405Y-78891487D01*
X112668514Y-79130595D01*
X112980925Y-79260000D01*
X114787500Y-79260000D01*
X115000000Y-79047500D01*
X115000000Y-77960000D01*
X115100000Y-77960000D01*
X115100000Y-79047500D01*
X115312500Y-79260000D01*
X117119075Y-79260000D01*
X117431486Y-79130595D01*
X117670595Y-78891487D01*
X117800000Y-78579076D01*
X117800000Y-78172500D01*
X118300000Y-78172500D01*
X118300000Y-78579076D01*
X118429405Y-78891487D01*
X118668514Y-79130595D01*
X118980925Y-79260000D01*
X120107500Y-79260000D01*
X120320000Y-79047500D01*
X120320000Y-77960000D01*
X118512500Y-77960000D01*
X118300000Y-78172500D01*
X117800000Y-78172500D01*
X117587500Y-77960000D01*
X115100000Y-77960000D01*
X115000000Y-77960000D01*
X112512500Y-77960000D01*
X112300000Y-78172500D01*
X111800000Y-78172500D01*
X111587500Y-77960000D01*
X109100000Y-77960000D01*
X109000000Y-77960000D01*
X106512500Y-77960000D01*
X106300000Y-78172500D01*
X105800000Y-78172500D01*
X105587500Y-77960000D01*
X103100000Y-77960000D01*
X103000000Y-77960000D01*
X100512500Y-77960000D01*
X100300000Y-78172500D01*
X99700000Y-78172500D01*
X99487500Y-77960000D01*
X97000000Y-77960000D01*
X96900000Y-77960000D01*
X94412500Y-77960000D01*
X94200000Y-78172500D01*
X93700000Y-78172500D01*
X93487500Y-77960000D01*
X91000000Y-77960000D01*
X90900000Y-77960000D01*
X88412500Y-77960000D01*
X88200000Y-78172500D01*
X87700000Y-78172500D01*
X87487500Y-77960000D01*
X85000000Y-77960000D01*
X84900000Y-77960000D01*
X82412500Y-77960000D01*
X82200000Y-78172500D01*
X81700000Y-78172500D01*
X81487500Y-77960000D01*
X79680000Y-77960000D01*
X79580000Y-77960000D01*
X79560000Y-77960000D01*
X79560000Y-77860000D01*
X79580000Y-77860000D01*
X79580000Y-77840000D01*
X79680000Y-77840000D01*
X79680000Y-77860000D01*
X81487500Y-77860000D01*
X81700000Y-77647500D01*
X81700000Y-77240924D01*
X81570595Y-76928513D01*
X81513082Y-76871000D01*
X82386918Y-76871000D01*
X82329405Y-76928513D01*
X82329405Y-76928513D01*
G37*
X82329405Y-76928513D02*
X82200000Y-77240924D01*
X82200000Y-77647500D01*
X82412500Y-77860000D01*
X84900000Y-77860000D01*
X84900000Y-77840000D01*
X85000000Y-77840000D01*
X85000000Y-77860000D01*
X87487500Y-77860000D01*
X87700000Y-77647500D01*
X87700000Y-77240924D01*
X87570595Y-76928513D01*
X87513082Y-76871000D01*
X88386918Y-76871000D01*
X88329405Y-76928513D01*
X88200000Y-77240924D01*
X88200000Y-77647500D01*
X88412500Y-77860000D01*
X90900000Y-77860000D01*
X90900000Y-77840000D01*
X91000000Y-77840000D01*
X91000000Y-77860000D01*
X93487500Y-77860000D01*
X93700000Y-77647500D01*
X93700000Y-77240924D01*
X93570595Y-76928513D01*
X93513082Y-76871000D01*
X94386918Y-76871000D01*
X94329405Y-76928513D01*
X94200000Y-77240924D01*
X94200000Y-77647500D01*
X94412500Y-77860000D01*
X96900000Y-77860000D01*
X96900000Y-77840000D01*
X97000000Y-77840000D01*
X97000000Y-77860000D01*
X99487500Y-77860000D01*
X99700000Y-77647500D01*
X99700000Y-77240924D01*
X99570595Y-76928513D01*
X99513082Y-76871000D01*
X100486918Y-76871000D01*
X100429405Y-76928513D01*
X100300000Y-77240924D01*
X100300000Y-77647500D01*
X100512500Y-77860000D01*
X103000000Y-77860000D01*
X103000000Y-77840000D01*
X103100000Y-77840000D01*
X103100000Y-77860000D01*
X105587500Y-77860000D01*
X105800000Y-77647500D01*
X105800000Y-77240924D01*
X105670595Y-76928513D01*
X105613082Y-76871000D01*
X106486918Y-76871000D01*
X106429405Y-76928513D01*
X106300000Y-77240924D01*
X106300000Y-77647500D01*
X106512500Y-77860000D01*
X109000000Y-77860000D01*
X109000000Y-77840000D01*
X109100000Y-77840000D01*
X109100000Y-77860000D01*
X111587500Y-77860000D01*
X111800000Y-77647500D01*
X111800000Y-77240924D01*
X111670595Y-76928513D01*
X111613082Y-76871000D01*
X112486918Y-76871000D01*
X112429405Y-76928513D01*
X112300000Y-77240924D01*
X112300000Y-77647500D01*
X112512500Y-77860000D01*
X115000000Y-77860000D01*
X115000000Y-77840000D01*
X115100000Y-77840000D01*
X115100000Y-77860000D01*
X117587500Y-77860000D01*
X117800000Y-77647500D01*
X117800000Y-77240924D01*
X117670595Y-76928513D01*
X117613082Y-76871000D01*
X118486918Y-76871000D01*
X118429405Y-76928513D01*
X118300000Y-77240924D01*
X118300000Y-77647500D01*
X118512500Y-77860000D01*
X120320000Y-77860000D01*
X120320000Y-77840000D01*
X120420000Y-77840000D01*
X120420000Y-77860000D01*
X120440000Y-77860000D01*
X120440000Y-77960000D01*
X120420000Y-77960000D01*
X120420000Y-79047500D01*
X120632500Y-79260000D01*
X120740000Y-79260000D01*
X120740000Y-79367500D01*
X120952500Y-79580000D01*
X122040000Y-79580000D01*
X122040000Y-79560000D01*
X122140000Y-79560000D01*
X122140000Y-79580000D01*
X122160000Y-79580000D01*
X122160000Y-79680000D01*
X122140000Y-79680000D01*
X122140000Y-81487500D01*
X122352500Y-81700000D01*
X122759075Y-81700000D01*
X123071486Y-81570595D01*
X123281000Y-81361082D01*
X123281000Y-82538918D01*
X123071486Y-82329405D01*
X122759075Y-82200000D01*
X122352500Y-82200000D01*
X122140000Y-82412500D01*
X122140000Y-84900000D01*
X122160000Y-84900000D01*
X122160000Y-85000000D01*
X122140000Y-85000000D01*
X122140000Y-87487500D01*
X122352500Y-87700000D01*
X122759075Y-87700000D01*
X123071486Y-87570595D01*
X123281000Y-87361082D01*
X123281000Y-88538918D01*
X123071486Y-88329405D01*
X122759075Y-88200000D01*
X122352500Y-88200000D01*
X122140000Y-88412500D01*
X122140000Y-90900000D01*
X122160000Y-90900000D01*
X122160000Y-91000000D01*
X122140000Y-91000000D01*
X122140000Y-93487500D01*
X122352500Y-93700000D01*
X122759075Y-93700000D01*
X123071486Y-93570595D01*
X123281000Y-93361082D01*
X123281000Y-94538918D01*
X123071486Y-94329405D01*
X122759075Y-94200000D01*
X122352500Y-94200000D01*
X122140000Y-94412500D01*
X122140000Y-96900000D01*
X122160000Y-96900000D01*
X122160000Y-97000000D01*
X122140000Y-97000000D01*
X122140000Y-99487500D01*
X122352500Y-99700000D01*
X122759075Y-99700000D01*
X123071486Y-99570595D01*
X123281000Y-99361082D01*
X123281000Y-100638918D01*
X123071486Y-100429405D01*
X122759075Y-100300000D01*
X122352500Y-100300000D01*
X122140000Y-100512500D01*
X122140000Y-103000000D01*
X122160000Y-103000000D01*
X122160000Y-103100000D01*
X122140000Y-103100000D01*
X122140000Y-105587500D01*
X122352500Y-105800000D01*
X122759075Y-105800000D01*
X123071486Y-105670595D01*
X123281000Y-105461082D01*
X123281000Y-106638918D01*
X123071486Y-106429405D01*
X122759075Y-106300000D01*
X122352500Y-106300000D01*
X122140000Y-106512500D01*
X122140000Y-109000000D01*
X122160000Y-109000000D01*
X122160000Y-109100000D01*
X122140000Y-109100000D01*
X122140000Y-111587500D01*
X122352500Y-111800000D01*
X122759075Y-111800000D01*
X123071486Y-111670595D01*
X123281000Y-111461082D01*
X123281000Y-112638918D01*
X123071486Y-112429405D01*
X122759075Y-112300000D01*
X122352500Y-112300000D01*
X122140000Y-112512500D01*
X122140000Y-115000000D01*
X122160000Y-115000000D01*
X122160000Y-115100000D01*
X122140000Y-115100000D01*
X122140000Y-117587500D01*
X122352500Y-117800000D01*
X122759075Y-117800000D01*
X123071486Y-117670595D01*
X123281000Y-117461082D01*
X123281000Y-118638918D01*
X123071486Y-118429405D01*
X122759075Y-118300000D01*
X122352500Y-118300000D01*
X122140000Y-118512500D01*
X122140000Y-120320000D01*
X122160000Y-120320000D01*
X122160000Y-120420000D01*
X122140000Y-120420000D01*
X122140000Y-120440000D01*
X122040000Y-120440000D01*
X122040000Y-120420000D01*
X120952500Y-120420000D01*
X120740000Y-120632500D01*
X120740000Y-120740000D01*
X120632500Y-120740000D01*
X120420000Y-120952500D01*
X120420000Y-122040000D01*
X120440000Y-122040000D01*
X120440000Y-122140000D01*
X120420000Y-122140000D01*
X120420000Y-123227500D01*
X120632500Y-123440000D01*
X121827500Y-123440000D01*
X121875884Y-123391616D01*
X122071486Y-123310595D01*
X122147291Y-123234791D01*
X122352500Y-123440000D01*
X122759075Y-123440000D01*
X123071486Y-123310595D01*
X123281000Y-123101082D01*
X123281000Y-143604111D01*
X123261120Y-143574359D01*
X122088001Y-142401240D01*
X122088001Y-131479999D01*
X122039409Y-131235709D01*
X122011881Y-131097315D01*
X121795108Y-130772892D01*
X120061109Y-129038893D01*
X119736686Y-128822120D01*
X119354002Y-128746000D01*
X109057332Y-128746000D01*
X108990223Y-128641709D01*
X108706176Y-128447628D01*
X108369000Y-128379348D01*
X106774652Y-128379348D01*
X106774652Y-128246000D01*
X106746427Y-128096000D01*
X107306500Y-128096000D01*
X107519000Y-127883500D01*
X107519000Y-126796000D01*
X107619000Y-126796000D01*
X107619000Y-127883500D01*
X107831500Y-128096000D01*
X108538076Y-128096000D01*
X108850487Y-127966595D01*
X109089595Y-127727486D01*
X109219000Y-127415075D01*
X109219000Y-127008500D01*
X109006500Y-126796000D01*
X107619000Y-126796000D01*
X107519000Y-126796000D01*
X105333000Y-126796000D01*
X105333000Y-126816000D01*
X105233000Y-126816000D01*
X105233000Y-126796000D01*
X105213000Y-126796000D01*
X105213000Y-126696000D01*
X105233000Y-126696000D01*
X105233000Y-125608500D01*
X105333000Y-125608500D01*
X105333000Y-126696000D01*
X107519000Y-126696000D01*
X107519000Y-125608500D01*
X107619000Y-125608500D01*
X107619000Y-126696000D01*
X109006500Y-126696000D01*
X109219000Y-126483500D01*
X109219000Y-126076925D01*
X109089595Y-125764514D01*
X108850487Y-125525405D01*
X108538076Y-125396000D01*
X107831500Y-125396000D01*
X107619000Y-125608500D01*
X107519000Y-125608500D01*
X107306500Y-125396000D01*
X106599924Y-125396000D01*
X106338500Y-125504285D01*
X106077076Y-125396000D01*
X105545500Y-125396000D01*
X105333000Y-125608500D01*
X105233000Y-125608500D01*
X105020500Y-125396000D01*
X104488924Y-125396000D01*
X104176513Y-125525405D01*
X104103265Y-125598653D01*
X104096223Y-125587709D01*
X103812176Y-125393628D01*
X103475000Y-125325348D01*
X101925000Y-125325348D01*
X101610009Y-125384618D01*
X101553999Y-125420659D01*
X101553999Y-123440000D01*
X102787500Y-123440000D01*
X103000000Y-123227500D01*
X103000000Y-122140000D01*
X103100000Y-122140000D01*
X103100000Y-123227500D01*
X103312500Y-123440000D01*
X105119075Y-123440000D01*
X105431486Y-123310595D01*
X105670595Y-123071487D01*
X105800000Y-122759076D01*
X105800000Y-122352500D01*
X106300000Y-122352500D01*
X106300000Y-122759076D01*
X106429405Y-123071487D01*
X106668514Y-123310595D01*
X106980925Y-123440000D01*
X108787500Y-123440000D01*
X109000000Y-123227500D01*
X109000000Y-122140000D01*
X109100000Y-122140000D01*
X109100000Y-123227500D01*
X109312500Y-123440000D01*
X111119075Y-123440000D01*
X111431486Y-123310595D01*
X111670595Y-123071487D01*
X111800000Y-122759076D01*
X111800000Y-122352500D01*
X112300000Y-122352500D01*
X112300000Y-122759076D01*
X112429405Y-123071487D01*
X112668514Y-123310595D01*
X112980925Y-123440000D01*
X114787500Y-123440000D01*
X115000000Y-123227500D01*
X115000000Y-122140000D01*
X115100000Y-122140000D01*
X115100000Y-123227500D01*
X115312500Y-123440000D01*
X117119075Y-123440000D01*
X117431486Y-123310595D01*
X117670595Y-123071487D01*
X117800000Y-122759076D01*
X117800000Y-122352500D01*
X118300000Y-122352500D01*
X118300000Y-122759076D01*
X118429405Y-123071487D01*
X118668514Y-123310595D01*
X118980925Y-123440000D01*
X120107500Y-123440000D01*
X120320000Y-123227500D01*
X120320000Y-122140000D01*
X118512500Y-122140000D01*
X118300000Y-122352500D01*
X117800000Y-122352500D01*
X117587500Y-122140000D01*
X115100000Y-122140000D01*
X115000000Y-122140000D01*
X112512500Y-122140000D01*
X112300000Y-122352500D01*
X111800000Y-122352500D01*
X111587500Y-122140000D01*
X109100000Y-122140000D01*
X109000000Y-122140000D01*
X106512500Y-122140000D01*
X106300000Y-122352500D01*
X105800000Y-122352500D01*
X105587500Y-122140000D01*
X103100000Y-122140000D01*
X103000000Y-122140000D01*
X102980000Y-122140000D01*
X102980000Y-122040000D01*
X103000000Y-122040000D01*
X103000000Y-120952500D01*
X103100000Y-120952500D01*
X103100000Y-122040000D01*
X105587500Y-122040000D01*
X105800000Y-121827500D01*
X105800000Y-121420924D01*
X106300000Y-121420924D01*
X106300000Y-121827500D01*
X106512500Y-122040000D01*
X109000000Y-122040000D01*
X109000000Y-120952500D01*
X109100000Y-120952500D01*
X109100000Y-122040000D01*
X111587500Y-122040000D01*
X111800000Y-121827500D01*
X111800000Y-121420924D01*
X112300000Y-121420924D01*
X112300000Y-121827500D01*
X112512500Y-122040000D01*
X115000000Y-122040000D01*
X115000000Y-120952500D01*
X115100000Y-120952500D01*
X115100000Y-122040000D01*
X117587500Y-122040000D01*
X117800000Y-121827500D01*
X117800000Y-121420924D01*
X118300000Y-121420924D01*
X118300000Y-121827500D01*
X118512500Y-122040000D01*
X120320000Y-122040000D01*
X120320000Y-120952500D01*
X120107500Y-120740000D01*
X118980925Y-120740000D01*
X118668514Y-120869405D01*
X118429405Y-121108513D01*
X118300000Y-121420924D01*
X117800000Y-121420924D01*
X117670595Y-121108513D01*
X117431486Y-120869405D01*
X117119075Y-120740000D01*
X115312500Y-120740000D01*
X115100000Y-120952500D01*
X115000000Y-120952500D01*
X114787500Y-120740000D01*
X112980925Y-120740000D01*
X112668514Y-120869405D01*
X112429405Y-121108513D01*
X112300000Y-121420924D01*
X111800000Y-121420924D01*
X111670595Y-121108513D01*
X111431486Y-120869405D01*
X111119075Y-120740000D01*
X109312500Y-120740000D01*
X109100000Y-120952500D01*
X109000000Y-120952500D01*
X108787500Y-120740000D01*
X106980925Y-120740000D01*
X106668514Y-120869405D01*
X106429405Y-121108513D01*
X106300000Y-121420924D01*
X105800000Y-121420924D01*
X105670595Y-121108513D01*
X105431486Y-120869405D01*
X105119075Y-120740000D01*
X103312500Y-120740000D01*
X103100000Y-120952500D01*
X103000000Y-120952500D01*
X102787500Y-120740000D01*
X101553999Y-120740000D01*
X101553999Y-118980924D01*
X120740000Y-118980924D01*
X120740000Y-120107500D01*
X120952500Y-120320000D01*
X122040000Y-120320000D01*
X122040000Y-118512500D01*
X121827500Y-118300000D01*
X121420925Y-118300000D01*
X121108514Y-118429405D01*
X120869405Y-118668513D01*
X120740000Y-118980924D01*
X101553999Y-118980924D01*
X101553999Y-115312500D01*
X120740000Y-115312500D01*
X120740000Y-117119076D01*
X120869405Y-117431487D01*
X121108514Y-117670595D01*
X121420925Y-117800000D01*
X121827500Y-117800000D01*
X122040000Y-117587500D01*
X122040000Y-115100000D01*
X120952500Y-115100000D01*
X120740000Y-115312500D01*
X101553999Y-115312500D01*
X101553999Y-112980924D01*
X120740000Y-112980924D01*
X120740000Y-114787500D01*
X120952500Y-115000000D01*
X122040000Y-115000000D01*
X122040000Y-112512500D01*
X121827500Y-112300000D01*
X121420925Y-112300000D01*
X121108514Y-112429405D01*
X120869405Y-112668513D01*
X120740000Y-112980924D01*
X101553999Y-112980924D01*
X101553999Y-111515000D01*
X101591500Y-111515000D01*
X101804000Y-111302500D01*
X101804000Y-110265000D01*
X101904000Y-110265000D01*
X101904000Y-111302500D01*
X102116500Y-111515000D01*
X102873076Y-111515000D01*
X103185487Y-111385595D01*
X103424595Y-111146486D01*
X103554000Y-110834075D01*
X103554000Y-110477500D01*
X103341500Y-110265000D01*
X101904000Y-110265000D01*
X101804000Y-110265000D01*
X101784000Y-110265000D01*
X101784000Y-110165000D01*
X101804000Y-110165000D01*
X101804000Y-110145000D01*
X101904000Y-110145000D01*
X101904000Y-110165000D01*
X103341500Y-110165000D01*
X103554000Y-109952500D01*
X103554000Y-109595925D01*
X103436602Y-109312500D01*
X120740000Y-109312500D01*
X120740000Y-111119076D01*
X120869405Y-111431487D01*
X121108514Y-111670595D01*
X121420925Y-111800000D01*
X121827500Y-111800000D01*
X122040000Y-111587500D01*
X122040000Y-109100000D01*
X120952500Y-109100000D01*
X120740000Y-109312500D01*
X103436602Y-109312500D01*
X103424595Y-109283514D01*
X103185487Y-109044405D01*
X102873076Y-108915000D01*
X102418214Y-108915000D01*
X102561107Y-108772107D01*
X102654956Y-108631652D01*
X102704000Y-108631652D01*
X103018991Y-108572382D01*
X103308291Y-108386223D01*
X103502372Y-108102176D01*
X103570652Y-107765000D01*
X103570652Y-106980924D01*
X120740000Y-106980924D01*
X120740000Y-108787500D01*
X120952500Y-109000000D01*
X122040000Y-109000000D01*
X122040000Y-106512500D01*
X121827500Y-106300000D01*
X121420925Y-106300000D01*
X121108514Y-106429405D01*
X120869405Y-106668513D01*
X120740000Y-106980924D01*
X103570652Y-106980924D01*
X103570652Y-106865000D01*
X103511382Y-106550009D01*
X103325223Y-106260709D01*
X103116573Y-106118144D01*
X103120652Y-106098000D01*
X103120652Y-105683963D01*
X105158941Y-105659983D01*
X105246864Y-105642903D01*
X105330318Y-105589202D01*
X105386304Y-105507264D01*
X105406000Y-105410000D01*
X105406000Y-103312500D01*
X120740000Y-103312500D01*
X120740000Y-105119076D01*
X120869405Y-105431487D01*
X121108514Y-105670595D01*
X121420925Y-105800000D01*
X121827500Y-105800000D01*
X122040000Y-105587500D01*
X122040000Y-103100000D01*
X120952500Y-103100000D01*
X120740000Y-103312500D01*
X105406000Y-103312500D01*
X105406000Y-100980924D01*
X120740000Y-100980924D01*
X120740000Y-102787500D01*
X120952500Y-103000000D01*
X122040000Y-103000000D01*
X122040000Y-100512500D01*
X121827500Y-100300000D01*
X121420925Y-100300000D01*
X121108514Y-100429405D01*
X120869405Y-100668513D01*
X120740000Y-100980924D01*
X105406000Y-100980924D01*
X105406000Y-97212500D01*
X120740000Y-97212500D01*
X120740000Y-99019076D01*
X120869405Y-99331487D01*
X121108514Y-99570595D01*
X121420925Y-99700000D01*
X121827500Y-99700000D01*
X122040000Y-99487500D01*
X122040000Y-97000000D01*
X120952500Y-97000000D01*
X120740000Y-97212500D01*
X105406000Y-97212500D01*
X105406000Y-94880924D01*
X120740000Y-94880924D01*
X120740000Y-96687500D01*
X120952500Y-96900000D01*
X122040000Y-96900000D01*
X122040000Y-94412500D01*
X121827500Y-94200000D01*
X121420925Y-94200000D01*
X121108514Y-94329405D01*
X120869405Y-94568513D01*
X120740000Y-94880924D01*
X105406000Y-94880924D01*
X105406000Y-94488000D01*
X105388903Y-94397136D01*
X105335202Y-94313682D01*
X105253264Y-94257696D01*
X105156000Y-94238000D01*
X95379433Y-94238000D01*
X94492888Y-94220664D01*
X94397136Y-94237713D01*
X94313682Y-94291414D01*
X94257696Y-94373352D01*
X94238000Y-94470616D01*
X94238000Y-105519064D01*
X93892892Y-105864172D01*
X93676119Y-106188595D01*
X93676119Y-106188596D01*
X93599999Y-106571279D01*
X93599999Y-121179500D01*
X93570595Y-121108513D01*
X93331486Y-120869405D01*
X93019075Y-120740000D01*
X91212500Y-120740000D01*
X91000000Y-120952500D01*
X91000000Y-122040000D01*
X91020000Y-122040000D01*
X91020000Y-122140000D01*
X91000000Y-122140000D01*
X91000000Y-122160000D01*
X90900000Y-122160000D01*
X90900000Y-122140000D01*
X88412500Y-122140000D01*
X88200000Y-122352500D01*
X88200000Y-122444000D01*
X87700000Y-122444000D01*
X87700000Y-122352500D01*
X87487500Y-122140000D01*
X85000000Y-122140000D01*
X85000000Y-122160000D01*
X84900000Y-122160000D01*
X84900000Y-122140000D01*
X82412500Y-122140000D01*
X82200000Y-122352500D01*
X82200000Y-122444000D01*
X81700000Y-122444000D01*
X81700000Y-122352500D01*
X81487500Y-122140000D01*
X79680000Y-122140000D01*
X79680000Y-123227500D01*
X79881143Y-123428643D01*
X78102892Y-125206894D01*
X77886119Y-125531317D01*
X77855885Y-125683315D01*
X77809999Y-125914001D01*
X77809999Y-138545999D01*
X77886119Y-138928683D01*
X78102892Y-139253106D01*
X87233348Y-148383562D01*
X87233348Y-148836000D01*
X87292618Y-149150991D01*
X87478777Y-149440291D01*
X87762824Y-149634372D01*
X88100000Y-149702652D01*
X89700000Y-149702652D01*
X90014991Y-149643382D01*
X90304291Y-149457223D01*
X90387119Y-149336000D01*
X91025786Y-149336000D01*
X94288891Y-152599104D01*
X94288893Y-152599107D01*
X95266000Y-153576214D01*
X95266000Y-167440348D01*
X93942000Y-167440348D01*
X93627009Y-167499618D01*
X93337709Y-167685777D01*
X93202000Y-167884394D01*
X93202000Y-164084000D01*
X93125880Y-163701317D01*
X92909107Y-163376893D01*
X91482214Y-161950000D01*
X91487500Y-161950000D01*
X91700000Y-161737500D01*
X91700000Y-160550000D01*
X91800000Y-160550000D01*
X91800000Y-161737500D01*
X92012500Y-161950000D01*
X93169076Y-161950000D01*
X93481487Y-161820595D01*
X93720595Y-161581486D01*
X93850000Y-161269075D01*
X93850000Y-160762500D01*
X93637500Y-160550000D01*
X91800000Y-160550000D01*
X91700000Y-160550000D01*
X91680000Y-160550000D01*
X91680000Y-160450000D01*
X91700000Y-160450000D01*
X91700000Y-160430000D01*
X91800000Y-160430000D01*
X91800000Y-160450000D01*
X93637500Y-160450000D01*
X93850000Y-160237500D01*
X93850000Y-159730925D01*
X93720595Y-159418514D01*
X93555014Y-159252932D01*
X93604291Y-159221223D01*
X93798372Y-158937176D01*
X93866652Y-158600000D01*
X93866652Y-157400000D01*
X93807382Y-157085009D01*
X93621223Y-156795709D01*
X93556869Y-156751738D01*
X93604291Y-156721223D01*
X93798372Y-156437176D01*
X93866652Y-156100000D01*
X93866652Y-154900000D01*
X93807382Y-154585009D01*
X93621223Y-154295709D01*
X93337176Y-154101628D01*
X93000000Y-154033348D01*
X90500000Y-154033348D01*
X90185009Y-154092618D01*
X89895709Y-154278777D01*
X89701628Y-154562824D01*
X89643890Y-154847943D01*
X89607107Y-154792893D01*
X89282683Y-154576120D01*
X88900000Y-154500000D01*
X88252680Y-154500000D01*
X88121223Y-154295709D01*
X87837176Y-154101628D01*
X87500000Y-154033348D01*
X85000000Y-154033348D01*
X84685009Y-154092618D01*
X84395709Y-154278777D01*
X84201628Y-154562824D01*
X84133348Y-154900000D01*
X84133348Y-156019134D01*
X83296000Y-155181786D01*
X83296000Y-153322214D01*
X84282214Y-152336000D01*
X87411668Y-152336000D01*
X87478777Y-152440291D01*
X87762824Y-152634372D01*
X88100000Y-152702652D01*
X89700000Y-152702652D01*
X90014991Y-152643382D01*
X90304291Y-152457223D01*
X90498372Y-152173176D01*
X90566652Y-151836000D01*
X90566652Y-150836000D01*
X90507382Y-150521009D01*
X90321223Y-150231709D01*
X90037176Y-150037628D01*
X89700000Y-149969348D01*
X88100000Y-149969348D01*
X87785009Y-150028618D01*
X87495709Y-150214777D01*
X87412881Y-150336000D01*
X83868005Y-150336000D01*
X83868000Y-150335999D01*
X83485316Y-150412120D01*
X83160893Y-150628893D01*
X81588893Y-152200893D01*
X81372120Y-152525316D01*
X81316009Y-152807405D01*
X81296000Y-152908000D01*
X81296000Y-155596000D01*
X81372120Y-155978684D01*
X81588893Y-156303107D01*
X83992891Y-158707104D01*
X83992893Y-158707107D01*
X84176598Y-158829855D01*
X84192618Y-158914991D01*
X84378777Y-159204291D01*
X84447007Y-159250911D01*
X84279405Y-159418514D01*
X84150000Y-159730925D01*
X84150000Y-160237500D01*
X84362500Y-160450000D01*
X86200000Y-160450000D01*
X86200000Y-160430000D01*
X86300000Y-160430000D01*
X86300000Y-160450000D01*
X86320000Y-160450000D01*
X86320000Y-160550000D01*
X86300000Y-160550000D01*
X86300000Y-161737500D01*
X86512500Y-161950000D01*
X87669076Y-161950000D01*
X87981487Y-161820595D01*
X88220595Y-161581486D01*
X88239538Y-161535752D01*
X91202000Y-164498214D01*
X91202000Y-175577500D01*
X91278120Y-175960184D01*
X91494893Y-176284607D01*
X100651500Y-185441214D01*
X100651500Y-193548000D01*
X100668597Y-193638864D01*
X100722298Y-193722318D01*
X100804236Y-193778304D01*
X100901500Y-193798000D01*
X118554500Y-193798000D01*
X118645364Y-193780903D01*
X118728818Y-193727202D01*
X118784804Y-193645264D01*
X118804500Y-193548000D01*
X118804500Y-178562000D01*
X118787403Y-178471136D01*
X118733702Y-178387682D01*
X118651764Y-178331696D01*
X118554500Y-178312000D01*
X100901500Y-178312000D01*
X100810636Y-178329097D01*
X100727182Y-178382798D01*
X100671196Y-178464736D01*
X100651500Y-178562000D01*
X100651500Y-182612786D01*
X93202000Y-175163286D01*
X93202000Y-173412500D01*
X96100000Y-173412500D01*
X96100000Y-174319075D01*
X96229405Y-174631486D01*
X96468513Y-174870595D01*
X96780924Y-175000000D01*
X97437500Y-175000000D01*
X97650000Y-174787500D01*
X97650000Y-173200000D01*
X96312500Y-173200000D01*
X96100000Y-173412500D01*
X93202000Y-173412500D01*
X93202000Y-172741638D01*
X93221405Y-172788486D01*
X93460513Y-173027595D01*
X93772924Y-173157000D01*
X94479500Y-173157000D01*
X94692000Y-172944500D01*
X94692000Y-171857000D01*
X94672000Y-171857000D01*
X94672000Y-171757000D01*
X94692000Y-171757000D01*
X94692000Y-170669500D01*
X94792000Y-170669500D01*
X94792000Y-171757000D01*
X94812000Y-171757000D01*
X94812000Y-171857000D01*
X94792000Y-171857000D01*
X94792000Y-172944500D01*
X95004500Y-173157000D01*
X95711076Y-173157000D01*
X96023487Y-173027595D01*
X96131791Y-172919291D01*
X96312500Y-173100000D01*
X97650000Y-173100000D01*
X97650000Y-171512500D01*
X97437500Y-171300000D01*
X96780924Y-171300000D01*
X96468513Y-171429405D01*
X96392000Y-171505918D01*
X96392000Y-171137925D01*
X96262595Y-170825514D01*
X96023487Y-170586405D01*
X95711076Y-170457000D01*
X95004500Y-170457000D01*
X94792000Y-170669500D01*
X94692000Y-170669500D01*
X94479500Y-170457000D01*
X93772924Y-170457000D01*
X93460513Y-170586405D01*
X93221405Y-170825514D01*
X93202000Y-170872362D01*
X93202000Y-169726706D01*
X93320777Y-169911291D01*
X93604824Y-170105372D01*
X93942000Y-170173652D01*
X95542000Y-170173652D01*
X95856991Y-170114382D01*
X96146291Y-169928223D01*
X96229119Y-169807000D01*
X101300000Y-169807000D01*
X101300000Y-171330389D01*
X101235009Y-171342618D01*
X101152085Y-171395978D01*
X101087176Y-171351628D01*
X100750000Y-171283348D01*
X99250000Y-171283348D01*
X98935009Y-171342618D01*
X98851577Y-171396305D01*
X98619076Y-171300000D01*
X97962500Y-171300000D01*
X97750000Y-171512500D01*
X97750000Y-173100000D01*
X97770000Y-173100000D01*
X97770000Y-173200000D01*
X97750000Y-173200000D01*
X97750000Y-174787500D01*
X97962500Y-175000000D01*
X98619076Y-175000000D01*
X98848999Y-174904763D01*
X98912824Y-174948372D01*
X99250000Y-175016652D01*
X100750000Y-175016652D01*
X101064991Y-174957382D01*
X101147915Y-174904022D01*
X101212824Y-174948372D01*
X101550000Y-175016652D01*
X103050000Y-175016652D01*
X103364991Y-174957382D01*
X103654291Y-174771223D01*
X103848372Y-174487176D01*
X103916652Y-174150000D01*
X103916652Y-172150000D01*
X103857382Y-171835009D01*
X103671223Y-171545709D01*
X103387176Y-171351628D01*
X103300000Y-171333974D01*
X103300000Y-171061500D01*
X103808000Y-171061500D01*
X103808000Y-171468075D01*
X103937405Y-171780486D01*
X104176513Y-172019595D01*
X104488924Y-172149000D01*
X105020500Y-172149000D01*
X105233000Y-171936500D01*
X105233000Y-170849000D01*
X105333000Y-170849000D01*
X105333000Y-171936500D01*
X105545500Y-172149000D01*
X106077076Y-172149000D01*
X106389487Y-172019595D01*
X106628595Y-171780486D01*
X106758000Y-171468075D01*
X106758000Y-171061500D01*
X106545500Y-170849000D01*
X105333000Y-170849000D01*
X105233000Y-170849000D01*
X104020500Y-170849000D01*
X103808000Y-171061500D01*
X103300000Y-171061500D01*
X103300000Y-169807000D01*
X103947919Y-169807000D01*
X103937405Y-169817514D01*
X103808000Y-170129925D01*
X103808000Y-170536500D01*
X104020500Y-170749000D01*
X105233000Y-170749000D01*
X105233000Y-170729000D01*
X105333000Y-170729000D01*
X105333000Y-170749000D01*
X106545500Y-170749000D01*
X106758000Y-170536500D01*
X106758000Y-170129925D01*
X106628595Y-169817514D01*
X106601192Y-169790111D01*
X106706372Y-169636176D01*
X106774652Y-169299000D01*
X106774652Y-168299000D01*
X106715382Y-167984009D01*
X106629150Y-167850000D01*
X110060002Y-167850000D01*
X110442686Y-167773880D01*
X110767109Y-167557107D01*
X114002203Y-164322012D01*
X114436533Y-164322012D01*
X114819217Y-164245892D01*
X115143640Y-164029119D01*
X121795108Y-157377651D01*
X121851741Y-157292893D01*
X122011881Y-157053227D01*
X122088001Y-156670544D01*
X122088001Y-149580300D01*
X123261120Y-148407181D01*
X123281000Y-148377429D01*
X123281000Y-191640852D01*
X119631852Y-195290000D01*
X80520148Y-195290000D01*
X76998000Y-191767852D01*
X76998000Y-187968503D01*
X83937208Y-187968503D01*
X84138697Y-188408911D01*
X85176365Y-188865801D01*
X86309890Y-188890812D01*
X87366701Y-188480140D01*
X87473303Y-188408911D01*
X87674792Y-187968503D01*
X91557208Y-187968503D01*
X91758697Y-188408911D01*
X92796365Y-188865801D01*
X93929890Y-188890812D01*
X94986701Y-188480140D01*
X95093303Y-188408911D01*
X95294792Y-187968503D01*
X93426000Y-186099711D01*
X91557208Y-187968503D01*
X87674792Y-187968503D01*
X85806000Y-186099711D01*
X83937208Y-187968503D01*
X76998000Y-187968503D01*
X76998000Y-186532890D01*
X82944188Y-186532890D01*
X83354860Y-187589701D01*
X83426089Y-187696303D01*
X83866497Y-187897792D01*
X85735289Y-186029000D01*
X85876711Y-186029000D01*
X87745503Y-187897792D01*
X88185911Y-187696303D01*
X88642801Y-186658635D01*
X88645575Y-186532890D01*
X90564188Y-186532890D01*
X90974860Y-187589701D01*
X91046089Y-187696303D01*
X91486497Y-187897792D01*
X93355289Y-186029000D01*
X93496711Y-186029000D01*
X95365503Y-187897792D01*
X95805911Y-187696303D01*
X96262801Y-186658635D01*
X96287812Y-185525110D01*
X95877140Y-184468299D01*
X95805911Y-184361697D01*
X95365503Y-184160208D01*
X93496711Y-186029000D01*
X93355289Y-186029000D01*
X91486497Y-184160208D01*
X91046089Y-184361697D01*
X90589199Y-185399365D01*
X90564188Y-186532890D01*
X88645575Y-186532890D01*
X88667812Y-185525110D01*
X88257140Y-184468299D01*
X88185911Y-184361697D01*
X87745503Y-184160208D01*
X85876711Y-186029000D01*
X85735289Y-186029000D01*
X83866497Y-184160208D01*
X83426089Y-184361697D01*
X82969199Y-185399365D01*
X82944188Y-186532890D01*
X76998000Y-186532890D01*
X76998000Y-184089497D01*
X83937208Y-184089497D01*
X85806000Y-185958289D01*
X87674792Y-184089497D01*
X91557208Y-184089497D01*
X93426000Y-185958289D01*
X95294792Y-184089497D01*
X95093303Y-183649089D01*
X94055635Y-183192199D01*
X92922110Y-183167188D01*
X91865299Y-183577860D01*
X91758697Y-183649089D01*
X91557208Y-184089497D01*
X87674792Y-184089497D01*
X87473303Y-183649089D01*
X86435635Y-183192199D01*
X85302110Y-183167188D01*
X84245299Y-183577860D01*
X84138697Y-183649089D01*
X83937208Y-184089497D01*
X76998000Y-184089497D01*
X76998000Y-160762500D01*
X84150000Y-160762500D01*
X84150000Y-161269075D01*
X84279405Y-161581486D01*
X84518513Y-161820595D01*
X84830924Y-161950000D01*
X85987500Y-161950000D01*
X86200000Y-161737500D01*
X86200000Y-160550000D01*
X84362500Y-160550000D01*
X84150000Y-160762500D01*
X76998000Y-160762500D01*
X76998000Y-123339377D01*
X77240925Y-123440000D01*
X77647500Y-123440000D01*
X77852709Y-123234791D01*
X77928514Y-123310595D01*
X78124116Y-123391616D01*
X78172500Y-123440000D01*
X79367500Y-123440000D01*
X79580000Y-123227500D01*
X79580000Y-122140000D01*
X79560000Y-122140000D01*
X79560000Y-122040000D01*
X79580000Y-122040000D01*
X79580000Y-120952500D01*
X79680000Y-120952500D01*
X79680000Y-122040000D01*
X81487500Y-122040000D01*
X81700000Y-121827500D01*
X81700000Y-121420924D01*
X82200000Y-121420924D01*
X82200000Y-121827500D01*
X82412500Y-122040000D01*
X84900000Y-122040000D01*
X84900000Y-120952500D01*
X85000000Y-120952500D01*
X85000000Y-122040000D01*
X87487500Y-122040000D01*
X87700000Y-121827500D01*
X87700000Y-121420924D01*
X88200000Y-121420924D01*
X88200000Y-121827500D01*
X88412500Y-122040000D01*
X90900000Y-122040000D01*
X90900000Y-120952500D01*
X90687500Y-120740000D01*
X88880925Y-120740000D01*
X88568514Y-120869405D01*
X88329405Y-121108513D01*
X88200000Y-121420924D01*
X87700000Y-121420924D01*
X87570595Y-121108513D01*
X87331486Y-120869405D01*
X87019075Y-120740000D01*
X85212500Y-120740000D01*
X85000000Y-120952500D01*
X84900000Y-120952500D01*
X84687500Y-120740000D01*
X82880925Y-120740000D01*
X82568514Y-120869405D01*
X82329405Y-121108513D01*
X82200000Y-121420924D01*
X81700000Y-121420924D01*
X81570595Y-121108513D01*
X81331486Y-120869405D01*
X81019075Y-120740000D01*
X79892500Y-120740000D01*
X79680000Y-120952500D01*
X79580000Y-120952500D01*
X79367500Y-120740000D01*
X79260000Y-120740000D01*
X79260000Y-120632500D01*
X79047500Y-120420000D01*
X77960000Y-120420000D01*
X77960000Y-120440000D01*
X77860000Y-120440000D01*
X77860000Y-120420000D01*
X77840000Y-120420000D01*
X77840000Y-120320000D01*
X77860000Y-120320000D01*
X77860000Y-118512500D01*
X77960000Y-118512500D01*
X77960000Y-120320000D01*
X79047500Y-120320000D01*
X79260000Y-120107500D01*
X79260000Y-118980924D01*
X79130595Y-118668513D01*
X78891486Y-118429405D01*
X78579075Y-118300000D01*
X78172500Y-118300000D01*
X77960000Y-118512500D01*
X77860000Y-118512500D01*
X77647500Y-118300000D01*
X77240925Y-118300000D01*
X76998000Y-118400623D01*
X76998000Y-117699377D01*
X77240925Y-117800000D01*
X77647500Y-117800000D01*
X77860000Y-117587500D01*
X77860000Y-115100000D01*
X77960000Y-115100000D01*
X77960000Y-117587500D01*
X78172500Y-117800000D01*
X78579075Y-117800000D01*
X78891486Y-117670595D01*
X79130595Y-117431487D01*
X79260000Y-117119076D01*
X79260000Y-115312500D01*
X79047500Y-115100000D01*
X77960000Y-115100000D01*
X77860000Y-115100000D01*
X77840000Y-115100000D01*
X77840000Y-115000000D01*
X77860000Y-115000000D01*
X77860000Y-112512500D01*
X77960000Y-112512500D01*
X77960000Y-115000000D01*
X79047500Y-115000000D01*
X79260000Y-114787500D01*
X79260000Y-112980924D01*
X79130595Y-112668513D01*
X78891486Y-112429405D01*
X78579075Y-112300000D01*
X78172500Y-112300000D01*
X77960000Y-112512500D01*
X77860000Y-112512500D01*
X77647500Y-112300000D01*
X77240925Y-112300000D01*
X76998000Y-112400623D01*
X76998000Y-111699377D01*
X77240925Y-111800000D01*
X77647500Y-111800000D01*
X77860000Y-111587500D01*
X77860000Y-109100000D01*
X77960000Y-109100000D01*
X77960000Y-111587500D01*
X78172500Y-111800000D01*
X78579075Y-111800000D01*
X78891486Y-111670595D01*
X79130595Y-111431487D01*
X79260000Y-111119076D01*
X79260000Y-109312500D01*
X79047500Y-109100000D01*
X77960000Y-109100000D01*
X77860000Y-109100000D01*
X77840000Y-109100000D01*
X77840000Y-109000000D01*
X77860000Y-109000000D01*
X77860000Y-106512500D01*
X77960000Y-106512500D01*
X77960000Y-109000000D01*
X79047500Y-109000000D01*
X79260000Y-108787500D01*
X79260000Y-106980924D01*
X79130595Y-106668513D01*
X78891486Y-106429405D01*
X78579075Y-106300000D01*
X78172500Y-106300000D01*
X77960000Y-106512500D01*
X77860000Y-106512500D01*
X77647500Y-106300000D01*
X77240925Y-106300000D01*
X76998000Y-106400623D01*
X76998000Y-105699377D01*
X77240925Y-105800000D01*
X77647500Y-105800000D01*
X77860000Y-105587500D01*
X77860000Y-103100000D01*
X77960000Y-103100000D01*
X77960000Y-105587500D01*
X78172500Y-105800000D01*
X78579075Y-105800000D01*
X78891486Y-105670595D01*
X79130595Y-105431487D01*
X79260000Y-105119076D01*
X79260000Y-103312500D01*
X79047500Y-103100000D01*
X77960000Y-103100000D01*
X77860000Y-103100000D01*
X77840000Y-103100000D01*
X77840000Y-103000000D01*
X77860000Y-103000000D01*
X77860000Y-100512500D01*
X77960000Y-100512500D01*
X77960000Y-103000000D01*
X79047500Y-103000000D01*
X79260000Y-102787500D01*
X79260000Y-100980924D01*
X79130595Y-100668513D01*
X78891486Y-100429405D01*
X78579075Y-100300000D01*
X78172500Y-100300000D01*
X77960000Y-100512500D01*
X77860000Y-100512500D01*
X77647500Y-100300000D01*
X77240925Y-100300000D01*
X76998000Y-100400623D01*
X76998000Y-99599377D01*
X77240925Y-99700000D01*
X77647500Y-99700000D01*
X77860000Y-99487500D01*
X77860000Y-97000000D01*
X77960000Y-97000000D01*
X77960000Y-99487500D01*
X78172500Y-99700000D01*
X78579075Y-99700000D01*
X78891486Y-99570595D01*
X79130595Y-99331487D01*
X79260000Y-99019076D01*
X79260000Y-97212500D01*
X79047500Y-97000000D01*
X77960000Y-97000000D01*
X77860000Y-97000000D01*
X77840000Y-97000000D01*
X77840000Y-96900000D01*
X77860000Y-96900000D01*
X77860000Y-94412500D01*
X77960000Y-94412500D01*
X77960000Y-96900000D01*
X79047500Y-96900000D01*
X79260000Y-96687500D01*
X79260000Y-94880924D01*
X79130595Y-94568513D01*
X78891486Y-94329405D01*
X78579075Y-94200000D01*
X78172500Y-94200000D01*
X77960000Y-94412500D01*
X77860000Y-94412500D01*
X77647500Y-94200000D01*
X77240925Y-94200000D01*
X76998000Y-94300623D01*
X76998000Y-93599377D01*
X77240925Y-93700000D01*
X77647500Y-93700000D01*
X77860000Y-93487500D01*
X77860000Y-91000000D01*
X77960000Y-91000000D01*
X77960000Y-93487500D01*
X78172500Y-93700000D01*
X78579075Y-93700000D01*
X78891486Y-93570595D01*
X79130595Y-93331487D01*
X79260000Y-93019076D01*
X79260000Y-91212500D01*
X120740000Y-91212500D01*
X120740000Y-93019076D01*
X120869405Y-93331487D01*
X121108514Y-93570595D01*
X121420925Y-93700000D01*
X121827500Y-93700000D01*
X122040000Y-93487500D01*
X122040000Y-91000000D01*
X120952500Y-91000000D01*
X120740000Y-91212500D01*
X79260000Y-91212500D01*
X79047500Y-91000000D01*
X77960000Y-91000000D01*
X77860000Y-91000000D01*
X77840000Y-91000000D01*
X77840000Y-90900000D01*
X77860000Y-90900000D01*
X77860000Y-88412500D01*
X77960000Y-88412500D01*
X77960000Y-90900000D01*
X79047500Y-90900000D01*
X79260000Y-90687500D01*
X79260000Y-88880924D01*
X120740000Y-88880924D01*
X120740000Y-90687500D01*
X120952500Y-90900000D01*
X122040000Y-90900000D01*
X122040000Y-88412500D01*
X121827500Y-88200000D01*
X121420925Y-88200000D01*
X121108514Y-88329405D01*
X120869405Y-88568513D01*
X120740000Y-88880924D01*
X79260000Y-88880924D01*
X79130595Y-88568513D01*
X78891486Y-88329405D01*
X78579075Y-88200000D01*
X78172500Y-88200000D01*
X77960000Y-88412500D01*
X77860000Y-88412500D01*
X77647500Y-88200000D01*
X77240925Y-88200000D01*
X76998000Y-88300623D01*
X76998000Y-87599377D01*
X77240925Y-87700000D01*
X77647500Y-87700000D01*
X77860000Y-87487500D01*
X77860000Y-85000000D01*
X77960000Y-85000000D01*
X77960000Y-87487500D01*
X78172500Y-87700000D01*
X78579075Y-87700000D01*
X78891486Y-87570595D01*
X79130595Y-87331487D01*
X79260000Y-87019076D01*
X79260000Y-85212500D01*
X120740000Y-85212500D01*
X120740000Y-87019076D01*
X120869405Y-87331487D01*
X121108514Y-87570595D01*
X121420925Y-87700000D01*
X121827500Y-87700000D01*
X122040000Y-87487500D01*
X122040000Y-85000000D01*
X120952500Y-85000000D01*
X120740000Y-85212500D01*
X79260000Y-85212500D01*
X79047500Y-85000000D01*
X77960000Y-85000000D01*
X77860000Y-85000000D01*
X77840000Y-85000000D01*
X77840000Y-84900000D01*
X77860000Y-84900000D01*
X77860000Y-82412500D01*
X77960000Y-82412500D01*
X77960000Y-84900000D01*
X79047500Y-84900000D01*
X79260000Y-84687500D01*
X79260000Y-82880924D01*
X120740000Y-82880924D01*
X120740000Y-84687500D01*
X120952500Y-84900000D01*
X122040000Y-84900000D01*
X122040000Y-82412500D01*
X121827500Y-82200000D01*
X121420925Y-82200000D01*
X121108514Y-82329405D01*
X120869405Y-82568513D01*
X120740000Y-82880924D01*
X79260000Y-82880924D01*
X79130595Y-82568513D01*
X78891486Y-82329405D01*
X78579075Y-82200000D01*
X78172500Y-82200000D01*
X77960000Y-82412500D01*
X77860000Y-82412500D01*
X77647500Y-82200000D01*
X77240925Y-82200000D01*
X76998000Y-82300623D01*
X76998000Y-81599377D01*
X77240925Y-81700000D01*
X77647500Y-81700000D01*
X77860000Y-81487500D01*
X77860000Y-79680000D01*
X77960000Y-79680000D01*
X77960000Y-81487500D01*
X78172500Y-81700000D01*
X78579075Y-81700000D01*
X78891486Y-81570595D01*
X79130595Y-81331487D01*
X79260000Y-81019076D01*
X79260000Y-79892500D01*
X120740000Y-79892500D01*
X120740000Y-81019076D01*
X120869405Y-81331487D01*
X121108514Y-81570595D01*
X121420925Y-81700000D01*
X121827500Y-81700000D01*
X122040000Y-81487500D01*
X122040000Y-79680000D01*
X120952500Y-79680000D01*
X120740000Y-79892500D01*
X79260000Y-79892500D01*
X79047500Y-79680000D01*
X77960000Y-79680000D01*
X77860000Y-79680000D01*
X77840000Y-79680000D01*
X77840000Y-79580000D01*
X77860000Y-79580000D01*
X77860000Y-79560000D01*
X77960000Y-79560000D01*
X77960000Y-79580000D01*
X79047500Y-79580000D01*
X79260000Y-79367500D01*
X79260000Y-79260000D01*
X79367500Y-79260000D01*
X79580000Y-79047500D01*
X79580000Y-77960000D01*
X79680000Y-77960000D01*
X79680000Y-79047500D01*
X79892500Y-79260000D01*
X81019075Y-79260000D01*
X81331486Y-79130595D01*
X81570595Y-78891487D01*
X81700000Y-78579076D01*
X81700000Y-78172500D01*
X82200000Y-78172500D01*
X82200000Y-78579076D01*
X82329405Y-78891487D01*
X82568514Y-79130595D01*
X82880925Y-79260000D01*
X84687500Y-79260000D01*
X84900000Y-79047500D01*
X84900000Y-77960000D01*
X85000000Y-77960000D01*
X85000000Y-79047500D01*
X85212500Y-79260000D01*
X87019075Y-79260000D01*
X87331486Y-79130595D01*
X87570595Y-78891487D01*
X87700000Y-78579076D01*
X87700000Y-78172500D01*
X88200000Y-78172500D01*
X88200000Y-78579076D01*
X88329405Y-78891487D01*
X88568514Y-79130595D01*
X88880925Y-79260000D01*
X90687500Y-79260000D01*
X90900000Y-79047500D01*
X90900000Y-77960000D01*
X91000000Y-77960000D01*
X91000000Y-79047500D01*
X91212500Y-79260000D01*
X93019075Y-79260000D01*
X93331486Y-79130595D01*
X93570595Y-78891487D01*
X93700000Y-78579076D01*
X93700000Y-78172500D01*
X94200000Y-78172500D01*
X94200000Y-78579076D01*
X94329405Y-78891487D01*
X94568514Y-79130595D01*
X94880925Y-79260000D01*
X96687500Y-79260000D01*
X96900000Y-79047500D01*
X96900000Y-77960000D01*
X97000000Y-77960000D01*
X97000000Y-79047500D01*
X97212500Y-79260000D01*
X99019075Y-79260000D01*
X99331486Y-79130595D01*
X99570595Y-78891487D01*
X99700000Y-78579076D01*
X99700000Y-78172500D01*
X100300000Y-78172500D01*
X100300000Y-78579076D01*
X100429405Y-78891487D01*
X100668514Y-79130595D01*
X100980925Y-79260000D01*
X102787500Y-79260000D01*
X103000000Y-79047500D01*
X103000000Y-77960000D01*
X103100000Y-77960000D01*
X103100000Y-79047500D01*
X103312500Y-79260000D01*
X105119075Y-79260000D01*
X105431486Y-79130595D01*
X105670595Y-78891487D01*
X105800000Y-78579076D01*
X105800000Y-78172500D01*
X106300000Y-78172500D01*
X106300000Y-78579076D01*
X106429405Y-78891487D01*
X106668514Y-79130595D01*
X106980925Y-79260000D01*
X108787500Y-79260000D01*
X109000000Y-79047500D01*
X109000000Y-77960000D01*
X109100000Y-77960000D01*
X109100000Y-79047500D01*
X109312500Y-79260000D01*
X111119075Y-79260000D01*
X111431486Y-79130595D01*
X111670595Y-78891487D01*
X111800000Y-78579076D01*
X111800000Y-78172500D01*
X112300000Y-78172500D01*
X112300000Y-78579076D01*
X112429405Y-78891487D01*
X112668514Y-79130595D01*
X112980925Y-79260000D01*
X114787500Y-79260000D01*
X115000000Y-79047500D01*
X115000000Y-77960000D01*
X115100000Y-77960000D01*
X115100000Y-79047500D01*
X115312500Y-79260000D01*
X117119075Y-79260000D01*
X117431486Y-79130595D01*
X117670595Y-78891487D01*
X117800000Y-78579076D01*
X117800000Y-78172500D01*
X118300000Y-78172500D01*
X118300000Y-78579076D01*
X118429405Y-78891487D01*
X118668514Y-79130595D01*
X118980925Y-79260000D01*
X120107500Y-79260000D01*
X120320000Y-79047500D01*
X120320000Y-77960000D01*
X118512500Y-77960000D01*
X118300000Y-78172500D01*
X117800000Y-78172500D01*
X117587500Y-77960000D01*
X115100000Y-77960000D01*
X115000000Y-77960000D01*
X112512500Y-77960000D01*
X112300000Y-78172500D01*
X111800000Y-78172500D01*
X111587500Y-77960000D01*
X109100000Y-77960000D01*
X109000000Y-77960000D01*
X106512500Y-77960000D01*
X106300000Y-78172500D01*
X105800000Y-78172500D01*
X105587500Y-77960000D01*
X103100000Y-77960000D01*
X103000000Y-77960000D01*
X100512500Y-77960000D01*
X100300000Y-78172500D01*
X99700000Y-78172500D01*
X99487500Y-77960000D01*
X97000000Y-77960000D01*
X96900000Y-77960000D01*
X94412500Y-77960000D01*
X94200000Y-78172500D01*
X93700000Y-78172500D01*
X93487500Y-77960000D01*
X91000000Y-77960000D01*
X90900000Y-77960000D01*
X88412500Y-77960000D01*
X88200000Y-78172500D01*
X87700000Y-78172500D01*
X87487500Y-77960000D01*
X85000000Y-77960000D01*
X84900000Y-77960000D01*
X82412500Y-77960000D01*
X82200000Y-78172500D01*
X81700000Y-78172500D01*
X81487500Y-77960000D01*
X79680000Y-77960000D01*
X79580000Y-77960000D01*
X79560000Y-77960000D01*
X79560000Y-77860000D01*
X79580000Y-77860000D01*
X79580000Y-77840000D01*
X79680000Y-77840000D01*
X79680000Y-77860000D01*
X81487500Y-77860000D01*
X81700000Y-77647500D01*
X81700000Y-77240924D01*
X81570595Y-76928513D01*
X81513082Y-76871000D01*
X82386918Y-76871000D01*
X82329405Y-76928513D01*
G36*
X109793000Y-148790652D02*
X111068000Y-148790652D01*
X111068000Y-148824000D01*
X111280500Y-149036500D01*
X112218000Y-149036500D01*
X112218000Y-149016500D01*
X112318000Y-149016500D01*
X112318000Y-149036500D01*
X112321348Y-149036500D01*
X112321348Y-149136500D01*
X112318000Y-149136500D01*
X112318000Y-150686500D01*
X112505439Y-150873939D01*
X112309467Y-151069569D01*
X112088252Y-151602312D01*
X112087749Y-152179157D01*
X112308033Y-152712286D01*
X112715569Y-153120533D01*
X113248312Y-153341748D01*
X113825157Y-153342251D01*
X114358286Y-153121967D01*
X114766533Y-152714431D01*
X114987748Y-152181688D01*
X114987873Y-152038087D01*
X115548893Y-152599107D01*
X115721837Y-152714665D01*
X115748618Y-152856991D01*
X115856803Y-153025115D01*
X115835405Y-153046513D01*
X115706000Y-153358924D01*
X115706000Y-153915500D01*
X115918500Y-154128000D01*
X116856000Y-154128000D01*
X116856000Y-154108000D01*
X116956000Y-154108000D01*
X116956000Y-154128000D01*
X116976000Y-154128000D01*
X116976000Y-154228000D01*
X116956000Y-154228000D01*
X116956000Y-155465500D01*
X117168500Y-155678000D01*
X117425075Y-155678000D01*
X117737486Y-155548595D01*
X117846073Y-155440009D01*
X118118824Y-155626372D01*
X118456000Y-155694652D01*
X119156000Y-155694652D01*
X119273001Y-155672637D01*
X119273001Y-156222787D01*
X115823757Y-159672031D01*
X115807382Y-159585009D01*
X115621223Y-159295709D01*
X115556869Y-159251738D01*
X115604291Y-159221223D01*
X115798372Y-158937176D01*
X115866652Y-158600000D01*
X115866652Y-157400000D01*
X115807382Y-157085009D01*
X115621223Y-156795709D01*
X115556869Y-156751738D01*
X115604291Y-156721223D01*
X115798372Y-156437176D01*
X115866652Y-156100000D01*
X115866652Y-155340734D01*
X116074514Y-155548595D01*
X116386925Y-155678000D01*
X116643500Y-155678000D01*
X116856000Y-155465500D01*
X116856000Y-154228000D01*
X115918500Y-154228000D01*
X115711107Y-154435393D01*
X115621223Y-154295709D01*
X115337176Y-154101628D01*
X115000000Y-154033348D01*
X112500000Y-154033348D01*
X112185009Y-154092618D01*
X111895709Y-154278777D01*
X111701628Y-154562824D01*
X111633348Y-154900000D01*
X111633348Y-156100000D01*
X111692618Y-156414991D01*
X111878777Y-156704291D01*
X111943131Y-156748262D01*
X111895709Y-156778777D01*
X111701628Y-157062824D01*
X111633348Y-157400000D01*
X111633348Y-158600000D01*
X111692618Y-158914991D01*
X111878777Y-159204291D01*
X111943131Y-159248262D01*
X111895709Y-159278777D01*
X111701628Y-159562824D01*
X111633348Y-159900000D01*
X111633348Y-161100000D01*
X111692618Y-161414991D01*
X111878777Y-161704291D01*
X111904696Y-161722001D01*
X110103082Y-161722001D01*
X110104291Y-161721223D01*
X110298372Y-161437176D01*
X110366652Y-161100000D01*
X110366652Y-159900000D01*
X110307382Y-159585009D01*
X110121223Y-159295709D01*
X110056869Y-159251738D01*
X110104291Y-159221223D01*
X110298372Y-158937176D01*
X110366652Y-158600000D01*
X110366652Y-157947562D01*
X110657108Y-157657106D01*
X110873881Y-157332683D01*
X110950002Y-156949999D01*
X110950001Y-156949994D01*
X110950001Y-154539999D01*
X110930210Y-154440500D01*
X110873881Y-154157315D01*
X110657108Y-153832892D01*
X108948732Y-152124516D01*
X108948732Y-150622000D01*
X108901122Y-150368975D01*
X109040372Y-150165176D01*
X109108652Y-149828000D01*
X109108652Y-149372562D01*
X109132214Y-149349000D01*
X111068000Y-149349000D01*
X111068000Y-150218075D01*
X111197405Y-150530486D01*
X111436513Y-150769595D01*
X111748924Y-150899000D01*
X112005500Y-150899000D01*
X112218000Y-150686500D01*
X112218000Y-149136500D01*
X111280500Y-149136500D01*
X111068000Y-149349000D01*
X109132214Y-149349000D01*
X109707813Y-148773401D01*
X109793000Y-148790652D01*
X109793000Y-148790652D01*
G37*
X109793000Y-148790652D02*
X111068000Y-148790652D01*
X111068000Y-148824000D01*
X111280500Y-149036500D01*
X112218000Y-149036500D01*
X112218000Y-149016500D01*
X112318000Y-149016500D01*
X112318000Y-149036500D01*
X112321348Y-149036500D01*
X112321348Y-149136500D01*
X112318000Y-149136500D01*
X112318000Y-150686500D01*
X112505439Y-150873939D01*
X112309467Y-151069569D01*
X112088252Y-151602312D01*
X112087749Y-152179157D01*
X112308033Y-152712286D01*
X112715569Y-153120533D01*
X113248312Y-153341748D01*
X113825157Y-153342251D01*
X114358286Y-153121967D01*
X114766533Y-152714431D01*
X114987748Y-152181688D01*
X114987873Y-152038087D01*
X115548893Y-152599107D01*
X115721837Y-152714665D01*
X115748618Y-152856991D01*
X115856803Y-153025115D01*
X115835405Y-153046513D01*
X115706000Y-153358924D01*
X115706000Y-153915500D01*
X115918500Y-154128000D01*
X116856000Y-154128000D01*
X116856000Y-154108000D01*
X116956000Y-154108000D01*
X116956000Y-154128000D01*
X116976000Y-154128000D01*
X116976000Y-154228000D01*
X116956000Y-154228000D01*
X116956000Y-155465500D01*
X117168500Y-155678000D01*
X117425075Y-155678000D01*
X117737486Y-155548595D01*
X117846073Y-155440009D01*
X118118824Y-155626372D01*
X118456000Y-155694652D01*
X119156000Y-155694652D01*
X119273001Y-155672637D01*
X119273001Y-156222787D01*
X115823757Y-159672031D01*
X115807382Y-159585009D01*
X115621223Y-159295709D01*
X115556869Y-159251738D01*
X115604291Y-159221223D01*
X115798372Y-158937176D01*
X115866652Y-158600000D01*
X115866652Y-157400000D01*
X115807382Y-157085009D01*
X115621223Y-156795709D01*
X115556869Y-156751738D01*
X115604291Y-156721223D01*
X115798372Y-156437176D01*
X115866652Y-156100000D01*
X115866652Y-155340734D01*
X116074514Y-155548595D01*
X116386925Y-155678000D01*
X116643500Y-155678000D01*
X116856000Y-155465500D01*
X116856000Y-154228000D01*
X115918500Y-154228000D01*
X115711107Y-154435393D01*
X115621223Y-154295709D01*
X115337176Y-154101628D01*
X115000000Y-154033348D01*
X112500000Y-154033348D01*
X112185009Y-154092618D01*
X111895709Y-154278777D01*
X111701628Y-154562824D01*
X111633348Y-154900000D01*
X111633348Y-156100000D01*
X111692618Y-156414991D01*
X111878777Y-156704291D01*
X111943131Y-156748262D01*
X111895709Y-156778777D01*
X111701628Y-157062824D01*
X111633348Y-157400000D01*
X111633348Y-158600000D01*
X111692618Y-158914991D01*
X111878777Y-159204291D01*
X111943131Y-159248262D01*
X111895709Y-159278777D01*
X111701628Y-159562824D01*
X111633348Y-159900000D01*
X111633348Y-161100000D01*
X111692618Y-161414991D01*
X111878777Y-161704291D01*
X111904696Y-161722001D01*
X110103082Y-161722001D01*
X110104291Y-161721223D01*
X110298372Y-161437176D01*
X110366652Y-161100000D01*
X110366652Y-159900000D01*
X110307382Y-159585009D01*
X110121223Y-159295709D01*
X110056869Y-159251738D01*
X110104291Y-159221223D01*
X110298372Y-158937176D01*
X110366652Y-158600000D01*
X110366652Y-157947562D01*
X110657108Y-157657106D01*
X110873881Y-157332683D01*
X110950002Y-156949999D01*
X110950001Y-156949994D01*
X110950001Y-154539999D01*
X110930210Y-154440500D01*
X110873881Y-154157315D01*
X110657108Y-153832892D01*
X108948732Y-152124516D01*
X108948732Y-150622000D01*
X108901122Y-150368975D01*
X109040372Y-150165176D01*
X109108652Y-149828000D01*
X109108652Y-149372562D01*
X109132214Y-149349000D01*
X111068000Y-149349000D01*
X111068000Y-150218075D01*
X111197405Y-150530486D01*
X111436513Y-150769595D01*
X111748924Y-150899000D01*
X112005500Y-150899000D01*
X112218000Y-150686500D01*
X112218000Y-149136500D01*
X111280500Y-149136500D01*
X111068000Y-149349000D01*
X109132214Y-149349000D01*
X109707813Y-148773401D01*
X109793000Y-148790652D01*
G36*
X87524893Y-145741107D02*
X87849316Y-145957880D01*
X88232000Y-146034000D01*
X105792000Y-146034000D01*
X105792000Y-146065500D01*
X106004500Y-146278000D01*
X107392000Y-146278000D01*
X107392000Y-146258000D01*
X107492000Y-146258000D01*
X107492000Y-146278000D01*
X108879500Y-146278000D01*
X109029500Y-146128000D01*
X109155500Y-146254000D01*
X110705500Y-146254000D01*
X110705500Y-146250652D01*
X110805500Y-146250652D01*
X110805500Y-146254000D01*
X112355500Y-146254000D01*
X112568000Y-146041500D01*
X112568000Y-145784925D01*
X112524654Y-145680279D01*
X112584652Y-145384000D01*
X112584652Y-144684000D01*
X112529057Y-144388538D01*
X112584652Y-144114000D01*
X112584652Y-143414000D01*
X112529057Y-143118538D01*
X112584652Y-142844000D01*
X112584652Y-142810652D01*
X112618000Y-142810652D01*
X112913462Y-142755057D01*
X113188000Y-142810652D01*
X113888000Y-142810652D01*
X114183462Y-142755057D01*
X114458000Y-142810652D01*
X115158000Y-142810652D01*
X115453462Y-142755057D01*
X115728000Y-142810652D01*
X116428000Y-142810652D01*
X116723462Y-142755057D01*
X116998000Y-142810652D01*
X117031348Y-142810652D01*
X117031348Y-142844000D01*
X117086943Y-143139462D01*
X117031348Y-143414000D01*
X117031348Y-144114000D01*
X117086943Y-144409462D01*
X117053583Y-144574202D01*
X115053784Y-146574000D01*
X112568000Y-146574000D01*
X112568000Y-146566500D01*
X112355500Y-146354000D01*
X110805500Y-146354000D01*
X110805500Y-146357348D01*
X110705500Y-146357348D01*
X110705500Y-146354000D01*
X109155500Y-146354000D01*
X109005500Y-146504000D01*
X108879500Y-146378000D01*
X107492000Y-146378000D01*
X107492000Y-147465500D01*
X107704500Y-147678000D01*
X107974786Y-147678000D01*
X107691438Y-147961348D01*
X106642000Y-147961348D01*
X106327009Y-148020618D01*
X106037709Y-148206777D01*
X105843628Y-148490824D01*
X105775348Y-148828000D01*
X105775348Y-149755348D01*
X104769920Y-149755348D01*
X104509171Y-149804412D01*
X104509350Y-149599960D01*
X104202471Y-148857257D01*
X103634732Y-148288526D01*
X102892566Y-147980352D01*
X102088960Y-147979650D01*
X101346257Y-148286529D01*
X100777526Y-148854268D01*
X100469352Y-149596434D01*
X100468650Y-150400040D01*
X100671924Y-150892000D01*
X99305833Y-150892000D01*
X99508648Y-150403566D01*
X99509350Y-149599960D01*
X99202471Y-148857257D01*
X98634732Y-148288526D01*
X97892566Y-147980352D01*
X97088960Y-147979650D01*
X96346257Y-148286529D01*
X95777526Y-148854268D01*
X95469352Y-149596434D01*
X95468650Y-150400040D01*
X95671924Y-150892000D01*
X95410213Y-150892000D01*
X92147107Y-147628893D01*
X91822684Y-147412120D01*
X91440000Y-147336000D01*
X90388332Y-147336000D01*
X90321223Y-147231709D01*
X90037176Y-147037628D01*
X89700000Y-146969348D01*
X88647562Y-146969348D01*
X88268714Y-146590500D01*
X105792000Y-146590500D01*
X105792000Y-146997075D01*
X105921405Y-147309486D01*
X106160513Y-147548595D01*
X106472924Y-147678000D01*
X107179500Y-147678000D01*
X107392000Y-147465500D01*
X107392000Y-146378000D01*
X106004500Y-146378000D01*
X105792000Y-146590500D01*
X88268714Y-146590500D01*
X79809999Y-138131785D01*
X79809999Y-138026213D01*
X87524893Y-145741107D01*
X87524893Y-145741107D01*
G37*
X87524893Y-145741107D02*
X87849316Y-145957880D01*
X88232000Y-146034000D01*
X105792000Y-146034000D01*
X105792000Y-146065500D01*
X106004500Y-146278000D01*
X107392000Y-146278000D01*
X107392000Y-146258000D01*
X107492000Y-146258000D01*
X107492000Y-146278000D01*
X108879500Y-146278000D01*
X109029500Y-146128000D01*
X109155500Y-146254000D01*
X110705500Y-146254000D01*
X110705500Y-146250652D01*
X110805500Y-146250652D01*
X110805500Y-146254000D01*
X112355500Y-146254000D01*
X112568000Y-146041500D01*
X112568000Y-145784925D01*
X112524654Y-145680279D01*
X112584652Y-145384000D01*
X112584652Y-144684000D01*
X112529057Y-144388538D01*
X112584652Y-144114000D01*
X112584652Y-143414000D01*
X112529057Y-143118538D01*
X112584652Y-142844000D01*
X112584652Y-142810652D01*
X112618000Y-142810652D01*
X112913462Y-142755057D01*
X113188000Y-142810652D01*
X113888000Y-142810652D01*
X114183462Y-142755057D01*
X114458000Y-142810652D01*
X115158000Y-142810652D01*
X115453462Y-142755057D01*
X115728000Y-142810652D01*
X116428000Y-142810652D01*
X116723462Y-142755057D01*
X116998000Y-142810652D01*
X117031348Y-142810652D01*
X117031348Y-142844000D01*
X117086943Y-143139462D01*
X117031348Y-143414000D01*
X117031348Y-144114000D01*
X117086943Y-144409462D01*
X117053583Y-144574202D01*
X115053784Y-146574000D01*
X112568000Y-146574000D01*
X112568000Y-146566500D01*
X112355500Y-146354000D01*
X110805500Y-146354000D01*
X110805500Y-146357348D01*
X110705500Y-146357348D01*
X110705500Y-146354000D01*
X109155500Y-146354000D01*
X109005500Y-146504000D01*
X108879500Y-146378000D01*
X107492000Y-146378000D01*
X107492000Y-147465500D01*
X107704500Y-147678000D01*
X107974786Y-147678000D01*
X107691438Y-147961348D01*
X106642000Y-147961348D01*
X106327009Y-148020618D01*
X106037709Y-148206777D01*
X105843628Y-148490824D01*
X105775348Y-148828000D01*
X105775348Y-149755348D01*
X104769920Y-149755348D01*
X104509171Y-149804412D01*
X104509350Y-149599960D01*
X104202471Y-148857257D01*
X103634732Y-148288526D01*
X102892566Y-147980352D01*
X102088960Y-147979650D01*
X101346257Y-148286529D01*
X100777526Y-148854268D01*
X100469352Y-149596434D01*
X100468650Y-150400040D01*
X100671924Y-150892000D01*
X99305833Y-150892000D01*
X99508648Y-150403566D01*
X99509350Y-149599960D01*
X99202471Y-148857257D01*
X98634732Y-148288526D01*
X97892566Y-147980352D01*
X97088960Y-147979650D01*
X96346257Y-148286529D01*
X95777526Y-148854268D01*
X95469352Y-149596434D01*
X95468650Y-150400040D01*
X95671924Y-150892000D01*
X95410213Y-150892000D01*
X92147107Y-147628893D01*
X91822684Y-147412120D01*
X91440000Y-147336000D01*
X90388332Y-147336000D01*
X90321223Y-147231709D01*
X90037176Y-147037628D01*
X89700000Y-146969348D01*
X88647562Y-146969348D01*
X88268714Y-146590500D01*
X105792000Y-146590500D01*
X105792000Y-146997075D01*
X105921405Y-147309486D01*
X106160513Y-147548595D01*
X106472924Y-147678000D01*
X107179500Y-147678000D01*
X107392000Y-147465500D01*
X107392000Y-146378000D01*
X106004500Y-146378000D01*
X105792000Y-146590500D01*
X88268714Y-146590500D01*
X79809999Y-138131785D01*
X79809999Y-138026213D01*
X87524893Y-145741107D01*
G36*
X104320824Y-130044372D02*
X104658000Y-130112652D01*
X105330439Y-130112652D01*
X105670891Y-130453104D01*
X105670893Y-130453107D01*
X105832353Y-130560991D01*
X105995316Y-130669880D01*
X106037025Y-130678176D01*
X106147777Y-130850291D01*
X106431824Y-131044372D01*
X106769000Y-131112652D01*
X108369000Y-131112652D01*
X108683991Y-131053382D01*
X108973291Y-130867223D01*
X109056119Y-130746000D01*
X118939788Y-130746000D01*
X119167136Y-130973348D01*
X119138000Y-130973348D01*
X118823009Y-131032618D01*
X118533709Y-131218777D01*
X118431426Y-131368474D01*
X118424431Y-131361467D01*
X117891688Y-131140252D01*
X117314843Y-131139749D01*
X116781714Y-131360033D01*
X116551346Y-131590000D01*
X116472861Y-131590000D01*
X116460632Y-131525009D01*
X116274473Y-131235709D01*
X115990426Y-131041628D01*
X115653250Y-130973348D01*
X114153250Y-130973348D01*
X113838259Y-131032618D01*
X113548959Y-131218777D01*
X113354878Y-131502824D01*
X113337224Y-131590000D01*
X111488111Y-131590000D01*
X111475882Y-131525009D01*
X111289723Y-131235709D01*
X111005676Y-131041628D01*
X110668500Y-130973348D01*
X109168500Y-130973348D01*
X108853509Y-131032618D01*
X108564209Y-131218777D01*
X108385329Y-131480576D01*
X108264431Y-131359467D01*
X107731688Y-131138252D01*
X107154843Y-131137749D01*
X106621714Y-131358033D01*
X106476784Y-131502711D01*
X106304973Y-131235709D01*
X106020926Y-131041628D01*
X105683750Y-130973348D01*
X104241216Y-130973348D01*
X104325000Y-130771076D01*
X104325000Y-130564500D01*
X104112500Y-130352000D01*
X102750000Y-130352000D01*
X102750000Y-131239500D01*
X102962500Y-131452000D01*
X103420105Y-131452000D01*
X103385378Y-131502824D01*
X103317098Y-131840000D01*
X103317098Y-132860880D01*
X102276001Y-131819783D01*
X102276001Y-131452000D01*
X102437500Y-131452000D01*
X102650000Y-131239500D01*
X102650000Y-130352000D01*
X102630000Y-130352000D01*
X102630000Y-130252000D01*
X102650000Y-130252000D01*
X102650000Y-130232000D01*
X102750000Y-130232000D01*
X102750000Y-130252000D01*
X104112500Y-130252000D01*
X104320411Y-130044089D01*
X104320824Y-130044372D01*
X104320824Y-130044372D01*
G37*
X104320824Y-130044372D02*
X104658000Y-130112652D01*
X105330439Y-130112652D01*
X105670891Y-130453104D01*
X105670893Y-130453107D01*
X105832353Y-130560991D01*
X105995316Y-130669880D01*
X106037025Y-130678176D01*
X106147777Y-130850291D01*
X106431824Y-131044372D01*
X106769000Y-131112652D01*
X108369000Y-131112652D01*
X108683991Y-131053382D01*
X108973291Y-130867223D01*
X109056119Y-130746000D01*
X118939788Y-130746000D01*
X119167136Y-130973348D01*
X119138000Y-130973348D01*
X118823009Y-131032618D01*
X118533709Y-131218777D01*
X118431426Y-131368474D01*
X118424431Y-131361467D01*
X117891688Y-131140252D01*
X117314843Y-131139749D01*
X116781714Y-131360033D01*
X116551346Y-131590000D01*
X116472861Y-131590000D01*
X116460632Y-131525009D01*
X116274473Y-131235709D01*
X115990426Y-131041628D01*
X115653250Y-130973348D01*
X114153250Y-130973348D01*
X113838259Y-131032618D01*
X113548959Y-131218777D01*
X113354878Y-131502824D01*
X113337224Y-131590000D01*
X111488111Y-131590000D01*
X111475882Y-131525009D01*
X111289723Y-131235709D01*
X111005676Y-131041628D01*
X110668500Y-130973348D01*
X109168500Y-130973348D01*
X108853509Y-131032618D01*
X108564209Y-131218777D01*
X108385329Y-131480576D01*
X108264431Y-131359467D01*
X107731688Y-131138252D01*
X107154843Y-131137749D01*
X106621714Y-131358033D01*
X106476784Y-131502711D01*
X106304973Y-131235709D01*
X106020926Y-131041628D01*
X105683750Y-130973348D01*
X104241216Y-130973348D01*
X104325000Y-130771076D01*
X104325000Y-130564500D01*
X104112500Y-130352000D01*
X102750000Y-130352000D01*
X102750000Y-131239500D01*
X102962500Y-131452000D01*
X103420105Y-131452000D01*
X103385378Y-131502824D01*
X103317098Y-131840000D01*
X103317098Y-132860880D01*
X102276001Y-131819783D01*
X102276001Y-131452000D01*
X102437500Y-131452000D01*
X102650000Y-131239500D01*
X102650000Y-130352000D01*
X102630000Y-130352000D01*
X102630000Y-130252000D01*
X102650000Y-130252000D01*
X102650000Y-130232000D01*
X102750000Y-130232000D01*
X102750000Y-130252000D01*
X104112500Y-130252000D01*
X104320411Y-130044089D01*
X104320824Y-130044372D01*
G36*
X97321000Y-108631652D02*
X98471001Y-108631652D01*
X98471001Y-108915000D01*
X98433500Y-108915000D01*
X98221000Y-109127500D01*
X98221000Y-110165000D01*
X98241000Y-110165000D01*
X98241000Y-110265000D01*
X98221000Y-110265000D01*
X98221000Y-111302500D01*
X98433500Y-111515000D01*
X98471001Y-111515000D01*
X98471001Y-120740000D01*
X97212500Y-120740000D01*
X97000000Y-120952500D01*
X97000000Y-122040000D01*
X97020000Y-122040000D01*
X97020000Y-122140000D01*
X97000000Y-122140000D01*
X97000000Y-123227500D01*
X97212500Y-123440000D01*
X98471001Y-123440000D01*
X98471001Y-125433821D01*
X98412176Y-125393628D01*
X98075000Y-125325348D01*
X96525000Y-125325348D01*
X96210009Y-125384618D01*
X96043132Y-125492000D01*
X95722731Y-125492000D01*
X95602176Y-125409628D01*
X95265000Y-125341348D01*
X93965000Y-125341348D01*
X93650009Y-125400618D01*
X93360709Y-125586777D01*
X93166628Y-125870824D01*
X93098348Y-126208000D01*
X93098348Y-126360439D01*
X91240893Y-128217893D01*
X91024120Y-128542316D01*
X90968464Y-128822120D01*
X90948000Y-128925000D01*
X90948000Y-130267434D01*
X90719467Y-130495569D01*
X90521075Y-130973348D01*
X89229500Y-130973348D01*
X88914509Y-131032618D01*
X88625209Y-131218777D01*
X88431128Y-131502824D01*
X88413474Y-131590000D01*
X86564361Y-131590000D01*
X86552132Y-131525009D01*
X86365973Y-131235709D01*
X86081926Y-131041628D01*
X85744750Y-130973348D01*
X84244750Y-130973348D01*
X83929759Y-131032618D01*
X83640459Y-131218777D01*
X83446378Y-131502824D01*
X83428724Y-131590000D01*
X81579611Y-131590000D01*
X81567382Y-131525009D01*
X81381223Y-131235709D01*
X81097176Y-131041628D01*
X80760000Y-130973348D01*
X79809999Y-130973348D01*
X79809999Y-126328215D01*
X81694214Y-124444000D01*
X92806002Y-124444000D01*
X93188686Y-124367880D01*
X93513109Y-124151107D01*
X94461067Y-123203149D01*
X94568514Y-123310595D01*
X94880925Y-123440000D01*
X96687500Y-123440000D01*
X96900000Y-123227500D01*
X96900000Y-122140000D01*
X96880000Y-122140000D01*
X96880000Y-122040000D01*
X96900000Y-122040000D01*
X96900000Y-120952500D01*
X96687500Y-120740000D01*
X95599999Y-120740000D01*
X95599999Y-111520080D01*
X95698700Y-111520080D01*
X95911200Y-111307580D01*
X95911200Y-110270080D01*
X96011200Y-110270080D01*
X96011200Y-111307580D01*
X96223700Y-111520080D01*
X96980276Y-111520080D01*
X97072232Y-111481991D01*
X97151924Y-111515000D01*
X97908500Y-111515000D01*
X98121000Y-111302500D01*
X98121000Y-110265000D01*
X96683500Y-110265000D01*
X96678420Y-110270080D01*
X96011200Y-110270080D01*
X95911200Y-110270080D01*
X95891200Y-110270080D01*
X95891200Y-110170080D01*
X95911200Y-110170080D01*
X95911200Y-109132580D01*
X96011200Y-109132580D01*
X96011200Y-110170080D01*
X97448700Y-110170080D01*
X97453780Y-110165000D01*
X98121000Y-110165000D01*
X98121000Y-109127500D01*
X97908500Y-108915000D01*
X97151924Y-108915000D01*
X97059968Y-108953089D01*
X96980276Y-108920080D01*
X96223700Y-108920080D01*
X96011200Y-109132580D01*
X95911200Y-109132580D01*
X95698700Y-108920080D01*
X95599999Y-108920080D01*
X95599999Y-108636732D01*
X96811200Y-108636732D01*
X97088461Y-108584561D01*
X97321000Y-108631652D01*
X97321000Y-108631652D01*
G37*
X97321000Y-108631652D02*
X98471001Y-108631652D01*
X98471001Y-108915000D01*
X98433500Y-108915000D01*
X98221000Y-109127500D01*
X98221000Y-110165000D01*
X98241000Y-110165000D01*
X98241000Y-110265000D01*
X98221000Y-110265000D01*
X98221000Y-111302500D01*
X98433500Y-111515000D01*
X98471001Y-111515000D01*
X98471001Y-120740000D01*
X97212500Y-120740000D01*
X97000000Y-120952500D01*
X97000000Y-122040000D01*
X97020000Y-122040000D01*
X97020000Y-122140000D01*
X97000000Y-122140000D01*
X97000000Y-123227500D01*
X97212500Y-123440000D01*
X98471001Y-123440000D01*
X98471001Y-125433821D01*
X98412176Y-125393628D01*
X98075000Y-125325348D01*
X96525000Y-125325348D01*
X96210009Y-125384618D01*
X96043132Y-125492000D01*
X95722731Y-125492000D01*
X95602176Y-125409628D01*
X95265000Y-125341348D01*
X93965000Y-125341348D01*
X93650009Y-125400618D01*
X93360709Y-125586777D01*
X93166628Y-125870824D01*
X93098348Y-126208000D01*
X93098348Y-126360439D01*
X91240893Y-128217893D01*
X91024120Y-128542316D01*
X90968464Y-128822120D01*
X90948000Y-128925000D01*
X90948000Y-130267434D01*
X90719467Y-130495569D01*
X90521075Y-130973348D01*
X89229500Y-130973348D01*
X88914509Y-131032618D01*
X88625209Y-131218777D01*
X88431128Y-131502824D01*
X88413474Y-131590000D01*
X86564361Y-131590000D01*
X86552132Y-131525009D01*
X86365973Y-131235709D01*
X86081926Y-131041628D01*
X85744750Y-130973348D01*
X84244750Y-130973348D01*
X83929759Y-131032618D01*
X83640459Y-131218777D01*
X83446378Y-131502824D01*
X83428724Y-131590000D01*
X81579611Y-131590000D01*
X81567382Y-131525009D01*
X81381223Y-131235709D01*
X81097176Y-131041628D01*
X80760000Y-130973348D01*
X79809999Y-130973348D01*
X79809999Y-126328215D01*
X81694214Y-124444000D01*
X92806002Y-124444000D01*
X93188686Y-124367880D01*
X93513109Y-124151107D01*
X94461067Y-123203149D01*
X94568514Y-123310595D01*
X94880925Y-123440000D01*
X96687500Y-123440000D01*
X96900000Y-123227500D01*
X96900000Y-122140000D01*
X96880000Y-122140000D01*
X96880000Y-122040000D01*
X96900000Y-122040000D01*
X96900000Y-120952500D01*
X96687500Y-120740000D01*
X95599999Y-120740000D01*
X95599999Y-111520080D01*
X95698700Y-111520080D01*
X95911200Y-111307580D01*
X95911200Y-110270080D01*
X96011200Y-110270080D01*
X96011200Y-111307580D01*
X96223700Y-111520080D01*
X96980276Y-111520080D01*
X97072232Y-111481991D01*
X97151924Y-111515000D01*
X97908500Y-111515000D01*
X98121000Y-111302500D01*
X98121000Y-110265000D01*
X96683500Y-110265000D01*
X96678420Y-110270080D01*
X96011200Y-110270080D01*
X95911200Y-110270080D01*
X95891200Y-110270080D01*
X95891200Y-110170080D01*
X95911200Y-110170080D01*
X95911200Y-109132580D01*
X96011200Y-109132580D01*
X96011200Y-110170080D01*
X97448700Y-110170080D01*
X97453780Y-110165000D01*
X98121000Y-110165000D01*
X98121000Y-109127500D01*
X97908500Y-108915000D01*
X97151924Y-108915000D01*
X97059968Y-108953089D01*
X96980276Y-108920080D01*
X96223700Y-108920080D01*
X96011200Y-109132580D01*
X95911200Y-109132580D01*
X95698700Y-108920080D01*
X95599999Y-108920080D01*
X95599999Y-108636732D01*
X96811200Y-108636732D01*
X97088461Y-108584561D01*
X97321000Y-108631652D01*
G36*
X101117618Y-127106991D02*
X101127898Y-127122966D01*
X101126628Y-127124824D01*
X101058348Y-127462000D01*
X101058348Y-128062000D01*
X101117618Y-128376991D01*
X101127898Y-128392966D01*
X101126628Y-128394824D01*
X101058348Y-128732000D01*
X101058348Y-128784438D01*
X100568894Y-129273892D01*
X100352121Y-129598315D01*
X100342439Y-129646991D01*
X100276001Y-129980999D01*
X100276001Y-130973348D01*
X99199000Y-130973348D01*
X98884009Y-131032618D01*
X98778699Y-131100383D01*
X98795595Y-131083487D01*
X98925000Y-130771076D01*
X98925000Y-130564500D01*
X98712500Y-130352000D01*
X97350000Y-130352000D01*
X97350000Y-130372000D01*
X97250000Y-130372000D01*
X97250000Y-130352000D01*
X95887500Y-130352000D01*
X95675000Y-130564500D01*
X95675000Y-130771076D01*
X95762861Y-130983192D01*
X95714250Y-130973348D01*
X94214250Y-130973348D01*
X93899259Y-131032618D01*
X93609959Y-131218777D01*
X93415878Y-131502824D01*
X93398224Y-131590000D01*
X93397763Y-131590000D01*
X93398251Y-131030843D01*
X93177967Y-130497714D01*
X92948000Y-130267346D01*
X92948000Y-129339214D01*
X93172155Y-129115059D01*
X93244405Y-129289486D01*
X93483513Y-129528595D01*
X93795924Y-129658000D01*
X94352500Y-129658000D01*
X94565000Y-129445500D01*
X94565000Y-128508000D01*
X94545000Y-128508000D01*
X94545000Y-128408000D01*
X94565000Y-128408000D01*
X94565000Y-128388000D01*
X94665000Y-128388000D01*
X94665000Y-128408000D01*
X94685000Y-128408000D01*
X94685000Y-128508000D01*
X94665000Y-128508000D01*
X94665000Y-129445500D01*
X94877500Y-129658000D01*
X95434076Y-129658000D01*
X95699038Y-129548249D01*
X95717618Y-129646991D01*
X95738545Y-129679513D01*
X95675000Y-129832924D01*
X95675000Y-130039500D01*
X95887500Y-130252000D01*
X97250000Y-130252000D01*
X97250000Y-130232000D01*
X97350000Y-130232000D01*
X97350000Y-130252000D01*
X98712500Y-130252000D01*
X98925000Y-130039500D01*
X98925000Y-129832924D01*
X98863287Y-129683936D01*
X98873372Y-129669176D01*
X98941652Y-129332000D01*
X98941652Y-129279562D01*
X101117080Y-127104134D01*
X101117618Y-127106991D01*
X101117618Y-127106991D01*
G37*
X101117618Y-127106991D02*
X101127898Y-127122966D01*
X101126628Y-127124824D01*
X101058348Y-127462000D01*
X101058348Y-128062000D01*
X101117618Y-128376991D01*
X101127898Y-128392966D01*
X101126628Y-128394824D01*
X101058348Y-128732000D01*
X101058348Y-128784438D01*
X100568894Y-129273892D01*
X100352121Y-129598315D01*
X100342439Y-129646991D01*
X100276001Y-129980999D01*
X100276001Y-130973348D01*
X99199000Y-130973348D01*
X98884009Y-131032618D01*
X98778699Y-131100383D01*
X98795595Y-131083487D01*
X98925000Y-130771076D01*
X98925000Y-130564500D01*
X98712500Y-130352000D01*
X97350000Y-130352000D01*
X97350000Y-130372000D01*
X97250000Y-130372000D01*
X97250000Y-130352000D01*
X95887500Y-130352000D01*
X95675000Y-130564500D01*
X95675000Y-130771076D01*
X95762861Y-130983192D01*
X95714250Y-130973348D01*
X94214250Y-130973348D01*
X93899259Y-131032618D01*
X93609959Y-131218777D01*
X93415878Y-131502824D01*
X93398224Y-131590000D01*
X93397763Y-131590000D01*
X93398251Y-131030843D01*
X93177967Y-130497714D01*
X92948000Y-130267346D01*
X92948000Y-129339214D01*
X93172155Y-129115059D01*
X93244405Y-129289486D01*
X93483513Y-129528595D01*
X93795924Y-129658000D01*
X94352500Y-129658000D01*
X94565000Y-129445500D01*
X94565000Y-128508000D01*
X94545000Y-128508000D01*
X94545000Y-128408000D01*
X94565000Y-128408000D01*
X94565000Y-128388000D01*
X94665000Y-128388000D01*
X94665000Y-128408000D01*
X94685000Y-128408000D01*
X94685000Y-128508000D01*
X94665000Y-128508000D01*
X94665000Y-129445500D01*
X94877500Y-129658000D01*
X95434076Y-129658000D01*
X95699038Y-129548249D01*
X95717618Y-129646991D01*
X95738545Y-129679513D01*
X95675000Y-129832924D01*
X95675000Y-130039500D01*
X95887500Y-130252000D01*
X97250000Y-130252000D01*
X97250000Y-130232000D01*
X97350000Y-130232000D01*
X97350000Y-130252000D01*
X98712500Y-130252000D01*
X98925000Y-130039500D01*
X98925000Y-129832924D01*
X98863287Y-129683936D01*
X98873372Y-129669176D01*
X98941652Y-129332000D01*
X98941652Y-129279562D01*
X101117080Y-127104134D01*
X101117618Y-127106991D01*
M02*
