G04 #@! TF.FileFunction,Soldermask,Top*
%FSLAX46Y46*%
G04 Gerber Fmt 4.6, Leading zero omitted, Abs format (unit mm)*
G04 Created by KiCad (PCBNEW 4.0.7-e2-6376~58~ubuntu16.04.1) date Sat Oct 21 15:52:31 2017*
%MOMM*%
%LPD*%
G01*
G04 APERTURE LIST*
%ADD10C,0.100000*%
%ADD11C,4.160000*%
%ADD12C,2.500000*%
%ADD13R,1.760000X1.760000*%
%ADD14C,1.760000*%
%ADD15R,1.760000X1.160000*%
%ADD16R,1.410000X1.160000*%
%ADD17R,4.360000X4.360000*%
%ADD18R,1.160000X1.160000*%
%ADD19R,2.600000X1.160000*%
%ADD20R,3.960000X1.160000*%
%ADD21R,1.160000X2.600000*%
%ADD22R,1.160000X3.960000*%
%ADD23R,0.960000X1.060000*%
%ADD24R,1.860000X1.060000*%
%ADD25R,1.710000X0.760000*%
%ADD26R,2.660000X1.360000*%
%ADD27R,1.460000X0.860000*%
%ADD28R,2.085000X0.860000*%
%ADD29R,0.860000X2.085000*%
%ADD30R,3.960000X2.160000*%
%ADD31R,1.660000X2.160000*%
%ADD32R,1.660000X1.660000*%
%ADD33R,0.860000X1.460000*%
%ADD34R,1.181080X2.700000*%
%ADD35C,0.254000*%
G04 APERTURE END LIST*
D10*
D11*
X93426000Y-186029000D03*
X85806000Y-186029000D03*
X106426000Y-186029000D03*
X114046000Y-186029000D03*
D12*
X102489000Y-150000000D03*
X99989000Y-140000000D03*
X97489000Y-150000000D03*
D13*
X100000000Y-155000000D03*
D14*
X100000000Y-162600000D03*
D15*
X107569000Y-129746000D03*
X107569000Y-126746000D03*
D16*
X105283000Y-128746000D03*
X105283000Y-126746000D03*
D17*
X99949000Y-100076000D03*
D18*
X77910000Y-77910000D03*
X122090000Y-77910000D03*
X122090000Y-122090000D03*
X77910000Y-122090000D03*
D19*
X79630000Y-77910000D03*
X79630000Y-122090000D03*
D20*
X84950000Y-77910000D03*
X84950000Y-122090000D03*
X90950000Y-77910000D03*
X90950000Y-122090000D03*
X96950000Y-77910000D03*
X96950000Y-122090000D03*
X103050000Y-77910000D03*
X103050000Y-122090000D03*
X109050000Y-77910000D03*
X109050000Y-122090000D03*
X115050000Y-77910000D03*
X115050000Y-122090000D03*
D19*
X120370000Y-77910000D03*
X120370000Y-122090000D03*
D21*
X77910000Y-79630000D03*
X122090000Y-79630000D03*
D22*
X77910000Y-84950000D03*
X122090000Y-84950000D03*
X77910000Y-90950000D03*
X122090000Y-90950000D03*
X77910000Y-96950000D03*
X122090000Y-96950000D03*
X77910000Y-103050000D03*
X122090000Y-103050000D03*
X77910000Y-109050000D03*
X122090000Y-109050000D03*
X77910000Y-115050000D03*
X122090000Y-115050000D03*
D21*
X77910000Y-120370000D03*
X122090000Y-120370000D03*
D23*
X102804000Y-103648000D03*
X100904000Y-103648000D03*
X101854000Y-105648000D03*
X99121000Y-103648000D03*
X97221000Y-103648000D03*
X98171000Y-105648000D03*
D24*
X98171000Y-107315000D03*
X98171000Y-110215000D03*
X101854000Y-107315000D03*
X101854000Y-110215000D03*
D25*
X97300000Y-126492000D03*
X97300000Y-127762000D03*
X97300000Y-129032000D03*
X97300000Y-130302000D03*
X102700000Y-130302000D03*
X102700000Y-129032000D03*
X102700000Y-127762000D03*
X102700000Y-126492000D03*
D15*
X94742000Y-168807000D03*
X94742000Y-171807000D03*
D16*
X105283000Y-168799000D03*
X105283000Y-170799000D03*
D26*
X86250000Y-160500000D03*
X91750000Y-160500000D03*
X86250000Y-155500000D03*
X91750000Y-155500000D03*
X86250000Y-158000000D03*
X91750000Y-158000000D03*
D27*
X94615000Y-126558000D03*
X94615000Y-128458000D03*
D15*
X88900000Y-148336000D03*
X88900000Y-151336000D03*
D26*
X108250000Y-160500000D03*
X113750000Y-160500000D03*
X108250000Y-155500000D03*
X113750000Y-155500000D03*
X108250000Y-158000000D03*
X113750000Y-158000000D03*
D24*
X95961200Y-107320080D03*
X95961200Y-110220080D03*
D28*
X110755500Y-145034000D03*
X110755500Y-146304000D03*
X110755500Y-147574000D03*
X110755500Y-143764000D03*
X110755500Y-142494000D03*
D29*
X112268000Y-149086500D03*
X113538000Y-149086500D03*
X114808000Y-149086500D03*
X116078000Y-149086500D03*
X117348000Y-149086500D03*
D28*
X118860500Y-147574000D03*
X118860500Y-146304000D03*
X118860500Y-145034000D03*
X118860500Y-143764000D03*
X118860500Y-142494000D03*
D29*
X117348000Y-140981500D03*
X116078000Y-140981500D03*
X114808000Y-140981500D03*
X113538000Y-140981500D03*
X112268000Y-140981500D03*
D30*
X100000000Y-166850000D03*
D31*
X100000000Y-173150000D03*
X102300000Y-173150000D03*
X97700000Y-173150000D03*
D32*
X80010000Y-135890000D03*
X80010000Y-132590000D03*
X99949000Y-135890000D03*
X99949000Y-132590000D03*
X84994750Y-132590000D03*
X84994750Y-135890000D03*
X104933750Y-132590000D03*
X104933750Y-135890000D03*
X119888000Y-135890000D03*
X119888000Y-132590000D03*
X89979500Y-135890000D03*
X89979500Y-132590000D03*
X109918500Y-135890000D03*
X109918500Y-132590000D03*
X94964250Y-132590000D03*
X94964250Y-135890000D03*
X114903250Y-132590000D03*
X114903250Y-135890000D03*
D33*
X116906000Y-151892000D03*
X118806000Y-151892000D03*
X116906000Y-154178000D03*
X118806000Y-154178000D03*
D15*
X107442000Y-146328000D03*
X107442000Y-149328000D03*
D34*
X105280460Y-151892000D03*
X107571540Y-151892000D03*
D35*
G36*
X120904000Y-120904000D02*
X101346000Y-120904000D01*
X101346000Y-111633000D01*
X103505000Y-111633000D01*
X103554410Y-111622994D01*
X103596035Y-111594553D01*
X103623315Y-111552159D01*
X103632000Y-111506000D01*
X103632000Y-106224606D01*
X104610803Y-105245803D01*
X104638666Y-105203789D01*
X104648000Y-105156000D01*
X104648000Y-102362000D01*
X104637994Y-102312590D01*
X104610803Y-102272197D01*
X104287320Y-101948714D01*
X104287320Y-97078800D01*
X104277314Y-97029390D01*
X104250123Y-96988997D01*
X102914083Y-95652957D01*
X102872069Y-95625094D01*
X102824280Y-95615760D01*
X96967040Y-95615760D01*
X96917630Y-95625766D01*
X96877237Y-95652957D01*
X95536117Y-96994077D01*
X95508254Y-97036091D01*
X95498920Y-97083880D01*
X95498920Y-104112794D01*
X93636197Y-105975517D01*
X93608334Y-106017531D01*
X93599000Y-106065320D01*
X93599000Y-120904000D01*
X78994000Y-120904000D01*
X78994000Y-78994000D01*
X120904000Y-78994000D01*
X120904000Y-120904000D01*
X120904000Y-120904000D01*
G37*
X120904000Y-120904000D02*
X101346000Y-120904000D01*
X101346000Y-111633000D01*
X103505000Y-111633000D01*
X103554410Y-111622994D01*
X103596035Y-111594553D01*
X103623315Y-111552159D01*
X103632000Y-111506000D01*
X103632000Y-106224606D01*
X104610803Y-105245803D01*
X104638666Y-105203789D01*
X104648000Y-105156000D01*
X104648000Y-102362000D01*
X104637994Y-102312590D01*
X104610803Y-102272197D01*
X104287320Y-101948714D01*
X104287320Y-97078800D01*
X104277314Y-97029390D01*
X104250123Y-96988997D01*
X102914083Y-95652957D01*
X102872069Y-95625094D01*
X102824280Y-95615760D01*
X96967040Y-95615760D01*
X96917630Y-95625766D01*
X96877237Y-95652957D01*
X95536117Y-96994077D01*
X95508254Y-97036091D01*
X95498920Y-97083880D01*
X95498920Y-104112794D01*
X93636197Y-105975517D01*
X93608334Y-106017531D01*
X93599000Y-106065320D01*
X93599000Y-120904000D01*
X78994000Y-120904000D01*
X78994000Y-78994000D01*
X120904000Y-78994000D01*
X120904000Y-120904000D01*
G36*
X98806000Y-120904000D02*
X95250272Y-120904000D01*
X95270050Y-111642821D01*
X98806000Y-111633341D01*
X98806000Y-120904000D01*
X98806000Y-120904000D01*
G37*
X98806000Y-120904000D02*
X95250272Y-120904000D01*
X95270050Y-111642821D01*
X98806000Y-111633341D01*
X98806000Y-120904000D01*
M02*
