G04 #@! TF.FileFunction,Paste,Top*
%FSLAX46Y46*%
G04 Gerber Fmt 4.6, Leading zero omitted, Abs format (unit mm)*
G04 Created by KiCad (PCBNEW 4.0.7-e2-6376~58~ubuntu16.04.1) date Sat Oct 21 15:52:31 2017*
%MOMM*%
%LPD*%
G01*
G04 APERTURE LIST*
%ADD10C,0.100000*%
%ADD11R,1.440000X0.840000*%
%ADD12R,1.090000X0.840000*%
%ADD13R,4.040000X4.040000*%
%ADD14R,0.640000X0.740000*%
%ADD15R,1.540000X0.740000*%
%ADD16R,1.390000X0.440000*%
%ADD17R,2.340000X1.040000*%
%ADD18R,1.140000X0.540000*%
%ADD19R,1.765000X0.540000*%
%ADD20R,0.540000X1.765000*%
%ADD21R,3.640000X1.840000*%
%ADD22R,1.340000X1.840000*%
%ADD23R,1.340000X1.340000*%
%ADD24R,0.540000X1.140000*%
%ADD25R,0.861080X2.380000*%
G04 APERTURE END LIST*
D10*
D11*
X107569000Y-129746000D03*
X107569000Y-126746000D03*
D12*
X105283000Y-128746000D03*
X105283000Y-126746000D03*
D13*
X99949000Y-100076000D03*
D14*
X102804000Y-103648000D03*
X100904000Y-103648000D03*
X101854000Y-105648000D03*
X99121000Y-103648000D03*
X97221000Y-103648000D03*
X98171000Y-105648000D03*
D15*
X98171000Y-107315000D03*
X98171000Y-110215000D03*
X101854000Y-107315000D03*
X101854000Y-110215000D03*
D16*
X97300000Y-126492000D03*
X97300000Y-127762000D03*
X97300000Y-129032000D03*
X97300000Y-130302000D03*
X102700000Y-130302000D03*
X102700000Y-129032000D03*
X102700000Y-127762000D03*
X102700000Y-126492000D03*
D11*
X94742000Y-168807000D03*
X94742000Y-171807000D03*
D12*
X105283000Y-168799000D03*
X105283000Y-170799000D03*
D17*
X86250000Y-160500000D03*
X91750000Y-160500000D03*
X86250000Y-155500000D03*
X91750000Y-155500000D03*
X86250000Y-158000000D03*
X91750000Y-158000000D03*
D18*
X94615000Y-126558000D03*
X94615000Y-128458000D03*
D11*
X88900000Y-148336000D03*
X88900000Y-151336000D03*
D17*
X108250000Y-160500000D03*
X113750000Y-160500000D03*
X108250000Y-155500000D03*
X113750000Y-155500000D03*
X108250000Y-158000000D03*
X113750000Y-158000000D03*
D15*
X95961200Y-107320080D03*
X95961200Y-110220080D03*
D19*
X110755500Y-145034000D03*
X110755500Y-146304000D03*
X110755500Y-147574000D03*
X110755500Y-143764000D03*
X110755500Y-142494000D03*
D20*
X112268000Y-149086500D03*
X113538000Y-149086500D03*
X114808000Y-149086500D03*
X116078000Y-149086500D03*
X117348000Y-149086500D03*
D19*
X118860500Y-147574000D03*
X118860500Y-146304000D03*
X118860500Y-145034000D03*
X118860500Y-143764000D03*
X118860500Y-142494000D03*
D20*
X117348000Y-140981500D03*
X116078000Y-140981500D03*
X114808000Y-140981500D03*
X113538000Y-140981500D03*
X112268000Y-140981500D03*
D21*
X100000000Y-166850000D03*
D22*
X100000000Y-173150000D03*
X102300000Y-173150000D03*
X97700000Y-173150000D03*
D23*
X80010000Y-135890000D03*
X80010000Y-132590000D03*
X99949000Y-135890000D03*
X99949000Y-132590000D03*
X84994750Y-132590000D03*
X84994750Y-135890000D03*
X104933750Y-132590000D03*
X104933750Y-135890000D03*
X119888000Y-135890000D03*
X119888000Y-132590000D03*
X89979500Y-135890000D03*
X89979500Y-132590000D03*
X109918500Y-135890000D03*
X109918500Y-132590000D03*
X94964250Y-132590000D03*
X94964250Y-135890000D03*
X114903250Y-132590000D03*
X114903250Y-135890000D03*
D24*
X116906000Y-151892000D03*
X118806000Y-151892000D03*
X116906000Y-154178000D03*
X118806000Y-154178000D03*
D11*
X107442000Y-146328000D03*
X107442000Y-149328000D03*
D25*
X105280460Y-151892000D03*
X107571540Y-151892000D03*
M02*
