M48
;DRILL file {KiCad 4.0.6-e0-6349~52~ubuntu16.10.1} date Tue Oct 17 03:14:22 2017
;FORMAT={-:-/ absolute / metric / decimal}
FMAT,2
METRIC,TZ
T1C0.800
T2C1.000
T3C1.300
T4C1.800
%
G90
G05
M71
T1
X79.756Y-120.142
X79.883Y-80.01
X80.01Y-91.059
X80.01Y-108.966
X91.059Y-79.883
X94.615Y-129.921
X97.028Y-120.142
X97.282Y-132.334
X97.663Y-175.641
X102.616Y-132.08
X102.997Y-120.015
X105.283Y-124.587
X105.283Y-172.72
X108.077Y-149.352
X108.966Y-79.883
X111.76Y-149.225
X116.205Y-138.049
X120.015Y-108.839
X120.015Y-120.015
X120.142Y-79.883
X120.142Y-91.059
T2
X100.Y-155.
X100.Y-162.6
X119.253Y-138.077
X119.253Y-140.617
X119.253Y-143.157
X119.253Y-145.697
X119.253Y-148.237
X119.253Y-150.777
T3
X97.489Y-150.
X99.989Y-140.
X102.489Y-150.
T4
X85.806Y-186.029
X93.426Y-186.029
X106.426Y-186.029
X114.046Y-186.029
T0
M30
