G04 #@! TF.FileFunction,Soldermask,Top*
%FSLAX46Y46*%
G04 Gerber Fmt 4.6, Leading zero omitted, Abs format (unit mm)*
G04 Created by KiCad (PCBNEW 4.0.6-e0-6349~52~ubuntu16.10.1) date Tue Oct 17 03:14:20 2017*
%MOMM*%
%LPD*%
G01*
G04 APERTURE LIST*
%ADD10C,0.100000*%
%ADD11C,4.160000*%
%ADD12R,1.660000X1.660000*%
%ADD13R,1.760000X1.160000*%
%ADD14R,1.410000X1.160000*%
%ADD15C,2.500000*%
%ADD16R,4.360000X4.360000*%
%ADD17R,1.160000X1.160000*%
%ADD18R,2.600000X1.160000*%
%ADD19R,3.960000X1.160000*%
%ADD20R,1.160000X2.600000*%
%ADD21R,1.160000X3.960000*%
%ADD22R,0.960000X1.060000*%
%ADD23R,1.760000X1.760000*%
%ADD24C,1.760000*%
%ADD25R,1.860000X1.060000*%
%ADD26R,1.710000X0.760000*%
%ADD27R,2.660000X1.360000*%
%ADD28O,3.170000X1.670000*%
%ADD29R,1.460000X0.860000*%
%ADD30R,0.860000X1.460000*%
%ADD31R,3.960000X2.160000*%
%ADD32R,1.660000X2.160000*%
%ADD33C,0.254000*%
G04 APERTURE END LIST*
D10*
D11*
X106426000Y-186029000D03*
X114046000Y-186029000D03*
X93426000Y-186029000D03*
X85806000Y-186029000D03*
D12*
X101650000Y-134500000D03*
X98350000Y-134500000D03*
D13*
X107569000Y-129746000D03*
X107569000Y-126746000D03*
D14*
X105283000Y-128746000D03*
X105283000Y-126746000D03*
D15*
X97489000Y-150000000D03*
X99989000Y-140000000D03*
X102489000Y-150000000D03*
D16*
X99949000Y-100076000D03*
D17*
X77910000Y-77910000D03*
X122090000Y-77910000D03*
X122090000Y-122090000D03*
X77910000Y-122090000D03*
D18*
X79630000Y-77910000D03*
X79630000Y-122090000D03*
D19*
X84950000Y-77910000D03*
X84950000Y-122090000D03*
X90950000Y-77910000D03*
X90950000Y-122090000D03*
X96950000Y-77910000D03*
X96950000Y-122090000D03*
X103050000Y-77910000D03*
X103050000Y-122090000D03*
X109050000Y-77910000D03*
X109050000Y-122090000D03*
X115050000Y-77910000D03*
X115050000Y-122090000D03*
D18*
X120370000Y-77910000D03*
X120370000Y-122090000D03*
D20*
X77910000Y-79630000D03*
X122090000Y-79630000D03*
D21*
X77910000Y-84950000D03*
X122090000Y-84950000D03*
X77910000Y-90950000D03*
X122090000Y-90950000D03*
X77910000Y-96950000D03*
X122090000Y-96950000D03*
X77910000Y-103050000D03*
X122090000Y-103050000D03*
X77910000Y-109050000D03*
X122090000Y-109050000D03*
X77910000Y-115050000D03*
X122090000Y-115050000D03*
D20*
X77910000Y-120370000D03*
X122090000Y-120370000D03*
D22*
X102804000Y-103648000D03*
X100904000Y-103648000D03*
X101854000Y-105648000D03*
D23*
X100000000Y-155000000D03*
D24*
X100000000Y-162600000D03*
D22*
X99121000Y-103648000D03*
X97221000Y-103648000D03*
X98171000Y-105648000D03*
D25*
X98171000Y-107315000D03*
X98171000Y-110215000D03*
X101854000Y-107315000D03*
X101854000Y-110215000D03*
D26*
X97300000Y-126492000D03*
X97300000Y-127762000D03*
X97300000Y-129032000D03*
X97300000Y-130302000D03*
X102700000Y-130302000D03*
X102700000Y-129032000D03*
X102700000Y-127762000D03*
X102700000Y-126492000D03*
D13*
X94742000Y-168807000D03*
X94742000Y-171807000D03*
D14*
X105283000Y-168799000D03*
X105283000Y-170799000D03*
D27*
X86250000Y-160500000D03*
X91750000Y-160500000D03*
X86250000Y-155500000D03*
X91750000Y-155500000D03*
X86250000Y-158000000D03*
X91750000Y-158000000D03*
D28*
X119253000Y-150777000D03*
X119253000Y-148237000D03*
X119253000Y-145697000D03*
X119253000Y-143157000D03*
X119253000Y-140617000D03*
X119253000Y-138077000D03*
D29*
X94615000Y-126558000D03*
X94615000Y-128458000D03*
D13*
X88900000Y-148336000D03*
X88900000Y-151336000D03*
D30*
X100950000Y-136906000D03*
X99050000Y-136906000D03*
D27*
X108250000Y-160500000D03*
X113750000Y-160500000D03*
X108250000Y-155500000D03*
X113750000Y-155500000D03*
X108250000Y-158000000D03*
X113750000Y-158000000D03*
D25*
X95961200Y-107320080D03*
X95961200Y-110220080D03*
D31*
X100000000Y-166850000D03*
D32*
X100000000Y-173150000D03*
X102300000Y-173150000D03*
X97700000Y-173150000D03*
D33*
G36*
X120904000Y-120904000D02*
X101346000Y-120904000D01*
X101346000Y-111633000D01*
X103505000Y-111633000D01*
X103554410Y-111622994D01*
X103596035Y-111594553D01*
X103623315Y-111552159D01*
X103632000Y-111506000D01*
X103632000Y-106224606D01*
X104610803Y-105245803D01*
X104638666Y-105203789D01*
X104648000Y-105156000D01*
X104648000Y-102362000D01*
X104637994Y-102312590D01*
X104610803Y-102272197D01*
X104287320Y-101948714D01*
X104287320Y-97078800D01*
X104277314Y-97029390D01*
X104250123Y-96988997D01*
X102914083Y-95652957D01*
X102872069Y-95625094D01*
X102824280Y-95615760D01*
X96967040Y-95615760D01*
X96917630Y-95625766D01*
X96877237Y-95652957D01*
X95536117Y-96994077D01*
X95508254Y-97036091D01*
X95498920Y-97083880D01*
X95498920Y-104112794D01*
X93636197Y-105975517D01*
X93608334Y-106017531D01*
X93599000Y-106065320D01*
X93599000Y-120904000D01*
X78994000Y-120904000D01*
X78994000Y-78994000D01*
X120904000Y-78994000D01*
X120904000Y-120904000D01*
X120904000Y-120904000D01*
G37*
X120904000Y-120904000D02*
X101346000Y-120904000D01*
X101346000Y-111633000D01*
X103505000Y-111633000D01*
X103554410Y-111622994D01*
X103596035Y-111594553D01*
X103623315Y-111552159D01*
X103632000Y-111506000D01*
X103632000Y-106224606D01*
X104610803Y-105245803D01*
X104638666Y-105203789D01*
X104648000Y-105156000D01*
X104648000Y-102362000D01*
X104637994Y-102312590D01*
X104610803Y-102272197D01*
X104287320Y-101948714D01*
X104287320Y-97078800D01*
X104277314Y-97029390D01*
X104250123Y-96988997D01*
X102914083Y-95652957D01*
X102872069Y-95625094D01*
X102824280Y-95615760D01*
X96967040Y-95615760D01*
X96917630Y-95625766D01*
X96877237Y-95652957D01*
X95536117Y-96994077D01*
X95508254Y-97036091D01*
X95498920Y-97083880D01*
X95498920Y-104112794D01*
X93636197Y-105975517D01*
X93608334Y-106017531D01*
X93599000Y-106065320D01*
X93599000Y-120904000D01*
X78994000Y-120904000D01*
X78994000Y-78994000D01*
X120904000Y-78994000D01*
X120904000Y-120904000D01*
G36*
X98806000Y-120904000D02*
X95250272Y-120904000D01*
X95270050Y-111642821D01*
X98806000Y-111633341D01*
X98806000Y-120904000D01*
X98806000Y-120904000D01*
G37*
X98806000Y-120904000D02*
X95250272Y-120904000D01*
X95270050Y-111642821D01*
X98806000Y-111633341D01*
X98806000Y-120904000D01*
M02*
