G04 #@! TF.FileFunction,Copper,L1,Top,Signal*
%FSLAX46Y46*%
G04 Gerber Fmt 4.6, Leading zero omitted, Abs format (unit mm)*
G04 Created by KiCad (PCBNEW 4.0.6-e0-6349~52~ubuntu16.10.1) date Tue Oct 17 03:14:20 2017*
%MOMM*%
%LPD*%
G01*
G04 APERTURE LIST*
%ADD10C,0.100000*%
%ADD11C,4.000000*%
%ADD12R,1.500000X1.500000*%
%ADD13R,1.600000X1.000000*%
%ADD14R,1.250000X1.000000*%
%ADD15C,2.340000*%
%ADD16R,4.200000X4.200000*%
%ADD17R,1.000000X1.000000*%
%ADD18R,2.440000X1.000000*%
%ADD19R,3.800000X1.000000*%
%ADD20R,1.000000X2.440000*%
%ADD21R,1.000000X3.800000*%
%ADD22R,0.800000X0.900000*%
%ADD23R,1.600000X1.600000*%
%ADD24C,1.600000*%
%ADD25R,1.700000X0.900000*%
%ADD26R,1.550000X0.600000*%
%ADD27R,2.500000X1.200000*%
%ADD28O,3.010000X1.510000*%
%ADD29R,1.300000X0.700000*%
%ADD30R,0.700000X1.300000*%
%ADD31R,3.800000X2.000000*%
%ADD32R,1.500000X2.000000*%
%ADD33C,1.200000*%
%ADD34C,0.300000*%
%ADD35C,0.500000*%
G04 APERTURE END LIST*
D10*
D11*
X106426000Y-186029000D03*
X114046000Y-186029000D03*
X93426000Y-186029000D03*
X85806000Y-186029000D03*
D12*
X101650000Y-134500000D03*
X98350000Y-134500000D03*
D13*
X107569000Y-129746000D03*
X107569000Y-126746000D03*
D14*
X105283000Y-128746000D03*
X105283000Y-126746000D03*
D15*
X97489000Y-150000000D03*
X99989000Y-140000000D03*
X102489000Y-150000000D03*
D16*
X99949000Y-100076000D03*
D17*
X77910000Y-77910000D03*
X122090000Y-77910000D03*
X122090000Y-122090000D03*
X77910000Y-122090000D03*
D18*
X79630000Y-77910000D03*
X79630000Y-122090000D03*
D19*
X84950000Y-77910000D03*
X84950000Y-122090000D03*
X90950000Y-77910000D03*
X90950000Y-122090000D03*
X96950000Y-77910000D03*
X96950000Y-122090000D03*
X103050000Y-77910000D03*
X103050000Y-122090000D03*
X109050000Y-77910000D03*
X109050000Y-122090000D03*
X115050000Y-77910000D03*
X115050000Y-122090000D03*
D18*
X120370000Y-77910000D03*
X120370000Y-122090000D03*
D20*
X77910000Y-79630000D03*
X122090000Y-79630000D03*
D21*
X77910000Y-84950000D03*
X122090000Y-84950000D03*
X77910000Y-90950000D03*
X122090000Y-90950000D03*
X77910000Y-96950000D03*
X122090000Y-96950000D03*
X77910000Y-103050000D03*
X122090000Y-103050000D03*
X77910000Y-109050000D03*
X122090000Y-109050000D03*
X77910000Y-115050000D03*
X122090000Y-115050000D03*
D20*
X77910000Y-120370000D03*
X122090000Y-120370000D03*
D22*
X102804000Y-103648000D03*
X100904000Y-103648000D03*
X101854000Y-105648000D03*
D23*
X100000000Y-155000000D03*
D24*
X100000000Y-162600000D03*
D22*
X99121000Y-103648000D03*
X97221000Y-103648000D03*
X98171000Y-105648000D03*
D25*
X98171000Y-107315000D03*
X98171000Y-110215000D03*
X101854000Y-107315000D03*
X101854000Y-110215000D03*
D26*
X97300000Y-126492000D03*
X97300000Y-127762000D03*
X97300000Y-129032000D03*
X97300000Y-130302000D03*
X102700000Y-130302000D03*
X102700000Y-129032000D03*
X102700000Y-127762000D03*
X102700000Y-126492000D03*
D13*
X94742000Y-168807000D03*
X94742000Y-171807000D03*
D14*
X105283000Y-168799000D03*
X105283000Y-170799000D03*
D27*
X86250000Y-160500000D03*
X91750000Y-160500000D03*
X86250000Y-155500000D03*
X91750000Y-155500000D03*
X86250000Y-158000000D03*
X91750000Y-158000000D03*
D28*
X119253000Y-150777000D03*
X119253000Y-148237000D03*
X119253000Y-145697000D03*
X119253000Y-143157000D03*
X119253000Y-140617000D03*
X119253000Y-138077000D03*
D29*
X94615000Y-126558000D03*
X94615000Y-128458000D03*
D13*
X88900000Y-148336000D03*
X88900000Y-151336000D03*
D30*
X100950000Y-136906000D03*
X99050000Y-136906000D03*
D27*
X108250000Y-160500000D03*
X113750000Y-160500000D03*
X108250000Y-155500000D03*
X113750000Y-155500000D03*
X108250000Y-158000000D03*
X113750000Y-158000000D03*
D25*
X95961200Y-107320080D03*
X95961200Y-110220080D03*
D31*
X100000000Y-166850000D03*
D32*
X100000000Y-173150000D03*
X102300000Y-173150000D03*
X97700000Y-173150000D03*
D33*
X102997000Y-120015000D03*
X108966000Y-79883000D03*
X91059000Y-79883000D03*
X120015000Y-108839000D03*
X120142000Y-91059000D03*
X80010000Y-108966000D03*
X80010000Y-91059000D03*
X97028000Y-120142000D03*
X116205000Y-138049000D03*
X105283000Y-172720000D03*
X97663000Y-175641000D03*
X97282000Y-132334000D03*
X105283000Y-124587000D03*
X120015000Y-120015000D03*
X120142000Y-79883000D03*
X79756000Y-120142000D03*
X79883000Y-80010000D03*
X102616000Y-132080000D03*
X94615000Y-129921000D03*
X111760000Y-149225000D03*
X108077000Y-149352000D03*
D34*
X102804000Y-103648000D02*
X102804000Y-103598000D01*
X102804000Y-103598000D02*
X99949000Y-100743000D01*
X99949000Y-100743000D02*
X99949000Y-100076000D01*
X122174000Y-140589000D02*
X122174000Y-135128000D01*
X122174000Y-154736002D02*
X122174000Y-140589000D01*
X122174000Y-140589000D02*
X122146000Y-140617000D01*
X122146000Y-140617000D02*
X119253000Y-140617000D01*
X122174000Y-135128000D02*
X116792000Y-129746000D01*
X116792000Y-129746000D02*
X107569000Y-129746000D01*
X100000000Y-166850000D02*
X110060002Y-166850000D01*
X110060002Y-166850000D02*
X122174000Y-154736002D01*
X105378000Y-128746000D02*
X106378000Y-129746000D01*
X106378000Y-129746000D02*
X107569000Y-129746000D01*
X105283000Y-128746000D02*
X105378000Y-128746000D01*
X105283000Y-128746000D02*
X104299000Y-127762000D01*
X104299000Y-127762000D02*
X102700000Y-127762000D01*
X102700000Y-127762000D02*
X102700000Y-126492000D01*
X119253000Y-143157000D02*
X117448000Y-143157000D01*
X117448000Y-143157000D02*
X115316000Y-141025000D01*
X103050000Y-122090000D02*
X103050000Y-120068000D01*
X103050000Y-120068000D02*
X102997000Y-120015000D01*
X109050000Y-77910000D02*
X109050000Y-79799000D01*
X109050000Y-79799000D02*
X108966000Y-79883000D01*
X90950000Y-77910000D02*
X90950000Y-79774000D01*
X90950000Y-79774000D02*
X91059000Y-79883000D01*
X122090000Y-109050000D02*
X120226000Y-109050000D01*
X120226000Y-109050000D02*
X120015000Y-108839000D01*
X122090000Y-90950000D02*
X120251000Y-90950000D01*
X120251000Y-90950000D02*
X120142000Y-91059000D01*
X77910000Y-109050000D02*
X79926000Y-109050000D01*
X79926000Y-109050000D02*
X80010000Y-108966000D01*
X77910000Y-90950000D02*
X79901000Y-90950000D01*
X79901000Y-90950000D02*
X80010000Y-91059000D01*
X96950000Y-122090000D02*
X96950000Y-120220000D01*
X96950000Y-120220000D02*
X97028000Y-120142000D01*
X119253000Y-138077000D02*
X118503000Y-138077000D01*
X118503000Y-138077000D02*
X118475000Y-138049000D01*
X118475000Y-138049000D02*
X116205000Y-138049000D01*
X115533010Y-146902010D02*
X113665000Y-145034000D01*
X121208010Y-146253990D02*
X120559990Y-146902010D01*
X120559990Y-146902010D02*
X115533010Y-146902010D01*
X119253000Y-143157000D02*
X120003000Y-143157000D01*
X120003000Y-143157000D02*
X121208010Y-144362010D01*
X121208010Y-144362010D02*
X121208010Y-146253990D01*
X105283000Y-170799000D02*
X105283000Y-172720000D01*
X97700000Y-173150000D02*
X97700000Y-175604000D01*
X97700000Y-175604000D02*
X97663000Y-175641000D01*
X97300000Y-130302000D02*
X97300000Y-132316000D01*
X97300000Y-132316000D02*
X97282000Y-132334000D01*
X105283000Y-126746000D02*
X105283000Y-124587000D01*
X122090000Y-120370000D02*
X120370000Y-120370000D01*
X120370000Y-120370000D02*
X120015000Y-120015000D01*
X120370000Y-77910000D02*
X120370000Y-79655000D01*
X120370000Y-79655000D02*
X120142000Y-79883000D01*
X79630000Y-122090000D02*
X79630000Y-120268000D01*
X79630000Y-120268000D02*
X79756000Y-120142000D01*
X77910000Y-79630000D02*
X79503000Y-79630000D01*
X79503000Y-79630000D02*
X79883000Y-80010000D01*
X94742000Y-168807000D02*
X96266000Y-168807000D01*
X96266000Y-168807000D02*
X102235000Y-168807000D01*
X91440000Y-148336000D02*
X96266000Y-153162000D01*
X96266000Y-153162000D02*
X96266000Y-168807000D01*
X88900000Y-148336000D02*
X91440000Y-148336000D01*
X90424000Y-148336000D02*
X88900000Y-148336000D01*
X98360999Y-104548001D02*
X96623277Y-104548001D01*
X96623277Y-104548001D02*
X94599999Y-106571279D01*
X94599999Y-106571279D02*
X94599999Y-124762999D01*
X88900000Y-130462998D02*
X88900000Y-148336000D01*
X94599999Y-124762999D02*
X88900000Y-130462998D01*
X102235000Y-168807000D02*
X105275000Y-168807000D01*
X102235000Y-168807000D02*
X102300000Y-168872000D01*
X102300000Y-168872000D02*
X102300000Y-173150000D01*
X105275000Y-168807000D02*
X105283000Y-168799000D01*
X100838000Y-104548001D02*
X103564001Y-104548001D01*
X100076000Y-104548001D02*
X100838000Y-104548001D01*
X100838000Y-104548001D02*
X100904000Y-104482001D01*
X100904000Y-104482001D02*
X100904000Y-103648000D01*
X98360999Y-104548001D02*
X100076000Y-104548001D01*
X100053999Y-102747999D02*
X100053999Y-104526000D01*
X100053999Y-104526000D02*
X100076000Y-104548001D01*
X98298000Y-102747999D02*
X98270999Y-102775000D01*
X98270999Y-102775000D02*
X98270999Y-104458001D01*
X98270999Y-104458001D02*
X98360999Y-104548001D01*
X102235000Y-97409000D02*
X97605998Y-97409000D01*
X103564001Y-104548001D02*
X103654001Y-104458001D01*
X103654001Y-104458001D02*
X103654001Y-102837999D01*
X103654001Y-102837999D02*
X103305002Y-102489000D01*
X97221000Y-97793998D02*
X97221000Y-103648000D01*
X103305002Y-102489000D02*
X102616000Y-102489000D01*
X102616000Y-102489000D02*
X102616000Y-97790000D01*
X102616000Y-97790000D02*
X102235000Y-97409000D01*
X97605998Y-97409000D02*
X97221000Y-97793998D01*
X98298000Y-102747999D02*
X100053999Y-102747999D01*
X97371001Y-102747999D02*
X98298000Y-102747999D01*
X97221000Y-103648000D02*
X97221000Y-102898000D01*
X97221000Y-102898000D02*
X97371001Y-102747999D01*
X100904000Y-103598000D02*
X100904000Y-103648000D01*
X100904000Y-103648000D02*
X100904000Y-103698000D01*
X101854000Y-107315000D02*
X101854000Y-108065000D01*
X101854000Y-108065000D02*
X100553999Y-109365001D01*
X100553999Y-109365001D02*
X100553999Y-126253001D01*
X100553999Y-126253001D02*
X97775000Y-129032000D01*
X97775000Y-129032000D02*
X97300000Y-129032000D01*
X101854000Y-107315000D02*
X101854000Y-105648000D01*
X102616000Y-132080000D02*
X102616000Y-131318000D01*
X102616000Y-131318000D02*
X102616000Y-130386000D01*
X119253000Y-145697000D02*
X118503000Y-145697000D01*
X118503000Y-145697000D02*
X104124000Y-131318000D01*
X104124000Y-131318000D02*
X102616000Y-131318000D01*
X102616000Y-130386000D02*
X102700000Y-130302000D01*
X94615000Y-128458000D02*
X94615000Y-129921000D01*
X87800000Y-155500000D02*
X88900000Y-155500000D01*
X88900000Y-155500000D02*
X91750000Y-155500000D01*
X88900000Y-158000000D02*
X88900000Y-155500000D01*
X86250000Y-155500000D02*
X87800000Y-155500000D01*
X88900000Y-186029000D02*
X88900000Y-158000000D01*
X93426000Y-186029000D02*
X88900000Y-186029000D01*
X85806000Y-186029000D02*
X88900000Y-186029000D01*
X109950001Y-156949999D02*
X109950001Y-150749000D01*
X109950001Y-150749000D02*
X109950001Y-141192001D01*
X119253000Y-150777000D02*
X117448000Y-150777000D01*
X117448000Y-150777000D02*
X117420000Y-150749000D01*
X117420000Y-150749000D02*
X109950001Y-150749000D01*
X99989000Y-140000000D02*
X101643629Y-140000000D01*
X101750001Y-139893628D02*
X101750001Y-135650001D01*
X101643629Y-140000000D02*
X101750001Y-139893628D01*
X101750001Y-135650001D02*
X101650000Y-135550000D01*
X101650000Y-135550000D02*
X101650000Y-134500000D01*
X109950001Y-141192001D02*
X103258000Y-134500000D01*
X103258000Y-134500000D02*
X101650000Y-134500000D01*
X108250000Y-158000000D02*
X108900000Y-158000000D01*
X108900000Y-158000000D02*
X109950001Y-156949999D01*
X102700000Y-129032000D02*
X101625000Y-129032000D01*
X101625000Y-129032000D02*
X101474999Y-129182001D01*
X101474999Y-129182001D02*
X101474999Y-133274999D01*
X101474999Y-133274999D02*
X101650000Y-133450000D01*
X101650000Y-133450000D02*
X101650000Y-134500000D01*
X111760000Y-149225000D02*
X112748000Y-148237000D01*
X112748000Y-148237000D02*
X119253000Y-148237000D01*
X102489000Y-150000000D02*
X107429000Y-150000000D01*
X107429000Y-150000000D02*
X108077000Y-149352000D01*
X94615000Y-126558000D02*
X93665000Y-126558000D01*
X93665000Y-126558000D02*
X93514999Y-126708001D01*
X93514999Y-126708001D02*
X93514999Y-141025999D01*
X93514999Y-141025999D02*
X101319001Y-148830001D01*
X101319001Y-148830001D02*
X102489000Y-150000000D01*
X97300000Y-126492000D02*
X94681000Y-126492000D01*
X94681000Y-126492000D02*
X94615000Y-126558000D01*
X97300000Y-126492000D02*
X96825000Y-126492000D01*
X98171000Y-107315000D02*
X95966280Y-107315000D01*
X95966280Y-107315000D02*
X95961200Y-107320080D01*
X98171000Y-107315000D02*
X98571000Y-107315000D01*
X97775000Y-127762000D02*
X97300000Y-127762000D01*
X98571000Y-107315000D02*
X99471001Y-108215001D01*
X99471001Y-108215001D02*
X99471001Y-126065999D01*
X99471001Y-126065999D02*
X97775000Y-127762000D01*
X98171000Y-107315000D02*
X98171000Y-105648000D01*
X108250000Y-155500000D02*
X100500000Y-155500000D01*
X100500000Y-155500000D02*
X100000000Y-155000000D01*
X99314000Y-135382000D02*
X99726000Y-135382000D01*
X99726000Y-135382000D02*
X100950000Y-136606000D01*
X100950000Y-136606000D02*
X100950000Y-136906000D01*
X98432000Y-134500000D02*
X99314000Y-135382000D01*
X98350000Y-134500000D02*
X98432000Y-134500000D01*
X82296000Y-152908000D02*
X83868000Y-151336000D01*
X83868000Y-151336000D02*
X88900000Y-151336000D01*
X82296000Y-155596000D02*
X82296000Y-152908000D01*
X86250000Y-158000000D02*
X84700000Y-158000000D01*
X84700000Y-158000000D02*
X82296000Y-155596000D01*
X91750000Y-158000000D02*
X92400000Y-158000000D01*
D35*
G36*
X82329405Y-76928513D02*
X82200000Y-77240924D01*
X82200000Y-77647500D01*
X82412500Y-77860000D01*
X84900000Y-77860000D01*
X84900000Y-77840000D01*
X85000000Y-77840000D01*
X85000000Y-77860000D01*
X87487500Y-77860000D01*
X87700000Y-77647500D01*
X87700000Y-77240924D01*
X87570595Y-76928513D01*
X87513082Y-76871000D01*
X88386918Y-76871000D01*
X88329405Y-76928513D01*
X88200000Y-77240924D01*
X88200000Y-77647500D01*
X88412500Y-77860000D01*
X90900000Y-77860000D01*
X90900000Y-77840000D01*
X91000000Y-77840000D01*
X91000000Y-77860000D01*
X93487500Y-77860000D01*
X93700000Y-77647500D01*
X93700000Y-77240924D01*
X93570595Y-76928513D01*
X93513082Y-76871000D01*
X94386918Y-76871000D01*
X94329405Y-76928513D01*
X94200000Y-77240924D01*
X94200000Y-77647500D01*
X94412500Y-77860000D01*
X96900000Y-77860000D01*
X96900000Y-77840000D01*
X97000000Y-77840000D01*
X97000000Y-77860000D01*
X99487500Y-77860000D01*
X99700000Y-77647500D01*
X99700000Y-77240924D01*
X99570595Y-76928513D01*
X99513082Y-76871000D01*
X100486918Y-76871000D01*
X100429405Y-76928513D01*
X100300000Y-77240924D01*
X100300000Y-77647500D01*
X100512500Y-77860000D01*
X103000000Y-77860000D01*
X103000000Y-77840000D01*
X103100000Y-77840000D01*
X103100000Y-77860000D01*
X105587500Y-77860000D01*
X105800000Y-77647500D01*
X105800000Y-77240924D01*
X105670595Y-76928513D01*
X105613082Y-76871000D01*
X106486918Y-76871000D01*
X106429405Y-76928513D01*
X106300000Y-77240924D01*
X106300000Y-77647500D01*
X106512500Y-77860000D01*
X109000000Y-77860000D01*
X109000000Y-77840000D01*
X109100000Y-77840000D01*
X109100000Y-77860000D01*
X111587500Y-77860000D01*
X111800000Y-77647500D01*
X111800000Y-77240924D01*
X111670595Y-76928513D01*
X111613082Y-76871000D01*
X112486918Y-76871000D01*
X112429405Y-76928513D01*
X112300000Y-77240924D01*
X112300000Y-77647500D01*
X112512500Y-77860000D01*
X115000000Y-77860000D01*
X115000000Y-77840000D01*
X115100000Y-77840000D01*
X115100000Y-77860000D01*
X117587500Y-77860000D01*
X117800000Y-77647500D01*
X117800000Y-77240924D01*
X117670595Y-76928513D01*
X117613082Y-76871000D01*
X118486918Y-76871000D01*
X118429405Y-76928513D01*
X118300000Y-77240924D01*
X118300000Y-77647500D01*
X118512500Y-77860000D01*
X120320000Y-77860000D01*
X120320000Y-77840000D01*
X120420000Y-77840000D01*
X120420000Y-77860000D01*
X120440000Y-77860000D01*
X120440000Y-77960000D01*
X120420000Y-77960000D01*
X120420000Y-79047500D01*
X120632500Y-79260000D01*
X120740000Y-79260000D01*
X120740000Y-79367500D01*
X120952500Y-79580000D01*
X122040000Y-79580000D01*
X122040000Y-79560000D01*
X122140000Y-79560000D01*
X122140000Y-79580000D01*
X122160000Y-79580000D01*
X122160000Y-79680000D01*
X122140000Y-79680000D01*
X122140000Y-81487500D01*
X122352500Y-81700000D01*
X122759075Y-81700000D01*
X123071486Y-81570595D01*
X123281000Y-81361082D01*
X123281000Y-82538918D01*
X123071486Y-82329405D01*
X122759075Y-82200000D01*
X122352500Y-82200000D01*
X122140000Y-82412500D01*
X122140000Y-84900000D01*
X122160000Y-84900000D01*
X122160000Y-85000000D01*
X122140000Y-85000000D01*
X122140000Y-87487500D01*
X122352500Y-87700000D01*
X122759075Y-87700000D01*
X123071486Y-87570595D01*
X123281000Y-87361082D01*
X123281000Y-88538918D01*
X123071486Y-88329405D01*
X122759075Y-88200000D01*
X122352500Y-88200000D01*
X122140000Y-88412500D01*
X122140000Y-90900000D01*
X122160000Y-90900000D01*
X122160000Y-91000000D01*
X122140000Y-91000000D01*
X122140000Y-93487500D01*
X122352500Y-93700000D01*
X122759075Y-93700000D01*
X123071486Y-93570595D01*
X123281000Y-93361082D01*
X123281000Y-94538918D01*
X123071486Y-94329405D01*
X122759075Y-94200000D01*
X122352500Y-94200000D01*
X122140000Y-94412500D01*
X122140000Y-96900000D01*
X122160000Y-96900000D01*
X122160000Y-97000000D01*
X122140000Y-97000000D01*
X122140000Y-99487500D01*
X122352500Y-99700000D01*
X122759075Y-99700000D01*
X123071486Y-99570595D01*
X123281000Y-99361082D01*
X123281000Y-100638918D01*
X123071486Y-100429405D01*
X122759075Y-100300000D01*
X122352500Y-100300000D01*
X122140000Y-100512500D01*
X122140000Y-103000000D01*
X122160000Y-103000000D01*
X122160000Y-103100000D01*
X122140000Y-103100000D01*
X122140000Y-105587500D01*
X122352500Y-105800000D01*
X122759075Y-105800000D01*
X123071486Y-105670595D01*
X123281000Y-105461082D01*
X123281000Y-106638918D01*
X123071486Y-106429405D01*
X122759075Y-106300000D01*
X122352500Y-106300000D01*
X122140000Y-106512500D01*
X122140000Y-109000000D01*
X122160000Y-109000000D01*
X122160000Y-109100000D01*
X122140000Y-109100000D01*
X122140000Y-111587500D01*
X122352500Y-111800000D01*
X122759075Y-111800000D01*
X123071486Y-111670595D01*
X123281000Y-111461082D01*
X123281000Y-112638918D01*
X123071486Y-112429405D01*
X122759075Y-112300000D01*
X122352500Y-112300000D01*
X122140000Y-112512500D01*
X122140000Y-115000000D01*
X122160000Y-115000000D01*
X122160000Y-115100000D01*
X122140000Y-115100000D01*
X122140000Y-117587500D01*
X122352500Y-117800000D01*
X122759075Y-117800000D01*
X123071486Y-117670595D01*
X123281000Y-117461082D01*
X123281000Y-118638918D01*
X123071486Y-118429405D01*
X122759075Y-118300000D01*
X122352500Y-118300000D01*
X122140000Y-118512500D01*
X122140000Y-120320000D01*
X122160000Y-120320000D01*
X122160000Y-120420000D01*
X122140000Y-120420000D01*
X122140000Y-120440000D01*
X122040000Y-120440000D01*
X122040000Y-120420000D01*
X120952500Y-120420000D01*
X120740000Y-120632500D01*
X120740000Y-120740000D01*
X120632500Y-120740000D01*
X120420000Y-120952500D01*
X120420000Y-122040000D01*
X120440000Y-122040000D01*
X120440000Y-122140000D01*
X120420000Y-122140000D01*
X120420000Y-123227500D01*
X120632500Y-123440000D01*
X121827500Y-123440000D01*
X121875884Y-123391616D01*
X122071486Y-123310595D01*
X122147291Y-123234791D01*
X122352500Y-123440000D01*
X122759075Y-123440000D01*
X123071486Y-123310595D01*
X123281000Y-123101082D01*
X123281000Y-191640852D01*
X119631852Y-195290000D01*
X80520148Y-195290000D01*
X76998000Y-191767852D01*
X76998000Y-178562000D01*
X80141000Y-178562000D01*
X80141000Y-193548000D01*
X80158097Y-193638864D01*
X80211798Y-193722318D01*
X80293736Y-193778304D01*
X80391000Y-193798000D01*
X98044000Y-193798000D01*
X98134864Y-193780903D01*
X98218318Y-193727202D01*
X98274304Y-193645264D01*
X98294000Y-193548000D01*
X98294000Y-187968503D01*
X104557208Y-187968503D01*
X104758697Y-188408911D01*
X105796365Y-188865801D01*
X106929890Y-188890812D01*
X107986701Y-188480140D01*
X108093303Y-188408911D01*
X108294792Y-187968503D01*
X112177208Y-187968503D01*
X112378697Y-188408911D01*
X113416365Y-188865801D01*
X114549890Y-188890812D01*
X115606701Y-188480140D01*
X115713303Y-188408911D01*
X115914792Y-187968503D01*
X114046000Y-186099711D01*
X112177208Y-187968503D01*
X108294792Y-187968503D01*
X106426000Y-186099711D01*
X104557208Y-187968503D01*
X98294000Y-187968503D01*
X98294000Y-186532890D01*
X103564188Y-186532890D01*
X103974860Y-187589701D01*
X104046089Y-187696303D01*
X104486497Y-187897792D01*
X106355289Y-186029000D01*
X106496711Y-186029000D01*
X108365503Y-187897792D01*
X108805911Y-187696303D01*
X109262801Y-186658635D01*
X109265575Y-186532890D01*
X111184188Y-186532890D01*
X111594860Y-187589701D01*
X111666089Y-187696303D01*
X112106497Y-187897792D01*
X113975289Y-186029000D01*
X114116711Y-186029000D01*
X115985503Y-187897792D01*
X116425911Y-187696303D01*
X116882801Y-186658635D01*
X116907812Y-185525110D01*
X116497140Y-184468299D01*
X116425911Y-184361697D01*
X115985503Y-184160208D01*
X114116711Y-186029000D01*
X113975289Y-186029000D01*
X112106497Y-184160208D01*
X111666089Y-184361697D01*
X111209199Y-185399365D01*
X111184188Y-186532890D01*
X109265575Y-186532890D01*
X109287812Y-185525110D01*
X108877140Y-184468299D01*
X108805911Y-184361697D01*
X108365503Y-184160208D01*
X106496711Y-186029000D01*
X106355289Y-186029000D01*
X104486497Y-184160208D01*
X104046089Y-184361697D01*
X103589199Y-185399365D01*
X103564188Y-186532890D01*
X98294000Y-186532890D01*
X98294000Y-184089497D01*
X104557208Y-184089497D01*
X106426000Y-185958289D01*
X108294792Y-184089497D01*
X112177208Y-184089497D01*
X114046000Y-185958289D01*
X115914792Y-184089497D01*
X115713303Y-183649089D01*
X114675635Y-183192199D01*
X113542110Y-183167188D01*
X112485299Y-183577860D01*
X112378697Y-183649089D01*
X112177208Y-184089497D01*
X108294792Y-184089497D01*
X108093303Y-183649089D01*
X107055635Y-183192199D01*
X105922110Y-183167188D01*
X104865299Y-183577860D01*
X104758697Y-183649089D01*
X104557208Y-184089497D01*
X98294000Y-184089497D01*
X98294000Y-178562000D01*
X98276903Y-178471136D01*
X98223202Y-178387682D01*
X98141264Y-178331696D01*
X98044000Y-178312000D01*
X89900000Y-178312000D01*
X89900000Y-173412500D01*
X96100000Y-173412500D01*
X96100000Y-174319075D01*
X96229405Y-174631486D01*
X96468513Y-174870595D01*
X96780924Y-175000000D01*
X97437500Y-175000000D01*
X97650000Y-174787500D01*
X97650000Y-173200000D01*
X96312500Y-173200000D01*
X96100000Y-173412500D01*
X89900000Y-173412500D01*
X89900000Y-172069500D01*
X93092000Y-172069500D01*
X93092000Y-172476075D01*
X93221405Y-172788486D01*
X93460513Y-173027595D01*
X93772924Y-173157000D01*
X94479500Y-173157000D01*
X94692000Y-172944500D01*
X94692000Y-171857000D01*
X93304500Y-171857000D01*
X93092000Y-172069500D01*
X89900000Y-172069500D01*
X89900000Y-171137925D01*
X93092000Y-171137925D01*
X93092000Y-171544500D01*
X93304500Y-171757000D01*
X94692000Y-171757000D01*
X94692000Y-170669500D01*
X94792000Y-170669500D01*
X94792000Y-171757000D01*
X94812000Y-171757000D01*
X94812000Y-171857000D01*
X94792000Y-171857000D01*
X94792000Y-172944500D01*
X95004500Y-173157000D01*
X95711076Y-173157000D01*
X96023487Y-173027595D01*
X96131791Y-172919291D01*
X96312500Y-173100000D01*
X97650000Y-173100000D01*
X97650000Y-171512500D01*
X97437500Y-171300000D01*
X96780924Y-171300000D01*
X96468513Y-171429405D01*
X96392000Y-171505918D01*
X96392000Y-171137925D01*
X96262595Y-170825514D01*
X96023487Y-170586405D01*
X95711076Y-170457000D01*
X95004500Y-170457000D01*
X94792000Y-170669500D01*
X94692000Y-170669500D01*
X94479500Y-170457000D01*
X93772924Y-170457000D01*
X93460513Y-170586405D01*
X93221405Y-170825514D01*
X93092000Y-171137925D01*
X89900000Y-171137925D01*
X89900000Y-161702082D01*
X90018513Y-161820595D01*
X90330924Y-161950000D01*
X91487500Y-161950000D01*
X91700000Y-161737500D01*
X91700000Y-160550000D01*
X91800000Y-160550000D01*
X91800000Y-161737500D01*
X92012500Y-161950000D01*
X93169076Y-161950000D01*
X93481487Y-161820595D01*
X93720595Y-161581486D01*
X93850000Y-161269075D01*
X93850000Y-160762500D01*
X93637500Y-160550000D01*
X91800000Y-160550000D01*
X91700000Y-160550000D01*
X91680000Y-160550000D01*
X91680000Y-160450000D01*
X91700000Y-160450000D01*
X91700000Y-160430000D01*
X91800000Y-160430000D01*
X91800000Y-160450000D01*
X93637500Y-160450000D01*
X93850000Y-160237500D01*
X93850000Y-159730925D01*
X93720595Y-159418514D01*
X93555014Y-159252932D01*
X93604291Y-159221223D01*
X93798372Y-158937176D01*
X93866652Y-158600000D01*
X93866652Y-157400000D01*
X93807382Y-157085009D01*
X93621223Y-156795709D01*
X93556869Y-156751738D01*
X93604291Y-156721223D01*
X93798372Y-156437176D01*
X93866652Y-156100000D01*
X93866652Y-154900000D01*
X93807382Y-154585009D01*
X93621223Y-154295709D01*
X93337176Y-154101628D01*
X93000000Y-154033348D01*
X90500000Y-154033348D01*
X90185009Y-154092618D01*
X89895709Y-154278777D01*
X89744554Y-154500000D01*
X88252680Y-154500000D01*
X88121223Y-154295709D01*
X87837176Y-154101628D01*
X87500000Y-154033348D01*
X85000000Y-154033348D01*
X84685009Y-154092618D01*
X84395709Y-154278777D01*
X84201628Y-154562824D01*
X84133348Y-154900000D01*
X84133348Y-156019134D01*
X83296000Y-155181786D01*
X83296000Y-153322214D01*
X84282214Y-152336000D01*
X87411668Y-152336000D01*
X87478777Y-152440291D01*
X87762824Y-152634372D01*
X88100000Y-152702652D01*
X89700000Y-152702652D01*
X90014991Y-152643382D01*
X90304291Y-152457223D01*
X90498372Y-152173176D01*
X90566652Y-151836000D01*
X90566652Y-150836000D01*
X90507382Y-150521009D01*
X90321223Y-150231709D01*
X90037176Y-150037628D01*
X89700000Y-149969348D01*
X88100000Y-149969348D01*
X87785009Y-150028618D01*
X87495709Y-150214777D01*
X87412881Y-150336000D01*
X83868005Y-150336000D01*
X83868000Y-150335999D01*
X83485316Y-150412120D01*
X83160893Y-150628893D01*
X81588893Y-152200893D01*
X81372120Y-152525316D01*
X81296000Y-152908000D01*
X81296000Y-155596000D01*
X81372120Y-155978684D01*
X81588893Y-156303107D01*
X83992891Y-158707104D01*
X83992893Y-158707107D01*
X84176598Y-158829855D01*
X84192618Y-158914991D01*
X84378777Y-159204291D01*
X84447007Y-159250911D01*
X84279405Y-159418514D01*
X84150000Y-159730925D01*
X84150000Y-160237500D01*
X84362500Y-160450000D01*
X86200000Y-160450000D01*
X86200000Y-160430000D01*
X86300000Y-160430000D01*
X86300000Y-160450000D01*
X86320000Y-160450000D01*
X86320000Y-160550000D01*
X86300000Y-160550000D01*
X86300000Y-161737500D01*
X86512500Y-161950000D01*
X87669076Y-161950000D01*
X87900000Y-161854348D01*
X87900000Y-178312000D01*
X80391000Y-178312000D01*
X80300136Y-178329097D01*
X80216682Y-178382798D01*
X80160696Y-178464736D01*
X80141000Y-178562000D01*
X76998000Y-178562000D01*
X76998000Y-160762500D01*
X84150000Y-160762500D01*
X84150000Y-161269075D01*
X84279405Y-161581486D01*
X84518513Y-161820595D01*
X84830924Y-161950000D01*
X85987500Y-161950000D01*
X86200000Y-161737500D01*
X86200000Y-160550000D01*
X84362500Y-160550000D01*
X84150000Y-160762500D01*
X76998000Y-160762500D01*
X76998000Y-147836000D01*
X87233348Y-147836000D01*
X87233348Y-148836000D01*
X87292618Y-149150991D01*
X87478777Y-149440291D01*
X87762824Y-149634372D01*
X88100000Y-149702652D01*
X89700000Y-149702652D01*
X90014991Y-149643382D01*
X90304291Y-149457223D01*
X90387119Y-149336000D01*
X91025786Y-149336000D01*
X95266000Y-153576214D01*
X95266000Y-167440348D01*
X93942000Y-167440348D01*
X93627009Y-167499618D01*
X93337709Y-167685777D01*
X93143628Y-167969824D01*
X93075348Y-168307000D01*
X93075348Y-169307000D01*
X93134618Y-169621991D01*
X93320777Y-169911291D01*
X93604824Y-170105372D01*
X93942000Y-170173652D01*
X95542000Y-170173652D01*
X95856991Y-170114382D01*
X96146291Y-169928223D01*
X96229119Y-169807000D01*
X101300000Y-169807000D01*
X101300000Y-171330389D01*
X101235009Y-171342618D01*
X101152085Y-171395978D01*
X101087176Y-171351628D01*
X100750000Y-171283348D01*
X99250000Y-171283348D01*
X98935009Y-171342618D01*
X98851577Y-171396305D01*
X98619076Y-171300000D01*
X97962500Y-171300000D01*
X97750000Y-171512500D01*
X97750000Y-173100000D01*
X97770000Y-173100000D01*
X97770000Y-173200000D01*
X97750000Y-173200000D01*
X97750000Y-174787500D01*
X97962500Y-175000000D01*
X98619076Y-175000000D01*
X98848999Y-174904763D01*
X98912824Y-174948372D01*
X99250000Y-175016652D01*
X100750000Y-175016652D01*
X101064991Y-174957382D01*
X101147915Y-174904022D01*
X101212824Y-174948372D01*
X101550000Y-175016652D01*
X103050000Y-175016652D01*
X103364991Y-174957382D01*
X103654291Y-174771223D01*
X103848372Y-174487176D01*
X103916652Y-174150000D01*
X103916652Y-172150000D01*
X103857382Y-171835009D01*
X103671223Y-171545709D01*
X103387176Y-171351628D01*
X103300000Y-171333974D01*
X103300000Y-171061500D01*
X103808000Y-171061500D01*
X103808000Y-171468075D01*
X103937405Y-171780486D01*
X104176513Y-172019595D01*
X104488924Y-172149000D01*
X105020500Y-172149000D01*
X105233000Y-171936500D01*
X105233000Y-170849000D01*
X105333000Y-170849000D01*
X105333000Y-171936500D01*
X105545500Y-172149000D01*
X106077076Y-172149000D01*
X106389487Y-172019595D01*
X106628595Y-171780486D01*
X106758000Y-171468075D01*
X106758000Y-171061500D01*
X106545500Y-170849000D01*
X105333000Y-170849000D01*
X105233000Y-170849000D01*
X104020500Y-170849000D01*
X103808000Y-171061500D01*
X103300000Y-171061500D01*
X103300000Y-169807000D01*
X103947919Y-169807000D01*
X103937405Y-169817514D01*
X103808000Y-170129925D01*
X103808000Y-170536500D01*
X104020500Y-170749000D01*
X105233000Y-170749000D01*
X105233000Y-170729000D01*
X105333000Y-170729000D01*
X105333000Y-170749000D01*
X106545500Y-170749000D01*
X106758000Y-170536500D01*
X106758000Y-170129925D01*
X106628595Y-169817514D01*
X106601192Y-169790111D01*
X106706372Y-169636176D01*
X106774652Y-169299000D01*
X106774652Y-168299000D01*
X106715382Y-167984009D01*
X106629150Y-167850000D01*
X110060002Y-167850000D01*
X110442686Y-167773880D01*
X110767109Y-167557107D01*
X122881107Y-155443109D01*
X122921482Y-155382684D01*
X123097880Y-155118685D01*
X123174000Y-154736002D01*
X123174000Y-135128000D01*
X123097880Y-134745317D01*
X122881107Y-134420893D01*
X117499107Y-129038893D01*
X117174684Y-128822120D01*
X116792000Y-128746000D01*
X109057332Y-128746000D01*
X108990223Y-128641709D01*
X108706176Y-128447628D01*
X108369000Y-128379348D01*
X106774652Y-128379348D01*
X106774652Y-128246000D01*
X106746427Y-128096000D01*
X107306500Y-128096000D01*
X107519000Y-127883500D01*
X107519000Y-126796000D01*
X107619000Y-126796000D01*
X107619000Y-127883500D01*
X107831500Y-128096000D01*
X108538076Y-128096000D01*
X108850487Y-127966595D01*
X109089595Y-127727486D01*
X109219000Y-127415075D01*
X109219000Y-127008500D01*
X109006500Y-126796000D01*
X107619000Y-126796000D01*
X107519000Y-126796000D01*
X105333000Y-126796000D01*
X105333000Y-126816000D01*
X105233000Y-126816000D01*
X105233000Y-126796000D01*
X105213000Y-126796000D01*
X105213000Y-126696000D01*
X105233000Y-126696000D01*
X105233000Y-125608500D01*
X105333000Y-125608500D01*
X105333000Y-126696000D01*
X107519000Y-126696000D01*
X107519000Y-125608500D01*
X107619000Y-125608500D01*
X107619000Y-126696000D01*
X109006500Y-126696000D01*
X109219000Y-126483500D01*
X109219000Y-126076925D01*
X109089595Y-125764514D01*
X108850487Y-125525405D01*
X108538076Y-125396000D01*
X107831500Y-125396000D01*
X107619000Y-125608500D01*
X107519000Y-125608500D01*
X107306500Y-125396000D01*
X106599924Y-125396000D01*
X106338500Y-125504285D01*
X106077076Y-125396000D01*
X105545500Y-125396000D01*
X105333000Y-125608500D01*
X105233000Y-125608500D01*
X105020500Y-125396000D01*
X104488924Y-125396000D01*
X104176513Y-125525405D01*
X104103265Y-125598653D01*
X104096223Y-125587709D01*
X103812176Y-125393628D01*
X103475000Y-125325348D01*
X101925000Y-125325348D01*
X101610009Y-125384618D01*
X101553999Y-125420659D01*
X101553999Y-123440000D01*
X102787500Y-123440000D01*
X103000000Y-123227500D01*
X103000000Y-122140000D01*
X103100000Y-122140000D01*
X103100000Y-123227500D01*
X103312500Y-123440000D01*
X105119075Y-123440000D01*
X105431486Y-123310595D01*
X105670595Y-123071487D01*
X105800000Y-122759076D01*
X105800000Y-122352500D01*
X106300000Y-122352500D01*
X106300000Y-122759076D01*
X106429405Y-123071487D01*
X106668514Y-123310595D01*
X106980925Y-123440000D01*
X108787500Y-123440000D01*
X109000000Y-123227500D01*
X109000000Y-122140000D01*
X109100000Y-122140000D01*
X109100000Y-123227500D01*
X109312500Y-123440000D01*
X111119075Y-123440000D01*
X111431486Y-123310595D01*
X111670595Y-123071487D01*
X111800000Y-122759076D01*
X111800000Y-122352500D01*
X112300000Y-122352500D01*
X112300000Y-122759076D01*
X112429405Y-123071487D01*
X112668514Y-123310595D01*
X112980925Y-123440000D01*
X114787500Y-123440000D01*
X115000000Y-123227500D01*
X115000000Y-122140000D01*
X115100000Y-122140000D01*
X115100000Y-123227500D01*
X115312500Y-123440000D01*
X117119075Y-123440000D01*
X117431486Y-123310595D01*
X117670595Y-123071487D01*
X117800000Y-122759076D01*
X117800000Y-122352500D01*
X118300000Y-122352500D01*
X118300000Y-122759076D01*
X118429405Y-123071487D01*
X118668514Y-123310595D01*
X118980925Y-123440000D01*
X120107500Y-123440000D01*
X120320000Y-123227500D01*
X120320000Y-122140000D01*
X118512500Y-122140000D01*
X118300000Y-122352500D01*
X117800000Y-122352500D01*
X117587500Y-122140000D01*
X115100000Y-122140000D01*
X115000000Y-122140000D01*
X112512500Y-122140000D01*
X112300000Y-122352500D01*
X111800000Y-122352500D01*
X111587500Y-122140000D01*
X109100000Y-122140000D01*
X109000000Y-122140000D01*
X106512500Y-122140000D01*
X106300000Y-122352500D01*
X105800000Y-122352500D01*
X105587500Y-122140000D01*
X103100000Y-122140000D01*
X103000000Y-122140000D01*
X102980000Y-122140000D01*
X102980000Y-122040000D01*
X103000000Y-122040000D01*
X103000000Y-120952500D01*
X103100000Y-120952500D01*
X103100000Y-122040000D01*
X105587500Y-122040000D01*
X105800000Y-121827500D01*
X105800000Y-121420924D01*
X106300000Y-121420924D01*
X106300000Y-121827500D01*
X106512500Y-122040000D01*
X109000000Y-122040000D01*
X109000000Y-120952500D01*
X109100000Y-120952500D01*
X109100000Y-122040000D01*
X111587500Y-122040000D01*
X111800000Y-121827500D01*
X111800000Y-121420924D01*
X112300000Y-121420924D01*
X112300000Y-121827500D01*
X112512500Y-122040000D01*
X115000000Y-122040000D01*
X115000000Y-120952500D01*
X115100000Y-120952500D01*
X115100000Y-122040000D01*
X117587500Y-122040000D01*
X117800000Y-121827500D01*
X117800000Y-121420924D01*
X118300000Y-121420924D01*
X118300000Y-121827500D01*
X118512500Y-122040000D01*
X120320000Y-122040000D01*
X120320000Y-120952500D01*
X120107500Y-120740000D01*
X118980925Y-120740000D01*
X118668514Y-120869405D01*
X118429405Y-121108513D01*
X118300000Y-121420924D01*
X117800000Y-121420924D01*
X117670595Y-121108513D01*
X117431486Y-120869405D01*
X117119075Y-120740000D01*
X115312500Y-120740000D01*
X115100000Y-120952500D01*
X115000000Y-120952500D01*
X114787500Y-120740000D01*
X112980925Y-120740000D01*
X112668514Y-120869405D01*
X112429405Y-121108513D01*
X112300000Y-121420924D01*
X111800000Y-121420924D01*
X111670595Y-121108513D01*
X111431486Y-120869405D01*
X111119075Y-120740000D01*
X109312500Y-120740000D01*
X109100000Y-120952500D01*
X109000000Y-120952500D01*
X108787500Y-120740000D01*
X106980925Y-120740000D01*
X106668514Y-120869405D01*
X106429405Y-121108513D01*
X106300000Y-121420924D01*
X105800000Y-121420924D01*
X105670595Y-121108513D01*
X105431486Y-120869405D01*
X105119075Y-120740000D01*
X103312500Y-120740000D01*
X103100000Y-120952500D01*
X103000000Y-120952500D01*
X102787500Y-120740000D01*
X101553999Y-120740000D01*
X101553999Y-118980924D01*
X120740000Y-118980924D01*
X120740000Y-120107500D01*
X120952500Y-120320000D01*
X122040000Y-120320000D01*
X122040000Y-118512500D01*
X121827500Y-118300000D01*
X121420925Y-118300000D01*
X121108514Y-118429405D01*
X120869405Y-118668513D01*
X120740000Y-118980924D01*
X101553999Y-118980924D01*
X101553999Y-115312500D01*
X120740000Y-115312500D01*
X120740000Y-117119076D01*
X120869405Y-117431487D01*
X121108514Y-117670595D01*
X121420925Y-117800000D01*
X121827500Y-117800000D01*
X122040000Y-117587500D01*
X122040000Y-115100000D01*
X120952500Y-115100000D01*
X120740000Y-115312500D01*
X101553999Y-115312500D01*
X101553999Y-112980924D01*
X120740000Y-112980924D01*
X120740000Y-114787500D01*
X120952500Y-115000000D01*
X122040000Y-115000000D01*
X122040000Y-112512500D01*
X121827500Y-112300000D01*
X121420925Y-112300000D01*
X121108514Y-112429405D01*
X120869405Y-112668513D01*
X120740000Y-112980924D01*
X101553999Y-112980924D01*
X101553999Y-111515000D01*
X101591500Y-111515000D01*
X101804000Y-111302500D01*
X101804000Y-110265000D01*
X101904000Y-110265000D01*
X101904000Y-111302500D01*
X102116500Y-111515000D01*
X102873076Y-111515000D01*
X103185487Y-111385595D01*
X103424595Y-111146486D01*
X103554000Y-110834075D01*
X103554000Y-110477500D01*
X103341500Y-110265000D01*
X101904000Y-110265000D01*
X101804000Y-110265000D01*
X101784000Y-110265000D01*
X101784000Y-110165000D01*
X101804000Y-110165000D01*
X101804000Y-110145000D01*
X101904000Y-110145000D01*
X101904000Y-110165000D01*
X103341500Y-110165000D01*
X103554000Y-109952500D01*
X103554000Y-109595925D01*
X103436602Y-109312500D01*
X120740000Y-109312500D01*
X120740000Y-111119076D01*
X120869405Y-111431487D01*
X121108514Y-111670595D01*
X121420925Y-111800000D01*
X121827500Y-111800000D01*
X122040000Y-111587500D01*
X122040000Y-109100000D01*
X120952500Y-109100000D01*
X120740000Y-109312500D01*
X103436602Y-109312500D01*
X103424595Y-109283514D01*
X103185487Y-109044405D01*
X102873076Y-108915000D01*
X102418214Y-108915000D01*
X102561107Y-108772107D01*
X102654956Y-108631652D01*
X102704000Y-108631652D01*
X103018991Y-108572382D01*
X103308291Y-108386223D01*
X103502372Y-108102176D01*
X103570652Y-107765000D01*
X103570652Y-106980924D01*
X120740000Y-106980924D01*
X120740000Y-108787500D01*
X120952500Y-109000000D01*
X122040000Y-109000000D01*
X122040000Y-106512500D01*
X121827500Y-106300000D01*
X121420925Y-106300000D01*
X121108514Y-106429405D01*
X120869405Y-106668513D01*
X120740000Y-106980924D01*
X103570652Y-106980924D01*
X103570652Y-106865000D01*
X103511382Y-106550009D01*
X103325223Y-106260709D01*
X103116573Y-106118144D01*
X103120652Y-106098000D01*
X103120652Y-105683963D01*
X105158941Y-105659983D01*
X105246864Y-105642903D01*
X105330318Y-105589202D01*
X105386304Y-105507264D01*
X105406000Y-105410000D01*
X105406000Y-103312500D01*
X120740000Y-103312500D01*
X120740000Y-105119076D01*
X120869405Y-105431487D01*
X121108514Y-105670595D01*
X121420925Y-105800000D01*
X121827500Y-105800000D01*
X122040000Y-105587500D01*
X122040000Y-103100000D01*
X120952500Y-103100000D01*
X120740000Y-103312500D01*
X105406000Y-103312500D01*
X105406000Y-100980924D01*
X120740000Y-100980924D01*
X120740000Y-102787500D01*
X120952500Y-103000000D01*
X122040000Y-103000000D01*
X122040000Y-100512500D01*
X121827500Y-100300000D01*
X121420925Y-100300000D01*
X121108514Y-100429405D01*
X120869405Y-100668513D01*
X120740000Y-100980924D01*
X105406000Y-100980924D01*
X105406000Y-97212500D01*
X120740000Y-97212500D01*
X120740000Y-99019076D01*
X120869405Y-99331487D01*
X121108514Y-99570595D01*
X121420925Y-99700000D01*
X121827500Y-99700000D01*
X122040000Y-99487500D01*
X122040000Y-97000000D01*
X120952500Y-97000000D01*
X120740000Y-97212500D01*
X105406000Y-97212500D01*
X105406000Y-94880924D01*
X120740000Y-94880924D01*
X120740000Y-96687500D01*
X120952500Y-96900000D01*
X122040000Y-96900000D01*
X122040000Y-94412500D01*
X121827500Y-94200000D01*
X121420925Y-94200000D01*
X121108514Y-94329405D01*
X120869405Y-94568513D01*
X120740000Y-94880924D01*
X105406000Y-94880924D01*
X105406000Y-94488000D01*
X105388903Y-94397136D01*
X105335202Y-94313682D01*
X105253264Y-94257696D01*
X105156000Y-94238000D01*
X95379433Y-94238000D01*
X94492888Y-94220664D01*
X94397136Y-94237713D01*
X94313682Y-94291414D01*
X94257696Y-94373352D01*
X94238000Y-94470616D01*
X94238000Y-105519064D01*
X93892892Y-105864172D01*
X93676119Y-106188595D01*
X93676119Y-106188596D01*
X93599999Y-106571279D01*
X93599999Y-121179500D01*
X93570595Y-121108513D01*
X93331486Y-120869405D01*
X93019075Y-120740000D01*
X91212500Y-120740000D01*
X91000000Y-120952500D01*
X91000000Y-122040000D01*
X91020000Y-122040000D01*
X91020000Y-122140000D01*
X91000000Y-122140000D01*
X91000000Y-123227500D01*
X91212500Y-123440000D01*
X93019075Y-123440000D01*
X93331486Y-123310595D01*
X93570595Y-123071487D01*
X93599999Y-123000500D01*
X93599999Y-124348785D01*
X88192893Y-129755891D01*
X87976120Y-130080314D01*
X87928842Y-130318000D01*
X87900000Y-130462998D01*
X87900000Y-147006981D01*
X87785009Y-147028618D01*
X87495709Y-147214777D01*
X87301628Y-147498824D01*
X87233348Y-147836000D01*
X76998000Y-147836000D01*
X76998000Y-123339377D01*
X77240925Y-123440000D01*
X77647500Y-123440000D01*
X77852709Y-123234791D01*
X77928514Y-123310595D01*
X78124116Y-123391616D01*
X78172500Y-123440000D01*
X79367500Y-123440000D01*
X79580000Y-123227500D01*
X79580000Y-122140000D01*
X79680000Y-122140000D01*
X79680000Y-123227500D01*
X79892500Y-123440000D01*
X81019075Y-123440000D01*
X81331486Y-123310595D01*
X81570595Y-123071487D01*
X81700000Y-122759076D01*
X81700000Y-122352500D01*
X82200000Y-122352500D01*
X82200000Y-122759076D01*
X82329405Y-123071487D01*
X82568514Y-123310595D01*
X82880925Y-123440000D01*
X84687500Y-123440000D01*
X84900000Y-123227500D01*
X84900000Y-122140000D01*
X85000000Y-122140000D01*
X85000000Y-123227500D01*
X85212500Y-123440000D01*
X87019075Y-123440000D01*
X87331486Y-123310595D01*
X87570595Y-123071487D01*
X87700000Y-122759076D01*
X87700000Y-122352500D01*
X88200000Y-122352500D01*
X88200000Y-122759076D01*
X88329405Y-123071487D01*
X88568514Y-123310595D01*
X88880925Y-123440000D01*
X90687500Y-123440000D01*
X90900000Y-123227500D01*
X90900000Y-122140000D01*
X88412500Y-122140000D01*
X88200000Y-122352500D01*
X87700000Y-122352500D01*
X87487500Y-122140000D01*
X85000000Y-122140000D01*
X84900000Y-122140000D01*
X82412500Y-122140000D01*
X82200000Y-122352500D01*
X81700000Y-122352500D01*
X81487500Y-122140000D01*
X79680000Y-122140000D01*
X79580000Y-122140000D01*
X79560000Y-122140000D01*
X79560000Y-122040000D01*
X79580000Y-122040000D01*
X79580000Y-120952500D01*
X79680000Y-120952500D01*
X79680000Y-122040000D01*
X81487500Y-122040000D01*
X81700000Y-121827500D01*
X81700000Y-121420924D01*
X82200000Y-121420924D01*
X82200000Y-121827500D01*
X82412500Y-122040000D01*
X84900000Y-122040000D01*
X84900000Y-120952500D01*
X85000000Y-120952500D01*
X85000000Y-122040000D01*
X87487500Y-122040000D01*
X87700000Y-121827500D01*
X87700000Y-121420924D01*
X88200000Y-121420924D01*
X88200000Y-121827500D01*
X88412500Y-122040000D01*
X90900000Y-122040000D01*
X90900000Y-120952500D01*
X90687500Y-120740000D01*
X88880925Y-120740000D01*
X88568514Y-120869405D01*
X88329405Y-121108513D01*
X88200000Y-121420924D01*
X87700000Y-121420924D01*
X87570595Y-121108513D01*
X87331486Y-120869405D01*
X87019075Y-120740000D01*
X85212500Y-120740000D01*
X85000000Y-120952500D01*
X84900000Y-120952500D01*
X84687500Y-120740000D01*
X82880925Y-120740000D01*
X82568514Y-120869405D01*
X82329405Y-121108513D01*
X82200000Y-121420924D01*
X81700000Y-121420924D01*
X81570595Y-121108513D01*
X81331486Y-120869405D01*
X81019075Y-120740000D01*
X79892500Y-120740000D01*
X79680000Y-120952500D01*
X79580000Y-120952500D01*
X79367500Y-120740000D01*
X79260000Y-120740000D01*
X79260000Y-120632500D01*
X79047500Y-120420000D01*
X77960000Y-120420000D01*
X77960000Y-120440000D01*
X77860000Y-120440000D01*
X77860000Y-120420000D01*
X77840000Y-120420000D01*
X77840000Y-120320000D01*
X77860000Y-120320000D01*
X77860000Y-118512500D01*
X77960000Y-118512500D01*
X77960000Y-120320000D01*
X79047500Y-120320000D01*
X79260000Y-120107500D01*
X79260000Y-118980924D01*
X79130595Y-118668513D01*
X78891486Y-118429405D01*
X78579075Y-118300000D01*
X78172500Y-118300000D01*
X77960000Y-118512500D01*
X77860000Y-118512500D01*
X77647500Y-118300000D01*
X77240925Y-118300000D01*
X76998000Y-118400623D01*
X76998000Y-117699377D01*
X77240925Y-117800000D01*
X77647500Y-117800000D01*
X77860000Y-117587500D01*
X77860000Y-115100000D01*
X77960000Y-115100000D01*
X77960000Y-117587500D01*
X78172500Y-117800000D01*
X78579075Y-117800000D01*
X78891486Y-117670595D01*
X79130595Y-117431487D01*
X79260000Y-117119076D01*
X79260000Y-115312500D01*
X79047500Y-115100000D01*
X77960000Y-115100000D01*
X77860000Y-115100000D01*
X77840000Y-115100000D01*
X77840000Y-115000000D01*
X77860000Y-115000000D01*
X77860000Y-112512500D01*
X77960000Y-112512500D01*
X77960000Y-115000000D01*
X79047500Y-115000000D01*
X79260000Y-114787500D01*
X79260000Y-112980924D01*
X79130595Y-112668513D01*
X78891486Y-112429405D01*
X78579075Y-112300000D01*
X78172500Y-112300000D01*
X77960000Y-112512500D01*
X77860000Y-112512500D01*
X77647500Y-112300000D01*
X77240925Y-112300000D01*
X76998000Y-112400623D01*
X76998000Y-111699377D01*
X77240925Y-111800000D01*
X77647500Y-111800000D01*
X77860000Y-111587500D01*
X77860000Y-109100000D01*
X77960000Y-109100000D01*
X77960000Y-111587500D01*
X78172500Y-111800000D01*
X78579075Y-111800000D01*
X78891486Y-111670595D01*
X79130595Y-111431487D01*
X79260000Y-111119076D01*
X79260000Y-109312500D01*
X79047500Y-109100000D01*
X77960000Y-109100000D01*
X77860000Y-109100000D01*
X77840000Y-109100000D01*
X77840000Y-109000000D01*
X77860000Y-109000000D01*
X77860000Y-106512500D01*
X77960000Y-106512500D01*
X77960000Y-109000000D01*
X79047500Y-109000000D01*
X79260000Y-108787500D01*
X79260000Y-106980924D01*
X79130595Y-106668513D01*
X78891486Y-106429405D01*
X78579075Y-106300000D01*
X78172500Y-106300000D01*
X77960000Y-106512500D01*
X77860000Y-106512500D01*
X77647500Y-106300000D01*
X77240925Y-106300000D01*
X76998000Y-106400623D01*
X76998000Y-105699377D01*
X77240925Y-105800000D01*
X77647500Y-105800000D01*
X77860000Y-105587500D01*
X77860000Y-103100000D01*
X77960000Y-103100000D01*
X77960000Y-105587500D01*
X78172500Y-105800000D01*
X78579075Y-105800000D01*
X78891486Y-105670595D01*
X79130595Y-105431487D01*
X79260000Y-105119076D01*
X79260000Y-103312500D01*
X79047500Y-103100000D01*
X77960000Y-103100000D01*
X77860000Y-103100000D01*
X77840000Y-103100000D01*
X77840000Y-103000000D01*
X77860000Y-103000000D01*
X77860000Y-100512500D01*
X77960000Y-100512500D01*
X77960000Y-103000000D01*
X79047500Y-103000000D01*
X79260000Y-102787500D01*
X79260000Y-100980924D01*
X79130595Y-100668513D01*
X78891486Y-100429405D01*
X78579075Y-100300000D01*
X78172500Y-100300000D01*
X77960000Y-100512500D01*
X77860000Y-100512500D01*
X77647500Y-100300000D01*
X77240925Y-100300000D01*
X76998000Y-100400623D01*
X76998000Y-99599377D01*
X77240925Y-99700000D01*
X77647500Y-99700000D01*
X77860000Y-99487500D01*
X77860000Y-97000000D01*
X77960000Y-97000000D01*
X77960000Y-99487500D01*
X78172500Y-99700000D01*
X78579075Y-99700000D01*
X78891486Y-99570595D01*
X79130595Y-99331487D01*
X79260000Y-99019076D01*
X79260000Y-97212500D01*
X79047500Y-97000000D01*
X77960000Y-97000000D01*
X77860000Y-97000000D01*
X77840000Y-97000000D01*
X77840000Y-96900000D01*
X77860000Y-96900000D01*
X77860000Y-94412500D01*
X77960000Y-94412500D01*
X77960000Y-96900000D01*
X79047500Y-96900000D01*
X79260000Y-96687500D01*
X79260000Y-94880924D01*
X79130595Y-94568513D01*
X78891486Y-94329405D01*
X78579075Y-94200000D01*
X78172500Y-94200000D01*
X77960000Y-94412500D01*
X77860000Y-94412500D01*
X77647500Y-94200000D01*
X77240925Y-94200000D01*
X76998000Y-94300623D01*
X76998000Y-93599377D01*
X77240925Y-93700000D01*
X77647500Y-93700000D01*
X77860000Y-93487500D01*
X77860000Y-91000000D01*
X77960000Y-91000000D01*
X77960000Y-93487500D01*
X78172500Y-93700000D01*
X78579075Y-93700000D01*
X78891486Y-93570595D01*
X79130595Y-93331487D01*
X79260000Y-93019076D01*
X79260000Y-91212500D01*
X120740000Y-91212500D01*
X120740000Y-93019076D01*
X120869405Y-93331487D01*
X121108514Y-93570595D01*
X121420925Y-93700000D01*
X121827500Y-93700000D01*
X122040000Y-93487500D01*
X122040000Y-91000000D01*
X120952500Y-91000000D01*
X120740000Y-91212500D01*
X79260000Y-91212500D01*
X79047500Y-91000000D01*
X77960000Y-91000000D01*
X77860000Y-91000000D01*
X77840000Y-91000000D01*
X77840000Y-90900000D01*
X77860000Y-90900000D01*
X77860000Y-88412500D01*
X77960000Y-88412500D01*
X77960000Y-90900000D01*
X79047500Y-90900000D01*
X79260000Y-90687500D01*
X79260000Y-88880924D01*
X120740000Y-88880924D01*
X120740000Y-90687500D01*
X120952500Y-90900000D01*
X122040000Y-90900000D01*
X122040000Y-88412500D01*
X121827500Y-88200000D01*
X121420925Y-88200000D01*
X121108514Y-88329405D01*
X120869405Y-88568513D01*
X120740000Y-88880924D01*
X79260000Y-88880924D01*
X79130595Y-88568513D01*
X78891486Y-88329405D01*
X78579075Y-88200000D01*
X78172500Y-88200000D01*
X77960000Y-88412500D01*
X77860000Y-88412500D01*
X77647500Y-88200000D01*
X77240925Y-88200000D01*
X76998000Y-88300623D01*
X76998000Y-87599377D01*
X77240925Y-87700000D01*
X77647500Y-87700000D01*
X77860000Y-87487500D01*
X77860000Y-85000000D01*
X77960000Y-85000000D01*
X77960000Y-87487500D01*
X78172500Y-87700000D01*
X78579075Y-87700000D01*
X78891486Y-87570595D01*
X79130595Y-87331487D01*
X79260000Y-87019076D01*
X79260000Y-85212500D01*
X120740000Y-85212500D01*
X120740000Y-87019076D01*
X120869405Y-87331487D01*
X121108514Y-87570595D01*
X121420925Y-87700000D01*
X121827500Y-87700000D01*
X122040000Y-87487500D01*
X122040000Y-85000000D01*
X120952500Y-85000000D01*
X120740000Y-85212500D01*
X79260000Y-85212500D01*
X79047500Y-85000000D01*
X77960000Y-85000000D01*
X77860000Y-85000000D01*
X77840000Y-85000000D01*
X77840000Y-84900000D01*
X77860000Y-84900000D01*
X77860000Y-82412500D01*
X77960000Y-82412500D01*
X77960000Y-84900000D01*
X79047500Y-84900000D01*
X79260000Y-84687500D01*
X79260000Y-82880924D01*
X120740000Y-82880924D01*
X120740000Y-84687500D01*
X120952500Y-84900000D01*
X122040000Y-84900000D01*
X122040000Y-82412500D01*
X121827500Y-82200000D01*
X121420925Y-82200000D01*
X121108514Y-82329405D01*
X120869405Y-82568513D01*
X120740000Y-82880924D01*
X79260000Y-82880924D01*
X79130595Y-82568513D01*
X78891486Y-82329405D01*
X78579075Y-82200000D01*
X78172500Y-82200000D01*
X77960000Y-82412500D01*
X77860000Y-82412500D01*
X77647500Y-82200000D01*
X77240925Y-82200000D01*
X76998000Y-82300623D01*
X76998000Y-81599377D01*
X77240925Y-81700000D01*
X77647500Y-81700000D01*
X77860000Y-81487500D01*
X77860000Y-79680000D01*
X77960000Y-79680000D01*
X77960000Y-81487500D01*
X78172500Y-81700000D01*
X78579075Y-81700000D01*
X78891486Y-81570595D01*
X79130595Y-81331487D01*
X79260000Y-81019076D01*
X79260000Y-79892500D01*
X120740000Y-79892500D01*
X120740000Y-81019076D01*
X120869405Y-81331487D01*
X121108514Y-81570595D01*
X121420925Y-81700000D01*
X121827500Y-81700000D01*
X122040000Y-81487500D01*
X122040000Y-79680000D01*
X120952500Y-79680000D01*
X120740000Y-79892500D01*
X79260000Y-79892500D01*
X79047500Y-79680000D01*
X77960000Y-79680000D01*
X77860000Y-79680000D01*
X77840000Y-79680000D01*
X77840000Y-79580000D01*
X77860000Y-79580000D01*
X77860000Y-79560000D01*
X77960000Y-79560000D01*
X77960000Y-79580000D01*
X79047500Y-79580000D01*
X79260000Y-79367500D01*
X79260000Y-79260000D01*
X79367500Y-79260000D01*
X79580000Y-79047500D01*
X79580000Y-77960000D01*
X79680000Y-77960000D01*
X79680000Y-79047500D01*
X79892500Y-79260000D01*
X81019075Y-79260000D01*
X81331486Y-79130595D01*
X81570595Y-78891487D01*
X81700000Y-78579076D01*
X81700000Y-78172500D01*
X82200000Y-78172500D01*
X82200000Y-78579076D01*
X82329405Y-78891487D01*
X82568514Y-79130595D01*
X82880925Y-79260000D01*
X84687500Y-79260000D01*
X84900000Y-79047500D01*
X84900000Y-77960000D01*
X85000000Y-77960000D01*
X85000000Y-79047500D01*
X85212500Y-79260000D01*
X87019075Y-79260000D01*
X87331486Y-79130595D01*
X87570595Y-78891487D01*
X87700000Y-78579076D01*
X87700000Y-78172500D01*
X88200000Y-78172500D01*
X88200000Y-78579076D01*
X88329405Y-78891487D01*
X88568514Y-79130595D01*
X88880925Y-79260000D01*
X90687500Y-79260000D01*
X90900000Y-79047500D01*
X90900000Y-77960000D01*
X91000000Y-77960000D01*
X91000000Y-79047500D01*
X91212500Y-79260000D01*
X93019075Y-79260000D01*
X93331486Y-79130595D01*
X93570595Y-78891487D01*
X93700000Y-78579076D01*
X93700000Y-78172500D01*
X94200000Y-78172500D01*
X94200000Y-78579076D01*
X94329405Y-78891487D01*
X94568514Y-79130595D01*
X94880925Y-79260000D01*
X96687500Y-79260000D01*
X96900000Y-79047500D01*
X96900000Y-77960000D01*
X97000000Y-77960000D01*
X97000000Y-79047500D01*
X97212500Y-79260000D01*
X99019075Y-79260000D01*
X99331486Y-79130595D01*
X99570595Y-78891487D01*
X99700000Y-78579076D01*
X99700000Y-78172500D01*
X100300000Y-78172500D01*
X100300000Y-78579076D01*
X100429405Y-78891487D01*
X100668514Y-79130595D01*
X100980925Y-79260000D01*
X102787500Y-79260000D01*
X103000000Y-79047500D01*
X103000000Y-77960000D01*
X103100000Y-77960000D01*
X103100000Y-79047500D01*
X103312500Y-79260000D01*
X105119075Y-79260000D01*
X105431486Y-79130595D01*
X105670595Y-78891487D01*
X105800000Y-78579076D01*
X105800000Y-78172500D01*
X106300000Y-78172500D01*
X106300000Y-78579076D01*
X106429405Y-78891487D01*
X106668514Y-79130595D01*
X106980925Y-79260000D01*
X108787500Y-79260000D01*
X109000000Y-79047500D01*
X109000000Y-77960000D01*
X109100000Y-77960000D01*
X109100000Y-79047500D01*
X109312500Y-79260000D01*
X111119075Y-79260000D01*
X111431486Y-79130595D01*
X111670595Y-78891487D01*
X111800000Y-78579076D01*
X111800000Y-78172500D01*
X112300000Y-78172500D01*
X112300000Y-78579076D01*
X112429405Y-78891487D01*
X112668514Y-79130595D01*
X112980925Y-79260000D01*
X114787500Y-79260000D01*
X115000000Y-79047500D01*
X115000000Y-77960000D01*
X115100000Y-77960000D01*
X115100000Y-79047500D01*
X115312500Y-79260000D01*
X117119075Y-79260000D01*
X117431486Y-79130595D01*
X117670595Y-78891487D01*
X117800000Y-78579076D01*
X117800000Y-78172500D01*
X118300000Y-78172500D01*
X118300000Y-78579076D01*
X118429405Y-78891487D01*
X118668514Y-79130595D01*
X118980925Y-79260000D01*
X120107500Y-79260000D01*
X120320000Y-79047500D01*
X120320000Y-77960000D01*
X118512500Y-77960000D01*
X118300000Y-78172500D01*
X117800000Y-78172500D01*
X117587500Y-77960000D01*
X115100000Y-77960000D01*
X115000000Y-77960000D01*
X112512500Y-77960000D01*
X112300000Y-78172500D01*
X111800000Y-78172500D01*
X111587500Y-77960000D01*
X109100000Y-77960000D01*
X109000000Y-77960000D01*
X106512500Y-77960000D01*
X106300000Y-78172500D01*
X105800000Y-78172500D01*
X105587500Y-77960000D01*
X103100000Y-77960000D01*
X103000000Y-77960000D01*
X100512500Y-77960000D01*
X100300000Y-78172500D01*
X99700000Y-78172500D01*
X99487500Y-77960000D01*
X97000000Y-77960000D01*
X96900000Y-77960000D01*
X94412500Y-77960000D01*
X94200000Y-78172500D01*
X93700000Y-78172500D01*
X93487500Y-77960000D01*
X91000000Y-77960000D01*
X90900000Y-77960000D01*
X88412500Y-77960000D01*
X88200000Y-78172500D01*
X87700000Y-78172500D01*
X87487500Y-77960000D01*
X85000000Y-77960000D01*
X84900000Y-77960000D01*
X82412500Y-77960000D01*
X82200000Y-78172500D01*
X81700000Y-78172500D01*
X81487500Y-77960000D01*
X79680000Y-77960000D01*
X79580000Y-77960000D01*
X79560000Y-77960000D01*
X79560000Y-77860000D01*
X79580000Y-77860000D01*
X79580000Y-77840000D01*
X79680000Y-77840000D01*
X79680000Y-77860000D01*
X81487500Y-77860000D01*
X81700000Y-77647500D01*
X81700000Y-77240924D01*
X81570595Y-76928513D01*
X81513082Y-76871000D01*
X82386918Y-76871000D01*
X82329405Y-76928513D01*
X82329405Y-76928513D01*
G37*
X82329405Y-76928513D02*
X82200000Y-77240924D01*
X82200000Y-77647500D01*
X82412500Y-77860000D01*
X84900000Y-77860000D01*
X84900000Y-77840000D01*
X85000000Y-77840000D01*
X85000000Y-77860000D01*
X87487500Y-77860000D01*
X87700000Y-77647500D01*
X87700000Y-77240924D01*
X87570595Y-76928513D01*
X87513082Y-76871000D01*
X88386918Y-76871000D01*
X88329405Y-76928513D01*
X88200000Y-77240924D01*
X88200000Y-77647500D01*
X88412500Y-77860000D01*
X90900000Y-77860000D01*
X90900000Y-77840000D01*
X91000000Y-77840000D01*
X91000000Y-77860000D01*
X93487500Y-77860000D01*
X93700000Y-77647500D01*
X93700000Y-77240924D01*
X93570595Y-76928513D01*
X93513082Y-76871000D01*
X94386918Y-76871000D01*
X94329405Y-76928513D01*
X94200000Y-77240924D01*
X94200000Y-77647500D01*
X94412500Y-77860000D01*
X96900000Y-77860000D01*
X96900000Y-77840000D01*
X97000000Y-77840000D01*
X97000000Y-77860000D01*
X99487500Y-77860000D01*
X99700000Y-77647500D01*
X99700000Y-77240924D01*
X99570595Y-76928513D01*
X99513082Y-76871000D01*
X100486918Y-76871000D01*
X100429405Y-76928513D01*
X100300000Y-77240924D01*
X100300000Y-77647500D01*
X100512500Y-77860000D01*
X103000000Y-77860000D01*
X103000000Y-77840000D01*
X103100000Y-77840000D01*
X103100000Y-77860000D01*
X105587500Y-77860000D01*
X105800000Y-77647500D01*
X105800000Y-77240924D01*
X105670595Y-76928513D01*
X105613082Y-76871000D01*
X106486918Y-76871000D01*
X106429405Y-76928513D01*
X106300000Y-77240924D01*
X106300000Y-77647500D01*
X106512500Y-77860000D01*
X109000000Y-77860000D01*
X109000000Y-77840000D01*
X109100000Y-77840000D01*
X109100000Y-77860000D01*
X111587500Y-77860000D01*
X111800000Y-77647500D01*
X111800000Y-77240924D01*
X111670595Y-76928513D01*
X111613082Y-76871000D01*
X112486918Y-76871000D01*
X112429405Y-76928513D01*
X112300000Y-77240924D01*
X112300000Y-77647500D01*
X112512500Y-77860000D01*
X115000000Y-77860000D01*
X115000000Y-77840000D01*
X115100000Y-77840000D01*
X115100000Y-77860000D01*
X117587500Y-77860000D01*
X117800000Y-77647500D01*
X117800000Y-77240924D01*
X117670595Y-76928513D01*
X117613082Y-76871000D01*
X118486918Y-76871000D01*
X118429405Y-76928513D01*
X118300000Y-77240924D01*
X118300000Y-77647500D01*
X118512500Y-77860000D01*
X120320000Y-77860000D01*
X120320000Y-77840000D01*
X120420000Y-77840000D01*
X120420000Y-77860000D01*
X120440000Y-77860000D01*
X120440000Y-77960000D01*
X120420000Y-77960000D01*
X120420000Y-79047500D01*
X120632500Y-79260000D01*
X120740000Y-79260000D01*
X120740000Y-79367500D01*
X120952500Y-79580000D01*
X122040000Y-79580000D01*
X122040000Y-79560000D01*
X122140000Y-79560000D01*
X122140000Y-79580000D01*
X122160000Y-79580000D01*
X122160000Y-79680000D01*
X122140000Y-79680000D01*
X122140000Y-81487500D01*
X122352500Y-81700000D01*
X122759075Y-81700000D01*
X123071486Y-81570595D01*
X123281000Y-81361082D01*
X123281000Y-82538918D01*
X123071486Y-82329405D01*
X122759075Y-82200000D01*
X122352500Y-82200000D01*
X122140000Y-82412500D01*
X122140000Y-84900000D01*
X122160000Y-84900000D01*
X122160000Y-85000000D01*
X122140000Y-85000000D01*
X122140000Y-87487500D01*
X122352500Y-87700000D01*
X122759075Y-87700000D01*
X123071486Y-87570595D01*
X123281000Y-87361082D01*
X123281000Y-88538918D01*
X123071486Y-88329405D01*
X122759075Y-88200000D01*
X122352500Y-88200000D01*
X122140000Y-88412500D01*
X122140000Y-90900000D01*
X122160000Y-90900000D01*
X122160000Y-91000000D01*
X122140000Y-91000000D01*
X122140000Y-93487500D01*
X122352500Y-93700000D01*
X122759075Y-93700000D01*
X123071486Y-93570595D01*
X123281000Y-93361082D01*
X123281000Y-94538918D01*
X123071486Y-94329405D01*
X122759075Y-94200000D01*
X122352500Y-94200000D01*
X122140000Y-94412500D01*
X122140000Y-96900000D01*
X122160000Y-96900000D01*
X122160000Y-97000000D01*
X122140000Y-97000000D01*
X122140000Y-99487500D01*
X122352500Y-99700000D01*
X122759075Y-99700000D01*
X123071486Y-99570595D01*
X123281000Y-99361082D01*
X123281000Y-100638918D01*
X123071486Y-100429405D01*
X122759075Y-100300000D01*
X122352500Y-100300000D01*
X122140000Y-100512500D01*
X122140000Y-103000000D01*
X122160000Y-103000000D01*
X122160000Y-103100000D01*
X122140000Y-103100000D01*
X122140000Y-105587500D01*
X122352500Y-105800000D01*
X122759075Y-105800000D01*
X123071486Y-105670595D01*
X123281000Y-105461082D01*
X123281000Y-106638918D01*
X123071486Y-106429405D01*
X122759075Y-106300000D01*
X122352500Y-106300000D01*
X122140000Y-106512500D01*
X122140000Y-109000000D01*
X122160000Y-109000000D01*
X122160000Y-109100000D01*
X122140000Y-109100000D01*
X122140000Y-111587500D01*
X122352500Y-111800000D01*
X122759075Y-111800000D01*
X123071486Y-111670595D01*
X123281000Y-111461082D01*
X123281000Y-112638918D01*
X123071486Y-112429405D01*
X122759075Y-112300000D01*
X122352500Y-112300000D01*
X122140000Y-112512500D01*
X122140000Y-115000000D01*
X122160000Y-115000000D01*
X122160000Y-115100000D01*
X122140000Y-115100000D01*
X122140000Y-117587500D01*
X122352500Y-117800000D01*
X122759075Y-117800000D01*
X123071486Y-117670595D01*
X123281000Y-117461082D01*
X123281000Y-118638918D01*
X123071486Y-118429405D01*
X122759075Y-118300000D01*
X122352500Y-118300000D01*
X122140000Y-118512500D01*
X122140000Y-120320000D01*
X122160000Y-120320000D01*
X122160000Y-120420000D01*
X122140000Y-120420000D01*
X122140000Y-120440000D01*
X122040000Y-120440000D01*
X122040000Y-120420000D01*
X120952500Y-120420000D01*
X120740000Y-120632500D01*
X120740000Y-120740000D01*
X120632500Y-120740000D01*
X120420000Y-120952500D01*
X120420000Y-122040000D01*
X120440000Y-122040000D01*
X120440000Y-122140000D01*
X120420000Y-122140000D01*
X120420000Y-123227500D01*
X120632500Y-123440000D01*
X121827500Y-123440000D01*
X121875884Y-123391616D01*
X122071486Y-123310595D01*
X122147291Y-123234791D01*
X122352500Y-123440000D01*
X122759075Y-123440000D01*
X123071486Y-123310595D01*
X123281000Y-123101082D01*
X123281000Y-191640852D01*
X119631852Y-195290000D01*
X80520148Y-195290000D01*
X76998000Y-191767852D01*
X76998000Y-178562000D01*
X80141000Y-178562000D01*
X80141000Y-193548000D01*
X80158097Y-193638864D01*
X80211798Y-193722318D01*
X80293736Y-193778304D01*
X80391000Y-193798000D01*
X98044000Y-193798000D01*
X98134864Y-193780903D01*
X98218318Y-193727202D01*
X98274304Y-193645264D01*
X98294000Y-193548000D01*
X98294000Y-187968503D01*
X104557208Y-187968503D01*
X104758697Y-188408911D01*
X105796365Y-188865801D01*
X106929890Y-188890812D01*
X107986701Y-188480140D01*
X108093303Y-188408911D01*
X108294792Y-187968503D01*
X112177208Y-187968503D01*
X112378697Y-188408911D01*
X113416365Y-188865801D01*
X114549890Y-188890812D01*
X115606701Y-188480140D01*
X115713303Y-188408911D01*
X115914792Y-187968503D01*
X114046000Y-186099711D01*
X112177208Y-187968503D01*
X108294792Y-187968503D01*
X106426000Y-186099711D01*
X104557208Y-187968503D01*
X98294000Y-187968503D01*
X98294000Y-186532890D01*
X103564188Y-186532890D01*
X103974860Y-187589701D01*
X104046089Y-187696303D01*
X104486497Y-187897792D01*
X106355289Y-186029000D01*
X106496711Y-186029000D01*
X108365503Y-187897792D01*
X108805911Y-187696303D01*
X109262801Y-186658635D01*
X109265575Y-186532890D01*
X111184188Y-186532890D01*
X111594860Y-187589701D01*
X111666089Y-187696303D01*
X112106497Y-187897792D01*
X113975289Y-186029000D01*
X114116711Y-186029000D01*
X115985503Y-187897792D01*
X116425911Y-187696303D01*
X116882801Y-186658635D01*
X116907812Y-185525110D01*
X116497140Y-184468299D01*
X116425911Y-184361697D01*
X115985503Y-184160208D01*
X114116711Y-186029000D01*
X113975289Y-186029000D01*
X112106497Y-184160208D01*
X111666089Y-184361697D01*
X111209199Y-185399365D01*
X111184188Y-186532890D01*
X109265575Y-186532890D01*
X109287812Y-185525110D01*
X108877140Y-184468299D01*
X108805911Y-184361697D01*
X108365503Y-184160208D01*
X106496711Y-186029000D01*
X106355289Y-186029000D01*
X104486497Y-184160208D01*
X104046089Y-184361697D01*
X103589199Y-185399365D01*
X103564188Y-186532890D01*
X98294000Y-186532890D01*
X98294000Y-184089497D01*
X104557208Y-184089497D01*
X106426000Y-185958289D01*
X108294792Y-184089497D01*
X112177208Y-184089497D01*
X114046000Y-185958289D01*
X115914792Y-184089497D01*
X115713303Y-183649089D01*
X114675635Y-183192199D01*
X113542110Y-183167188D01*
X112485299Y-183577860D01*
X112378697Y-183649089D01*
X112177208Y-184089497D01*
X108294792Y-184089497D01*
X108093303Y-183649089D01*
X107055635Y-183192199D01*
X105922110Y-183167188D01*
X104865299Y-183577860D01*
X104758697Y-183649089D01*
X104557208Y-184089497D01*
X98294000Y-184089497D01*
X98294000Y-178562000D01*
X98276903Y-178471136D01*
X98223202Y-178387682D01*
X98141264Y-178331696D01*
X98044000Y-178312000D01*
X89900000Y-178312000D01*
X89900000Y-173412500D01*
X96100000Y-173412500D01*
X96100000Y-174319075D01*
X96229405Y-174631486D01*
X96468513Y-174870595D01*
X96780924Y-175000000D01*
X97437500Y-175000000D01*
X97650000Y-174787500D01*
X97650000Y-173200000D01*
X96312500Y-173200000D01*
X96100000Y-173412500D01*
X89900000Y-173412500D01*
X89900000Y-172069500D01*
X93092000Y-172069500D01*
X93092000Y-172476075D01*
X93221405Y-172788486D01*
X93460513Y-173027595D01*
X93772924Y-173157000D01*
X94479500Y-173157000D01*
X94692000Y-172944500D01*
X94692000Y-171857000D01*
X93304500Y-171857000D01*
X93092000Y-172069500D01*
X89900000Y-172069500D01*
X89900000Y-171137925D01*
X93092000Y-171137925D01*
X93092000Y-171544500D01*
X93304500Y-171757000D01*
X94692000Y-171757000D01*
X94692000Y-170669500D01*
X94792000Y-170669500D01*
X94792000Y-171757000D01*
X94812000Y-171757000D01*
X94812000Y-171857000D01*
X94792000Y-171857000D01*
X94792000Y-172944500D01*
X95004500Y-173157000D01*
X95711076Y-173157000D01*
X96023487Y-173027595D01*
X96131791Y-172919291D01*
X96312500Y-173100000D01*
X97650000Y-173100000D01*
X97650000Y-171512500D01*
X97437500Y-171300000D01*
X96780924Y-171300000D01*
X96468513Y-171429405D01*
X96392000Y-171505918D01*
X96392000Y-171137925D01*
X96262595Y-170825514D01*
X96023487Y-170586405D01*
X95711076Y-170457000D01*
X95004500Y-170457000D01*
X94792000Y-170669500D01*
X94692000Y-170669500D01*
X94479500Y-170457000D01*
X93772924Y-170457000D01*
X93460513Y-170586405D01*
X93221405Y-170825514D01*
X93092000Y-171137925D01*
X89900000Y-171137925D01*
X89900000Y-161702082D01*
X90018513Y-161820595D01*
X90330924Y-161950000D01*
X91487500Y-161950000D01*
X91700000Y-161737500D01*
X91700000Y-160550000D01*
X91800000Y-160550000D01*
X91800000Y-161737500D01*
X92012500Y-161950000D01*
X93169076Y-161950000D01*
X93481487Y-161820595D01*
X93720595Y-161581486D01*
X93850000Y-161269075D01*
X93850000Y-160762500D01*
X93637500Y-160550000D01*
X91800000Y-160550000D01*
X91700000Y-160550000D01*
X91680000Y-160550000D01*
X91680000Y-160450000D01*
X91700000Y-160450000D01*
X91700000Y-160430000D01*
X91800000Y-160430000D01*
X91800000Y-160450000D01*
X93637500Y-160450000D01*
X93850000Y-160237500D01*
X93850000Y-159730925D01*
X93720595Y-159418514D01*
X93555014Y-159252932D01*
X93604291Y-159221223D01*
X93798372Y-158937176D01*
X93866652Y-158600000D01*
X93866652Y-157400000D01*
X93807382Y-157085009D01*
X93621223Y-156795709D01*
X93556869Y-156751738D01*
X93604291Y-156721223D01*
X93798372Y-156437176D01*
X93866652Y-156100000D01*
X93866652Y-154900000D01*
X93807382Y-154585009D01*
X93621223Y-154295709D01*
X93337176Y-154101628D01*
X93000000Y-154033348D01*
X90500000Y-154033348D01*
X90185009Y-154092618D01*
X89895709Y-154278777D01*
X89744554Y-154500000D01*
X88252680Y-154500000D01*
X88121223Y-154295709D01*
X87837176Y-154101628D01*
X87500000Y-154033348D01*
X85000000Y-154033348D01*
X84685009Y-154092618D01*
X84395709Y-154278777D01*
X84201628Y-154562824D01*
X84133348Y-154900000D01*
X84133348Y-156019134D01*
X83296000Y-155181786D01*
X83296000Y-153322214D01*
X84282214Y-152336000D01*
X87411668Y-152336000D01*
X87478777Y-152440291D01*
X87762824Y-152634372D01*
X88100000Y-152702652D01*
X89700000Y-152702652D01*
X90014991Y-152643382D01*
X90304291Y-152457223D01*
X90498372Y-152173176D01*
X90566652Y-151836000D01*
X90566652Y-150836000D01*
X90507382Y-150521009D01*
X90321223Y-150231709D01*
X90037176Y-150037628D01*
X89700000Y-149969348D01*
X88100000Y-149969348D01*
X87785009Y-150028618D01*
X87495709Y-150214777D01*
X87412881Y-150336000D01*
X83868005Y-150336000D01*
X83868000Y-150335999D01*
X83485316Y-150412120D01*
X83160893Y-150628893D01*
X81588893Y-152200893D01*
X81372120Y-152525316D01*
X81296000Y-152908000D01*
X81296000Y-155596000D01*
X81372120Y-155978684D01*
X81588893Y-156303107D01*
X83992891Y-158707104D01*
X83992893Y-158707107D01*
X84176598Y-158829855D01*
X84192618Y-158914991D01*
X84378777Y-159204291D01*
X84447007Y-159250911D01*
X84279405Y-159418514D01*
X84150000Y-159730925D01*
X84150000Y-160237500D01*
X84362500Y-160450000D01*
X86200000Y-160450000D01*
X86200000Y-160430000D01*
X86300000Y-160430000D01*
X86300000Y-160450000D01*
X86320000Y-160450000D01*
X86320000Y-160550000D01*
X86300000Y-160550000D01*
X86300000Y-161737500D01*
X86512500Y-161950000D01*
X87669076Y-161950000D01*
X87900000Y-161854348D01*
X87900000Y-178312000D01*
X80391000Y-178312000D01*
X80300136Y-178329097D01*
X80216682Y-178382798D01*
X80160696Y-178464736D01*
X80141000Y-178562000D01*
X76998000Y-178562000D01*
X76998000Y-160762500D01*
X84150000Y-160762500D01*
X84150000Y-161269075D01*
X84279405Y-161581486D01*
X84518513Y-161820595D01*
X84830924Y-161950000D01*
X85987500Y-161950000D01*
X86200000Y-161737500D01*
X86200000Y-160550000D01*
X84362500Y-160550000D01*
X84150000Y-160762500D01*
X76998000Y-160762500D01*
X76998000Y-147836000D01*
X87233348Y-147836000D01*
X87233348Y-148836000D01*
X87292618Y-149150991D01*
X87478777Y-149440291D01*
X87762824Y-149634372D01*
X88100000Y-149702652D01*
X89700000Y-149702652D01*
X90014991Y-149643382D01*
X90304291Y-149457223D01*
X90387119Y-149336000D01*
X91025786Y-149336000D01*
X95266000Y-153576214D01*
X95266000Y-167440348D01*
X93942000Y-167440348D01*
X93627009Y-167499618D01*
X93337709Y-167685777D01*
X93143628Y-167969824D01*
X93075348Y-168307000D01*
X93075348Y-169307000D01*
X93134618Y-169621991D01*
X93320777Y-169911291D01*
X93604824Y-170105372D01*
X93942000Y-170173652D01*
X95542000Y-170173652D01*
X95856991Y-170114382D01*
X96146291Y-169928223D01*
X96229119Y-169807000D01*
X101300000Y-169807000D01*
X101300000Y-171330389D01*
X101235009Y-171342618D01*
X101152085Y-171395978D01*
X101087176Y-171351628D01*
X100750000Y-171283348D01*
X99250000Y-171283348D01*
X98935009Y-171342618D01*
X98851577Y-171396305D01*
X98619076Y-171300000D01*
X97962500Y-171300000D01*
X97750000Y-171512500D01*
X97750000Y-173100000D01*
X97770000Y-173100000D01*
X97770000Y-173200000D01*
X97750000Y-173200000D01*
X97750000Y-174787500D01*
X97962500Y-175000000D01*
X98619076Y-175000000D01*
X98848999Y-174904763D01*
X98912824Y-174948372D01*
X99250000Y-175016652D01*
X100750000Y-175016652D01*
X101064991Y-174957382D01*
X101147915Y-174904022D01*
X101212824Y-174948372D01*
X101550000Y-175016652D01*
X103050000Y-175016652D01*
X103364991Y-174957382D01*
X103654291Y-174771223D01*
X103848372Y-174487176D01*
X103916652Y-174150000D01*
X103916652Y-172150000D01*
X103857382Y-171835009D01*
X103671223Y-171545709D01*
X103387176Y-171351628D01*
X103300000Y-171333974D01*
X103300000Y-171061500D01*
X103808000Y-171061500D01*
X103808000Y-171468075D01*
X103937405Y-171780486D01*
X104176513Y-172019595D01*
X104488924Y-172149000D01*
X105020500Y-172149000D01*
X105233000Y-171936500D01*
X105233000Y-170849000D01*
X105333000Y-170849000D01*
X105333000Y-171936500D01*
X105545500Y-172149000D01*
X106077076Y-172149000D01*
X106389487Y-172019595D01*
X106628595Y-171780486D01*
X106758000Y-171468075D01*
X106758000Y-171061500D01*
X106545500Y-170849000D01*
X105333000Y-170849000D01*
X105233000Y-170849000D01*
X104020500Y-170849000D01*
X103808000Y-171061500D01*
X103300000Y-171061500D01*
X103300000Y-169807000D01*
X103947919Y-169807000D01*
X103937405Y-169817514D01*
X103808000Y-170129925D01*
X103808000Y-170536500D01*
X104020500Y-170749000D01*
X105233000Y-170749000D01*
X105233000Y-170729000D01*
X105333000Y-170729000D01*
X105333000Y-170749000D01*
X106545500Y-170749000D01*
X106758000Y-170536500D01*
X106758000Y-170129925D01*
X106628595Y-169817514D01*
X106601192Y-169790111D01*
X106706372Y-169636176D01*
X106774652Y-169299000D01*
X106774652Y-168299000D01*
X106715382Y-167984009D01*
X106629150Y-167850000D01*
X110060002Y-167850000D01*
X110442686Y-167773880D01*
X110767109Y-167557107D01*
X122881107Y-155443109D01*
X122921482Y-155382684D01*
X123097880Y-155118685D01*
X123174000Y-154736002D01*
X123174000Y-135128000D01*
X123097880Y-134745317D01*
X122881107Y-134420893D01*
X117499107Y-129038893D01*
X117174684Y-128822120D01*
X116792000Y-128746000D01*
X109057332Y-128746000D01*
X108990223Y-128641709D01*
X108706176Y-128447628D01*
X108369000Y-128379348D01*
X106774652Y-128379348D01*
X106774652Y-128246000D01*
X106746427Y-128096000D01*
X107306500Y-128096000D01*
X107519000Y-127883500D01*
X107519000Y-126796000D01*
X107619000Y-126796000D01*
X107619000Y-127883500D01*
X107831500Y-128096000D01*
X108538076Y-128096000D01*
X108850487Y-127966595D01*
X109089595Y-127727486D01*
X109219000Y-127415075D01*
X109219000Y-127008500D01*
X109006500Y-126796000D01*
X107619000Y-126796000D01*
X107519000Y-126796000D01*
X105333000Y-126796000D01*
X105333000Y-126816000D01*
X105233000Y-126816000D01*
X105233000Y-126796000D01*
X105213000Y-126796000D01*
X105213000Y-126696000D01*
X105233000Y-126696000D01*
X105233000Y-125608500D01*
X105333000Y-125608500D01*
X105333000Y-126696000D01*
X107519000Y-126696000D01*
X107519000Y-125608500D01*
X107619000Y-125608500D01*
X107619000Y-126696000D01*
X109006500Y-126696000D01*
X109219000Y-126483500D01*
X109219000Y-126076925D01*
X109089595Y-125764514D01*
X108850487Y-125525405D01*
X108538076Y-125396000D01*
X107831500Y-125396000D01*
X107619000Y-125608500D01*
X107519000Y-125608500D01*
X107306500Y-125396000D01*
X106599924Y-125396000D01*
X106338500Y-125504285D01*
X106077076Y-125396000D01*
X105545500Y-125396000D01*
X105333000Y-125608500D01*
X105233000Y-125608500D01*
X105020500Y-125396000D01*
X104488924Y-125396000D01*
X104176513Y-125525405D01*
X104103265Y-125598653D01*
X104096223Y-125587709D01*
X103812176Y-125393628D01*
X103475000Y-125325348D01*
X101925000Y-125325348D01*
X101610009Y-125384618D01*
X101553999Y-125420659D01*
X101553999Y-123440000D01*
X102787500Y-123440000D01*
X103000000Y-123227500D01*
X103000000Y-122140000D01*
X103100000Y-122140000D01*
X103100000Y-123227500D01*
X103312500Y-123440000D01*
X105119075Y-123440000D01*
X105431486Y-123310595D01*
X105670595Y-123071487D01*
X105800000Y-122759076D01*
X105800000Y-122352500D01*
X106300000Y-122352500D01*
X106300000Y-122759076D01*
X106429405Y-123071487D01*
X106668514Y-123310595D01*
X106980925Y-123440000D01*
X108787500Y-123440000D01*
X109000000Y-123227500D01*
X109000000Y-122140000D01*
X109100000Y-122140000D01*
X109100000Y-123227500D01*
X109312500Y-123440000D01*
X111119075Y-123440000D01*
X111431486Y-123310595D01*
X111670595Y-123071487D01*
X111800000Y-122759076D01*
X111800000Y-122352500D01*
X112300000Y-122352500D01*
X112300000Y-122759076D01*
X112429405Y-123071487D01*
X112668514Y-123310595D01*
X112980925Y-123440000D01*
X114787500Y-123440000D01*
X115000000Y-123227500D01*
X115000000Y-122140000D01*
X115100000Y-122140000D01*
X115100000Y-123227500D01*
X115312500Y-123440000D01*
X117119075Y-123440000D01*
X117431486Y-123310595D01*
X117670595Y-123071487D01*
X117800000Y-122759076D01*
X117800000Y-122352500D01*
X118300000Y-122352500D01*
X118300000Y-122759076D01*
X118429405Y-123071487D01*
X118668514Y-123310595D01*
X118980925Y-123440000D01*
X120107500Y-123440000D01*
X120320000Y-123227500D01*
X120320000Y-122140000D01*
X118512500Y-122140000D01*
X118300000Y-122352500D01*
X117800000Y-122352500D01*
X117587500Y-122140000D01*
X115100000Y-122140000D01*
X115000000Y-122140000D01*
X112512500Y-122140000D01*
X112300000Y-122352500D01*
X111800000Y-122352500D01*
X111587500Y-122140000D01*
X109100000Y-122140000D01*
X109000000Y-122140000D01*
X106512500Y-122140000D01*
X106300000Y-122352500D01*
X105800000Y-122352500D01*
X105587500Y-122140000D01*
X103100000Y-122140000D01*
X103000000Y-122140000D01*
X102980000Y-122140000D01*
X102980000Y-122040000D01*
X103000000Y-122040000D01*
X103000000Y-120952500D01*
X103100000Y-120952500D01*
X103100000Y-122040000D01*
X105587500Y-122040000D01*
X105800000Y-121827500D01*
X105800000Y-121420924D01*
X106300000Y-121420924D01*
X106300000Y-121827500D01*
X106512500Y-122040000D01*
X109000000Y-122040000D01*
X109000000Y-120952500D01*
X109100000Y-120952500D01*
X109100000Y-122040000D01*
X111587500Y-122040000D01*
X111800000Y-121827500D01*
X111800000Y-121420924D01*
X112300000Y-121420924D01*
X112300000Y-121827500D01*
X112512500Y-122040000D01*
X115000000Y-122040000D01*
X115000000Y-120952500D01*
X115100000Y-120952500D01*
X115100000Y-122040000D01*
X117587500Y-122040000D01*
X117800000Y-121827500D01*
X117800000Y-121420924D01*
X118300000Y-121420924D01*
X118300000Y-121827500D01*
X118512500Y-122040000D01*
X120320000Y-122040000D01*
X120320000Y-120952500D01*
X120107500Y-120740000D01*
X118980925Y-120740000D01*
X118668514Y-120869405D01*
X118429405Y-121108513D01*
X118300000Y-121420924D01*
X117800000Y-121420924D01*
X117670595Y-121108513D01*
X117431486Y-120869405D01*
X117119075Y-120740000D01*
X115312500Y-120740000D01*
X115100000Y-120952500D01*
X115000000Y-120952500D01*
X114787500Y-120740000D01*
X112980925Y-120740000D01*
X112668514Y-120869405D01*
X112429405Y-121108513D01*
X112300000Y-121420924D01*
X111800000Y-121420924D01*
X111670595Y-121108513D01*
X111431486Y-120869405D01*
X111119075Y-120740000D01*
X109312500Y-120740000D01*
X109100000Y-120952500D01*
X109000000Y-120952500D01*
X108787500Y-120740000D01*
X106980925Y-120740000D01*
X106668514Y-120869405D01*
X106429405Y-121108513D01*
X106300000Y-121420924D01*
X105800000Y-121420924D01*
X105670595Y-121108513D01*
X105431486Y-120869405D01*
X105119075Y-120740000D01*
X103312500Y-120740000D01*
X103100000Y-120952500D01*
X103000000Y-120952500D01*
X102787500Y-120740000D01*
X101553999Y-120740000D01*
X101553999Y-118980924D01*
X120740000Y-118980924D01*
X120740000Y-120107500D01*
X120952500Y-120320000D01*
X122040000Y-120320000D01*
X122040000Y-118512500D01*
X121827500Y-118300000D01*
X121420925Y-118300000D01*
X121108514Y-118429405D01*
X120869405Y-118668513D01*
X120740000Y-118980924D01*
X101553999Y-118980924D01*
X101553999Y-115312500D01*
X120740000Y-115312500D01*
X120740000Y-117119076D01*
X120869405Y-117431487D01*
X121108514Y-117670595D01*
X121420925Y-117800000D01*
X121827500Y-117800000D01*
X122040000Y-117587500D01*
X122040000Y-115100000D01*
X120952500Y-115100000D01*
X120740000Y-115312500D01*
X101553999Y-115312500D01*
X101553999Y-112980924D01*
X120740000Y-112980924D01*
X120740000Y-114787500D01*
X120952500Y-115000000D01*
X122040000Y-115000000D01*
X122040000Y-112512500D01*
X121827500Y-112300000D01*
X121420925Y-112300000D01*
X121108514Y-112429405D01*
X120869405Y-112668513D01*
X120740000Y-112980924D01*
X101553999Y-112980924D01*
X101553999Y-111515000D01*
X101591500Y-111515000D01*
X101804000Y-111302500D01*
X101804000Y-110265000D01*
X101904000Y-110265000D01*
X101904000Y-111302500D01*
X102116500Y-111515000D01*
X102873076Y-111515000D01*
X103185487Y-111385595D01*
X103424595Y-111146486D01*
X103554000Y-110834075D01*
X103554000Y-110477500D01*
X103341500Y-110265000D01*
X101904000Y-110265000D01*
X101804000Y-110265000D01*
X101784000Y-110265000D01*
X101784000Y-110165000D01*
X101804000Y-110165000D01*
X101804000Y-110145000D01*
X101904000Y-110145000D01*
X101904000Y-110165000D01*
X103341500Y-110165000D01*
X103554000Y-109952500D01*
X103554000Y-109595925D01*
X103436602Y-109312500D01*
X120740000Y-109312500D01*
X120740000Y-111119076D01*
X120869405Y-111431487D01*
X121108514Y-111670595D01*
X121420925Y-111800000D01*
X121827500Y-111800000D01*
X122040000Y-111587500D01*
X122040000Y-109100000D01*
X120952500Y-109100000D01*
X120740000Y-109312500D01*
X103436602Y-109312500D01*
X103424595Y-109283514D01*
X103185487Y-109044405D01*
X102873076Y-108915000D01*
X102418214Y-108915000D01*
X102561107Y-108772107D01*
X102654956Y-108631652D01*
X102704000Y-108631652D01*
X103018991Y-108572382D01*
X103308291Y-108386223D01*
X103502372Y-108102176D01*
X103570652Y-107765000D01*
X103570652Y-106980924D01*
X120740000Y-106980924D01*
X120740000Y-108787500D01*
X120952500Y-109000000D01*
X122040000Y-109000000D01*
X122040000Y-106512500D01*
X121827500Y-106300000D01*
X121420925Y-106300000D01*
X121108514Y-106429405D01*
X120869405Y-106668513D01*
X120740000Y-106980924D01*
X103570652Y-106980924D01*
X103570652Y-106865000D01*
X103511382Y-106550009D01*
X103325223Y-106260709D01*
X103116573Y-106118144D01*
X103120652Y-106098000D01*
X103120652Y-105683963D01*
X105158941Y-105659983D01*
X105246864Y-105642903D01*
X105330318Y-105589202D01*
X105386304Y-105507264D01*
X105406000Y-105410000D01*
X105406000Y-103312500D01*
X120740000Y-103312500D01*
X120740000Y-105119076D01*
X120869405Y-105431487D01*
X121108514Y-105670595D01*
X121420925Y-105800000D01*
X121827500Y-105800000D01*
X122040000Y-105587500D01*
X122040000Y-103100000D01*
X120952500Y-103100000D01*
X120740000Y-103312500D01*
X105406000Y-103312500D01*
X105406000Y-100980924D01*
X120740000Y-100980924D01*
X120740000Y-102787500D01*
X120952500Y-103000000D01*
X122040000Y-103000000D01*
X122040000Y-100512500D01*
X121827500Y-100300000D01*
X121420925Y-100300000D01*
X121108514Y-100429405D01*
X120869405Y-100668513D01*
X120740000Y-100980924D01*
X105406000Y-100980924D01*
X105406000Y-97212500D01*
X120740000Y-97212500D01*
X120740000Y-99019076D01*
X120869405Y-99331487D01*
X121108514Y-99570595D01*
X121420925Y-99700000D01*
X121827500Y-99700000D01*
X122040000Y-99487500D01*
X122040000Y-97000000D01*
X120952500Y-97000000D01*
X120740000Y-97212500D01*
X105406000Y-97212500D01*
X105406000Y-94880924D01*
X120740000Y-94880924D01*
X120740000Y-96687500D01*
X120952500Y-96900000D01*
X122040000Y-96900000D01*
X122040000Y-94412500D01*
X121827500Y-94200000D01*
X121420925Y-94200000D01*
X121108514Y-94329405D01*
X120869405Y-94568513D01*
X120740000Y-94880924D01*
X105406000Y-94880924D01*
X105406000Y-94488000D01*
X105388903Y-94397136D01*
X105335202Y-94313682D01*
X105253264Y-94257696D01*
X105156000Y-94238000D01*
X95379433Y-94238000D01*
X94492888Y-94220664D01*
X94397136Y-94237713D01*
X94313682Y-94291414D01*
X94257696Y-94373352D01*
X94238000Y-94470616D01*
X94238000Y-105519064D01*
X93892892Y-105864172D01*
X93676119Y-106188595D01*
X93676119Y-106188596D01*
X93599999Y-106571279D01*
X93599999Y-121179500D01*
X93570595Y-121108513D01*
X93331486Y-120869405D01*
X93019075Y-120740000D01*
X91212500Y-120740000D01*
X91000000Y-120952500D01*
X91000000Y-122040000D01*
X91020000Y-122040000D01*
X91020000Y-122140000D01*
X91000000Y-122140000D01*
X91000000Y-123227500D01*
X91212500Y-123440000D01*
X93019075Y-123440000D01*
X93331486Y-123310595D01*
X93570595Y-123071487D01*
X93599999Y-123000500D01*
X93599999Y-124348785D01*
X88192893Y-129755891D01*
X87976120Y-130080314D01*
X87928842Y-130318000D01*
X87900000Y-130462998D01*
X87900000Y-147006981D01*
X87785009Y-147028618D01*
X87495709Y-147214777D01*
X87301628Y-147498824D01*
X87233348Y-147836000D01*
X76998000Y-147836000D01*
X76998000Y-123339377D01*
X77240925Y-123440000D01*
X77647500Y-123440000D01*
X77852709Y-123234791D01*
X77928514Y-123310595D01*
X78124116Y-123391616D01*
X78172500Y-123440000D01*
X79367500Y-123440000D01*
X79580000Y-123227500D01*
X79580000Y-122140000D01*
X79680000Y-122140000D01*
X79680000Y-123227500D01*
X79892500Y-123440000D01*
X81019075Y-123440000D01*
X81331486Y-123310595D01*
X81570595Y-123071487D01*
X81700000Y-122759076D01*
X81700000Y-122352500D01*
X82200000Y-122352500D01*
X82200000Y-122759076D01*
X82329405Y-123071487D01*
X82568514Y-123310595D01*
X82880925Y-123440000D01*
X84687500Y-123440000D01*
X84900000Y-123227500D01*
X84900000Y-122140000D01*
X85000000Y-122140000D01*
X85000000Y-123227500D01*
X85212500Y-123440000D01*
X87019075Y-123440000D01*
X87331486Y-123310595D01*
X87570595Y-123071487D01*
X87700000Y-122759076D01*
X87700000Y-122352500D01*
X88200000Y-122352500D01*
X88200000Y-122759076D01*
X88329405Y-123071487D01*
X88568514Y-123310595D01*
X88880925Y-123440000D01*
X90687500Y-123440000D01*
X90900000Y-123227500D01*
X90900000Y-122140000D01*
X88412500Y-122140000D01*
X88200000Y-122352500D01*
X87700000Y-122352500D01*
X87487500Y-122140000D01*
X85000000Y-122140000D01*
X84900000Y-122140000D01*
X82412500Y-122140000D01*
X82200000Y-122352500D01*
X81700000Y-122352500D01*
X81487500Y-122140000D01*
X79680000Y-122140000D01*
X79580000Y-122140000D01*
X79560000Y-122140000D01*
X79560000Y-122040000D01*
X79580000Y-122040000D01*
X79580000Y-120952500D01*
X79680000Y-120952500D01*
X79680000Y-122040000D01*
X81487500Y-122040000D01*
X81700000Y-121827500D01*
X81700000Y-121420924D01*
X82200000Y-121420924D01*
X82200000Y-121827500D01*
X82412500Y-122040000D01*
X84900000Y-122040000D01*
X84900000Y-120952500D01*
X85000000Y-120952500D01*
X85000000Y-122040000D01*
X87487500Y-122040000D01*
X87700000Y-121827500D01*
X87700000Y-121420924D01*
X88200000Y-121420924D01*
X88200000Y-121827500D01*
X88412500Y-122040000D01*
X90900000Y-122040000D01*
X90900000Y-120952500D01*
X90687500Y-120740000D01*
X88880925Y-120740000D01*
X88568514Y-120869405D01*
X88329405Y-121108513D01*
X88200000Y-121420924D01*
X87700000Y-121420924D01*
X87570595Y-121108513D01*
X87331486Y-120869405D01*
X87019075Y-120740000D01*
X85212500Y-120740000D01*
X85000000Y-120952500D01*
X84900000Y-120952500D01*
X84687500Y-120740000D01*
X82880925Y-120740000D01*
X82568514Y-120869405D01*
X82329405Y-121108513D01*
X82200000Y-121420924D01*
X81700000Y-121420924D01*
X81570595Y-121108513D01*
X81331486Y-120869405D01*
X81019075Y-120740000D01*
X79892500Y-120740000D01*
X79680000Y-120952500D01*
X79580000Y-120952500D01*
X79367500Y-120740000D01*
X79260000Y-120740000D01*
X79260000Y-120632500D01*
X79047500Y-120420000D01*
X77960000Y-120420000D01*
X77960000Y-120440000D01*
X77860000Y-120440000D01*
X77860000Y-120420000D01*
X77840000Y-120420000D01*
X77840000Y-120320000D01*
X77860000Y-120320000D01*
X77860000Y-118512500D01*
X77960000Y-118512500D01*
X77960000Y-120320000D01*
X79047500Y-120320000D01*
X79260000Y-120107500D01*
X79260000Y-118980924D01*
X79130595Y-118668513D01*
X78891486Y-118429405D01*
X78579075Y-118300000D01*
X78172500Y-118300000D01*
X77960000Y-118512500D01*
X77860000Y-118512500D01*
X77647500Y-118300000D01*
X77240925Y-118300000D01*
X76998000Y-118400623D01*
X76998000Y-117699377D01*
X77240925Y-117800000D01*
X77647500Y-117800000D01*
X77860000Y-117587500D01*
X77860000Y-115100000D01*
X77960000Y-115100000D01*
X77960000Y-117587500D01*
X78172500Y-117800000D01*
X78579075Y-117800000D01*
X78891486Y-117670595D01*
X79130595Y-117431487D01*
X79260000Y-117119076D01*
X79260000Y-115312500D01*
X79047500Y-115100000D01*
X77960000Y-115100000D01*
X77860000Y-115100000D01*
X77840000Y-115100000D01*
X77840000Y-115000000D01*
X77860000Y-115000000D01*
X77860000Y-112512500D01*
X77960000Y-112512500D01*
X77960000Y-115000000D01*
X79047500Y-115000000D01*
X79260000Y-114787500D01*
X79260000Y-112980924D01*
X79130595Y-112668513D01*
X78891486Y-112429405D01*
X78579075Y-112300000D01*
X78172500Y-112300000D01*
X77960000Y-112512500D01*
X77860000Y-112512500D01*
X77647500Y-112300000D01*
X77240925Y-112300000D01*
X76998000Y-112400623D01*
X76998000Y-111699377D01*
X77240925Y-111800000D01*
X77647500Y-111800000D01*
X77860000Y-111587500D01*
X77860000Y-109100000D01*
X77960000Y-109100000D01*
X77960000Y-111587500D01*
X78172500Y-111800000D01*
X78579075Y-111800000D01*
X78891486Y-111670595D01*
X79130595Y-111431487D01*
X79260000Y-111119076D01*
X79260000Y-109312500D01*
X79047500Y-109100000D01*
X77960000Y-109100000D01*
X77860000Y-109100000D01*
X77840000Y-109100000D01*
X77840000Y-109000000D01*
X77860000Y-109000000D01*
X77860000Y-106512500D01*
X77960000Y-106512500D01*
X77960000Y-109000000D01*
X79047500Y-109000000D01*
X79260000Y-108787500D01*
X79260000Y-106980924D01*
X79130595Y-106668513D01*
X78891486Y-106429405D01*
X78579075Y-106300000D01*
X78172500Y-106300000D01*
X77960000Y-106512500D01*
X77860000Y-106512500D01*
X77647500Y-106300000D01*
X77240925Y-106300000D01*
X76998000Y-106400623D01*
X76998000Y-105699377D01*
X77240925Y-105800000D01*
X77647500Y-105800000D01*
X77860000Y-105587500D01*
X77860000Y-103100000D01*
X77960000Y-103100000D01*
X77960000Y-105587500D01*
X78172500Y-105800000D01*
X78579075Y-105800000D01*
X78891486Y-105670595D01*
X79130595Y-105431487D01*
X79260000Y-105119076D01*
X79260000Y-103312500D01*
X79047500Y-103100000D01*
X77960000Y-103100000D01*
X77860000Y-103100000D01*
X77840000Y-103100000D01*
X77840000Y-103000000D01*
X77860000Y-103000000D01*
X77860000Y-100512500D01*
X77960000Y-100512500D01*
X77960000Y-103000000D01*
X79047500Y-103000000D01*
X79260000Y-102787500D01*
X79260000Y-100980924D01*
X79130595Y-100668513D01*
X78891486Y-100429405D01*
X78579075Y-100300000D01*
X78172500Y-100300000D01*
X77960000Y-100512500D01*
X77860000Y-100512500D01*
X77647500Y-100300000D01*
X77240925Y-100300000D01*
X76998000Y-100400623D01*
X76998000Y-99599377D01*
X77240925Y-99700000D01*
X77647500Y-99700000D01*
X77860000Y-99487500D01*
X77860000Y-97000000D01*
X77960000Y-97000000D01*
X77960000Y-99487500D01*
X78172500Y-99700000D01*
X78579075Y-99700000D01*
X78891486Y-99570595D01*
X79130595Y-99331487D01*
X79260000Y-99019076D01*
X79260000Y-97212500D01*
X79047500Y-97000000D01*
X77960000Y-97000000D01*
X77860000Y-97000000D01*
X77840000Y-97000000D01*
X77840000Y-96900000D01*
X77860000Y-96900000D01*
X77860000Y-94412500D01*
X77960000Y-94412500D01*
X77960000Y-96900000D01*
X79047500Y-96900000D01*
X79260000Y-96687500D01*
X79260000Y-94880924D01*
X79130595Y-94568513D01*
X78891486Y-94329405D01*
X78579075Y-94200000D01*
X78172500Y-94200000D01*
X77960000Y-94412500D01*
X77860000Y-94412500D01*
X77647500Y-94200000D01*
X77240925Y-94200000D01*
X76998000Y-94300623D01*
X76998000Y-93599377D01*
X77240925Y-93700000D01*
X77647500Y-93700000D01*
X77860000Y-93487500D01*
X77860000Y-91000000D01*
X77960000Y-91000000D01*
X77960000Y-93487500D01*
X78172500Y-93700000D01*
X78579075Y-93700000D01*
X78891486Y-93570595D01*
X79130595Y-93331487D01*
X79260000Y-93019076D01*
X79260000Y-91212500D01*
X120740000Y-91212500D01*
X120740000Y-93019076D01*
X120869405Y-93331487D01*
X121108514Y-93570595D01*
X121420925Y-93700000D01*
X121827500Y-93700000D01*
X122040000Y-93487500D01*
X122040000Y-91000000D01*
X120952500Y-91000000D01*
X120740000Y-91212500D01*
X79260000Y-91212500D01*
X79047500Y-91000000D01*
X77960000Y-91000000D01*
X77860000Y-91000000D01*
X77840000Y-91000000D01*
X77840000Y-90900000D01*
X77860000Y-90900000D01*
X77860000Y-88412500D01*
X77960000Y-88412500D01*
X77960000Y-90900000D01*
X79047500Y-90900000D01*
X79260000Y-90687500D01*
X79260000Y-88880924D01*
X120740000Y-88880924D01*
X120740000Y-90687500D01*
X120952500Y-90900000D01*
X122040000Y-90900000D01*
X122040000Y-88412500D01*
X121827500Y-88200000D01*
X121420925Y-88200000D01*
X121108514Y-88329405D01*
X120869405Y-88568513D01*
X120740000Y-88880924D01*
X79260000Y-88880924D01*
X79130595Y-88568513D01*
X78891486Y-88329405D01*
X78579075Y-88200000D01*
X78172500Y-88200000D01*
X77960000Y-88412500D01*
X77860000Y-88412500D01*
X77647500Y-88200000D01*
X77240925Y-88200000D01*
X76998000Y-88300623D01*
X76998000Y-87599377D01*
X77240925Y-87700000D01*
X77647500Y-87700000D01*
X77860000Y-87487500D01*
X77860000Y-85000000D01*
X77960000Y-85000000D01*
X77960000Y-87487500D01*
X78172500Y-87700000D01*
X78579075Y-87700000D01*
X78891486Y-87570595D01*
X79130595Y-87331487D01*
X79260000Y-87019076D01*
X79260000Y-85212500D01*
X120740000Y-85212500D01*
X120740000Y-87019076D01*
X120869405Y-87331487D01*
X121108514Y-87570595D01*
X121420925Y-87700000D01*
X121827500Y-87700000D01*
X122040000Y-87487500D01*
X122040000Y-85000000D01*
X120952500Y-85000000D01*
X120740000Y-85212500D01*
X79260000Y-85212500D01*
X79047500Y-85000000D01*
X77960000Y-85000000D01*
X77860000Y-85000000D01*
X77840000Y-85000000D01*
X77840000Y-84900000D01*
X77860000Y-84900000D01*
X77860000Y-82412500D01*
X77960000Y-82412500D01*
X77960000Y-84900000D01*
X79047500Y-84900000D01*
X79260000Y-84687500D01*
X79260000Y-82880924D01*
X120740000Y-82880924D01*
X120740000Y-84687500D01*
X120952500Y-84900000D01*
X122040000Y-84900000D01*
X122040000Y-82412500D01*
X121827500Y-82200000D01*
X121420925Y-82200000D01*
X121108514Y-82329405D01*
X120869405Y-82568513D01*
X120740000Y-82880924D01*
X79260000Y-82880924D01*
X79130595Y-82568513D01*
X78891486Y-82329405D01*
X78579075Y-82200000D01*
X78172500Y-82200000D01*
X77960000Y-82412500D01*
X77860000Y-82412500D01*
X77647500Y-82200000D01*
X77240925Y-82200000D01*
X76998000Y-82300623D01*
X76998000Y-81599377D01*
X77240925Y-81700000D01*
X77647500Y-81700000D01*
X77860000Y-81487500D01*
X77860000Y-79680000D01*
X77960000Y-79680000D01*
X77960000Y-81487500D01*
X78172500Y-81700000D01*
X78579075Y-81700000D01*
X78891486Y-81570595D01*
X79130595Y-81331487D01*
X79260000Y-81019076D01*
X79260000Y-79892500D01*
X120740000Y-79892500D01*
X120740000Y-81019076D01*
X120869405Y-81331487D01*
X121108514Y-81570595D01*
X121420925Y-81700000D01*
X121827500Y-81700000D01*
X122040000Y-81487500D01*
X122040000Y-79680000D01*
X120952500Y-79680000D01*
X120740000Y-79892500D01*
X79260000Y-79892500D01*
X79047500Y-79680000D01*
X77960000Y-79680000D01*
X77860000Y-79680000D01*
X77840000Y-79680000D01*
X77840000Y-79580000D01*
X77860000Y-79580000D01*
X77860000Y-79560000D01*
X77960000Y-79560000D01*
X77960000Y-79580000D01*
X79047500Y-79580000D01*
X79260000Y-79367500D01*
X79260000Y-79260000D01*
X79367500Y-79260000D01*
X79580000Y-79047500D01*
X79580000Y-77960000D01*
X79680000Y-77960000D01*
X79680000Y-79047500D01*
X79892500Y-79260000D01*
X81019075Y-79260000D01*
X81331486Y-79130595D01*
X81570595Y-78891487D01*
X81700000Y-78579076D01*
X81700000Y-78172500D01*
X82200000Y-78172500D01*
X82200000Y-78579076D01*
X82329405Y-78891487D01*
X82568514Y-79130595D01*
X82880925Y-79260000D01*
X84687500Y-79260000D01*
X84900000Y-79047500D01*
X84900000Y-77960000D01*
X85000000Y-77960000D01*
X85000000Y-79047500D01*
X85212500Y-79260000D01*
X87019075Y-79260000D01*
X87331486Y-79130595D01*
X87570595Y-78891487D01*
X87700000Y-78579076D01*
X87700000Y-78172500D01*
X88200000Y-78172500D01*
X88200000Y-78579076D01*
X88329405Y-78891487D01*
X88568514Y-79130595D01*
X88880925Y-79260000D01*
X90687500Y-79260000D01*
X90900000Y-79047500D01*
X90900000Y-77960000D01*
X91000000Y-77960000D01*
X91000000Y-79047500D01*
X91212500Y-79260000D01*
X93019075Y-79260000D01*
X93331486Y-79130595D01*
X93570595Y-78891487D01*
X93700000Y-78579076D01*
X93700000Y-78172500D01*
X94200000Y-78172500D01*
X94200000Y-78579076D01*
X94329405Y-78891487D01*
X94568514Y-79130595D01*
X94880925Y-79260000D01*
X96687500Y-79260000D01*
X96900000Y-79047500D01*
X96900000Y-77960000D01*
X97000000Y-77960000D01*
X97000000Y-79047500D01*
X97212500Y-79260000D01*
X99019075Y-79260000D01*
X99331486Y-79130595D01*
X99570595Y-78891487D01*
X99700000Y-78579076D01*
X99700000Y-78172500D01*
X100300000Y-78172500D01*
X100300000Y-78579076D01*
X100429405Y-78891487D01*
X100668514Y-79130595D01*
X100980925Y-79260000D01*
X102787500Y-79260000D01*
X103000000Y-79047500D01*
X103000000Y-77960000D01*
X103100000Y-77960000D01*
X103100000Y-79047500D01*
X103312500Y-79260000D01*
X105119075Y-79260000D01*
X105431486Y-79130595D01*
X105670595Y-78891487D01*
X105800000Y-78579076D01*
X105800000Y-78172500D01*
X106300000Y-78172500D01*
X106300000Y-78579076D01*
X106429405Y-78891487D01*
X106668514Y-79130595D01*
X106980925Y-79260000D01*
X108787500Y-79260000D01*
X109000000Y-79047500D01*
X109000000Y-77960000D01*
X109100000Y-77960000D01*
X109100000Y-79047500D01*
X109312500Y-79260000D01*
X111119075Y-79260000D01*
X111431486Y-79130595D01*
X111670595Y-78891487D01*
X111800000Y-78579076D01*
X111800000Y-78172500D01*
X112300000Y-78172500D01*
X112300000Y-78579076D01*
X112429405Y-78891487D01*
X112668514Y-79130595D01*
X112980925Y-79260000D01*
X114787500Y-79260000D01*
X115000000Y-79047500D01*
X115000000Y-77960000D01*
X115100000Y-77960000D01*
X115100000Y-79047500D01*
X115312500Y-79260000D01*
X117119075Y-79260000D01*
X117431486Y-79130595D01*
X117670595Y-78891487D01*
X117800000Y-78579076D01*
X117800000Y-78172500D01*
X118300000Y-78172500D01*
X118300000Y-78579076D01*
X118429405Y-78891487D01*
X118668514Y-79130595D01*
X118980925Y-79260000D01*
X120107500Y-79260000D01*
X120320000Y-79047500D01*
X120320000Y-77960000D01*
X118512500Y-77960000D01*
X118300000Y-78172500D01*
X117800000Y-78172500D01*
X117587500Y-77960000D01*
X115100000Y-77960000D01*
X115000000Y-77960000D01*
X112512500Y-77960000D01*
X112300000Y-78172500D01*
X111800000Y-78172500D01*
X111587500Y-77960000D01*
X109100000Y-77960000D01*
X109000000Y-77960000D01*
X106512500Y-77960000D01*
X106300000Y-78172500D01*
X105800000Y-78172500D01*
X105587500Y-77960000D01*
X103100000Y-77960000D01*
X103000000Y-77960000D01*
X100512500Y-77960000D01*
X100300000Y-78172500D01*
X99700000Y-78172500D01*
X99487500Y-77960000D01*
X97000000Y-77960000D01*
X96900000Y-77960000D01*
X94412500Y-77960000D01*
X94200000Y-78172500D01*
X93700000Y-78172500D01*
X93487500Y-77960000D01*
X91000000Y-77960000D01*
X90900000Y-77960000D01*
X88412500Y-77960000D01*
X88200000Y-78172500D01*
X87700000Y-78172500D01*
X87487500Y-77960000D01*
X85000000Y-77960000D01*
X84900000Y-77960000D01*
X82412500Y-77960000D01*
X82200000Y-78172500D01*
X81700000Y-78172500D01*
X81487500Y-77960000D01*
X79680000Y-77960000D01*
X79580000Y-77960000D01*
X79560000Y-77960000D01*
X79560000Y-77860000D01*
X79580000Y-77860000D01*
X79580000Y-77840000D01*
X79680000Y-77840000D01*
X79680000Y-77860000D01*
X81487500Y-77860000D01*
X81700000Y-77647500D01*
X81700000Y-77240924D01*
X81570595Y-76928513D01*
X81513082Y-76871000D01*
X82386918Y-76871000D01*
X82329405Y-76928513D01*
G36*
X92514999Y-141025999D02*
X92591119Y-141408683D01*
X92807892Y-141733106D01*
X100528581Y-149453794D01*
X100469352Y-149596434D01*
X100468650Y-150400040D01*
X100775529Y-151142743D01*
X101343268Y-151711474D01*
X102085434Y-152019648D01*
X102889040Y-152020350D01*
X103631743Y-151713471D01*
X104200474Y-151145732D01*
X104260987Y-151000000D01*
X107429000Y-151000000D01*
X107811684Y-150923880D01*
X107994197Y-150801928D01*
X108364157Y-150802251D01*
X108897286Y-150581967D01*
X108950001Y-150529344D01*
X108950001Y-154033348D01*
X107000000Y-154033348D01*
X106685009Y-154092618D01*
X106395709Y-154278777D01*
X106244554Y-154500000D01*
X101666652Y-154500000D01*
X101666652Y-154200000D01*
X101607382Y-153885009D01*
X101421223Y-153595709D01*
X101137176Y-153401628D01*
X100800000Y-153333348D01*
X99200000Y-153333348D01*
X98885009Y-153392618D01*
X98595709Y-153578777D01*
X98401628Y-153862824D01*
X98333348Y-154200000D01*
X98333348Y-155800000D01*
X98392618Y-156114991D01*
X98578777Y-156404291D01*
X98862824Y-156598372D01*
X99200000Y-156666652D01*
X100800000Y-156666652D01*
X101114991Y-156607382D01*
X101281868Y-156500000D01*
X106247320Y-156500000D01*
X106378777Y-156704291D01*
X106443131Y-156748262D01*
X106395709Y-156778777D01*
X106201628Y-157062824D01*
X106133348Y-157400000D01*
X106133348Y-158600000D01*
X106192618Y-158914991D01*
X106378777Y-159204291D01*
X106443131Y-159248262D01*
X106395709Y-159278777D01*
X106201628Y-159562824D01*
X106133348Y-159900000D01*
X106133348Y-161100000D01*
X106192618Y-161414991D01*
X106378777Y-161704291D01*
X106662824Y-161898372D01*
X107000000Y-161966652D01*
X109500000Y-161966652D01*
X109814991Y-161907382D01*
X110104291Y-161721223D01*
X110298372Y-161437176D01*
X110366652Y-161100000D01*
X110366652Y-159900000D01*
X110307382Y-159585009D01*
X110121223Y-159295709D01*
X110056869Y-159251738D01*
X110104291Y-159221223D01*
X110298372Y-158937176D01*
X110366652Y-158600000D01*
X110366652Y-157947562D01*
X110657108Y-157657106D01*
X110873881Y-157332683D01*
X110950002Y-156949999D01*
X110950001Y-156949994D01*
X110950001Y-151749000D01*
X117213106Y-151749000D01*
X117321957Y-151911906D01*
X117842656Y-152259827D01*
X118456863Y-152382000D01*
X120049137Y-152382000D01*
X120663344Y-152259827D01*
X121174000Y-151918617D01*
X121174000Y-154321788D01*
X115823757Y-159672031D01*
X115807382Y-159585009D01*
X115621223Y-159295709D01*
X115556869Y-159251738D01*
X115604291Y-159221223D01*
X115798372Y-158937176D01*
X115866652Y-158600000D01*
X115866652Y-157400000D01*
X115807382Y-157085009D01*
X115621223Y-156795709D01*
X115556869Y-156751738D01*
X115604291Y-156721223D01*
X115798372Y-156437176D01*
X115866652Y-156100000D01*
X115866652Y-154900000D01*
X115807382Y-154585009D01*
X115621223Y-154295709D01*
X115337176Y-154101628D01*
X115000000Y-154033348D01*
X112500000Y-154033348D01*
X112185009Y-154092618D01*
X111895709Y-154278777D01*
X111701628Y-154562824D01*
X111633348Y-154900000D01*
X111633348Y-156100000D01*
X111692618Y-156414991D01*
X111878777Y-156704291D01*
X111943131Y-156748262D01*
X111895709Y-156778777D01*
X111701628Y-157062824D01*
X111633348Y-157400000D01*
X111633348Y-158600000D01*
X111692618Y-158914991D01*
X111878777Y-159204291D01*
X111943131Y-159248262D01*
X111895709Y-159278777D01*
X111701628Y-159562824D01*
X111633348Y-159900000D01*
X111633348Y-161100000D01*
X111692618Y-161414991D01*
X111878777Y-161704291D01*
X112162824Y-161898372D01*
X112500000Y-161966652D01*
X113529136Y-161966652D01*
X109645788Y-165850000D01*
X102766652Y-165850000D01*
X102707382Y-165535009D01*
X102521223Y-165245709D01*
X102237176Y-165051628D01*
X101900000Y-164983348D01*
X98100000Y-164983348D01*
X97785009Y-165042618D01*
X97495709Y-165228777D01*
X97301628Y-165512824D01*
X97266000Y-165688760D01*
X97266000Y-163674077D01*
X98996634Y-163674077D01*
X99052042Y-163989818D01*
X99656061Y-164246792D01*
X100312441Y-164253057D01*
X100921255Y-164007659D01*
X100947958Y-163989818D01*
X101003366Y-163674077D01*
X100000000Y-162670711D01*
X98996634Y-163674077D01*
X97266000Y-163674077D01*
X97266000Y-162912441D01*
X98346943Y-162912441D01*
X98592341Y-163521255D01*
X98610182Y-163547958D01*
X98925923Y-163603366D01*
X99929289Y-162600000D01*
X100070711Y-162600000D01*
X101074077Y-163603366D01*
X101389818Y-163547958D01*
X101646792Y-162943939D01*
X101653057Y-162287559D01*
X101407659Y-161678745D01*
X101389818Y-161652042D01*
X101074077Y-161596634D01*
X100070711Y-162600000D01*
X99929289Y-162600000D01*
X98925923Y-161596634D01*
X98610182Y-161652042D01*
X98353208Y-162256061D01*
X98346943Y-162912441D01*
X97266000Y-162912441D01*
X97266000Y-161525923D01*
X98996634Y-161525923D01*
X100000000Y-162529289D01*
X101003366Y-161525923D01*
X100947958Y-161210182D01*
X100343939Y-160953208D01*
X99687559Y-160946943D01*
X99078745Y-161192341D01*
X99052042Y-161210182D01*
X98996634Y-161525923D01*
X97266000Y-161525923D01*
X97266000Y-153162005D01*
X97266001Y-153162000D01*
X97189880Y-152779316D01*
X96973107Y-152454893D01*
X94918254Y-150400040D01*
X95468650Y-150400040D01*
X95775529Y-151142743D01*
X96343268Y-151711474D01*
X97085434Y-152019648D01*
X97889040Y-152020350D01*
X98631743Y-151713471D01*
X99200474Y-151145732D01*
X99508648Y-150403566D01*
X99509350Y-149599960D01*
X99202471Y-148857257D01*
X98634732Y-148288526D01*
X97892566Y-147980352D01*
X97088960Y-147979650D01*
X96346257Y-148286529D01*
X95777526Y-148854268D01*
X95469352Y-149596434D01*
X95468650Y-150400040D01*
X94918254Y-150400040D01*
X92147107Y-147628893D01*
X91822684Y-147412120D01*
X91440000Y-147336000D01*
X90388332Y-147336000D01*
X90321223Y-147231709D01*
X90037176Y-147037628D01*
X89900000Y-147009849D01*
X89900000Y-130877212D01*
X92514999Y-128262213D01*
X92514999Y-141025999D01*
X92514999Y-141025999D01*
G37*
X92514999Y-141025999D02*
X92591119Y-141408683D01*
X92807892Y-141733106D01*
X100528581Y-149453794D01*
X100469352Y-149596434D01*
X100468650Y-150400040D01*
X100775529Y-151142743D01*
X101343268Y-151711474D01*
X102085434Y-152019648D01*
X102889040Y-152020350D01*
X103631743Y-151713471D01*
X104200474Y-151145732D01*
X104260987Y-151000000D01*
X107429000Y-151000000D01*
X107811684Y-150923880D01*
X107994197Y-150801928D01*
X108364157Y-150802251D01*
X108897286Y-150581967D01*
X108950001Y-150529344D01*
X108950001Y-154033348D01*
X107000000Y-154033348D01*
X106685009Y-154092618D01*
X106395709Y-154278777D01*
X106244554Y-154500000D01*
X101666652Y-154500000D01*
X101666652Y-154200000D01*
X101607382Y-153885009D01*
X101421223Y-153595709D01*
X101137176Y-153401628D01*
X100800000Y-153333348D01*
X99200000Y-153333348D01*
X98885009Y-153392618D01*
X98595709Y-153578777D01*
X98401628Y-153862824D01*
X98333348Y-154200000D01*
X98333348Y-155800000D01*
X98392618Y-156114991D01*
X98578777Y-156404291D01*
X98862824Y-156598372D01*
X99200000Y-156666652D01*
X100800000Y-156666652D01*
X101114991Y-156607382D01*
X101281868Y-156500000D01*
X106247320Y-156500000D01*
X106378777Y-156704291D01*
X106443131Y-156748262D01*
X106395709Y-156778777D01*
X106201628Y-157062824D01*
X106133348Y-157400000D01*
X106133348Y-158600000D01*
X106192618Y-158914991D01*
X106378777Y-159204291D01*
X106443131Y-159248262D01*
X106395709Y-159278777D01*
X106201628Y-159562824D01*
X106133348Y-159900000D01*
X106133348Y-161100000D01*
X106192618Y-161414991D01*
X106378777Y-161704291D01*
X106662824Y-161898372D01*
X107000000Y-161966652D01*
X109500000Y-161966652D01*
X109814991Y-161907382D01*
X110104291Y-161721223D01*
X110298372Y-161437176D01*
X110366652Y-161100000D01*
X110366652Y-159900000D01*
X110307382Y-159585009D01*
X110121223Y-159295709D01*
X110056869Y-159251738D01*
X110104291Y-159221223D01*
X110298372Y-158937176D01*
X110366652Y-158600000D01*
X110366652Y-157947562D01*
X110657108Y-157657106D01*
X110873881Y-157332683D01*
X110950002Y-156949999D01*
X110950001Y-156949994D01*
X110950001Y-151749000D01*
X117213106Y-151749000D01*
X117321957Y-151911906D01*
X117842656Y-152259827D01*
X118456863Y-152382000D01*
X120049137Y-152382000D01*
X120663344Y-152259827D01*
X121174000Y-151918617D01*
X121174000Y-154321788D01*
X115823757Y-159672031D01*
X115807382Y-159585009D01*
X115621223Y-159295709D01*
X115556869Y-159251738D01*
X115604291Y-159221223D01*
X115798372Y-158937176D01*
X115866652Y-158600000D01*
X115866652Y-157400000D01*
X115807382Y-157085009D01*
X115621223Y-156795709D01*
X115556869Y-156751738D01*
X115604291Y-156721223D01*
X115798372Y-156437176D01*
X115866652Y-156100000D01*
X115866652Y-154900000D01*
X115807382Y-154585009D01*
X115621223Y-154295709D01*
X115337176Y-154101628D01*
X115000000Y-154033348D01*
X112500000Y-154033348D01*
X112185009Y-154092618D01*
X111895709Y-154278777D01*
X111701628Y-154562824D01*
X111633348Y-154900000D01*
X111633348Y-156100000D01*
X111692618Y-156414991D01*
X111878777Y-156704291D01*
X111943131Y-156748262D01*
X111895709Y-156778777D01*
X111701628Y-157062824D01*
X111633348Y-157400000D01*
X111633348Y-158600000D01*
X111692618Y-158914991D01*
X111878777Y-159204291D01*
X111943131Y-159248262D01*
X111895709Y-159278777D01*
X111701628Y-159562824D01*
X111633348Y-159900000D01*
X111633348Y-161100000D01*
X111692618Y-161414991D01*
X111878777Y-161704291D01*
X112162824Y-161898372D01*
X112500000Y-161966652D01*
X113529136Y-161966652D01*
X109645788Y-165850000D01*
X102766652Y-165850000D01*
X102707382Y-165535009D01*
X102521223Y-165245709D01*
X102237176Y-165051628D01*
X101900000Y-164983348D01*
X98100000Y-164983348D01*
X97785009Y-165042618D01*
X97495709Y-165228777D01*
X97301628Y-165512824D01*
X97266000Y-165688760D01*
X97266000Y-163674077D01*
X98996634Y-163674077D01*
X99052042Y-163989818D01*
X99656061Y-164246792D01*
X100312441Y-164253057D01*
X100921255Y-164007659D01*
X100947958Y-163989818D01*
X101003366Y-163674077D01*
X100000000Y-162670711D01*
X98996634Y-163674077D01*
X97266000Y-163674077D01*
X97266000Y-162912441D01*
X98346943Y-162912441D01*
X98592341Y-163521255D01*
X98610182Y-163547958D01*
X98925923Y-163603366D01*
X99929289Y-162600000D01*
X100070711Y-162600000D01*
X101074077Y-163603366D01*
X101389818Y-163547958D01*
X101646792Y-162943939D01*
X101653057Y-162287559D01*
X101407659Y-161678745D01*
X101389818Y-161652042D01*
X101074077Y-161596634D01*
X100070711Y-162600000D01*
X99929289Y-162600000D01*
X98925923Y-161596634D01*
X98610182Y-161652042D01*
X98353208Y-162256061D01*
X98346943Y-162912441D01*
X97266000Y-162912441D01*
X97266000Y-161525923D01*
X98996634Y-161525923D01*
X100000000Y-162529289D01*
X101003366Y-161525923D01*
X100947958Y-161210182D01*
X100343939Y-160953208D01*
X99687559Y-160946943D01*
X99078745Y-161192341D01*
X99052042Y-161210182D01*
X98996634Y-161525923D01*
X97266000Y-161525923D01*
X97266000Y-153162005D01*
X97266001Y-153162000D01*
X97189880Y-152779316D01*
X96973107Y-152454893D01*
X94918254Y-150400040D01*
X95468650Y-150400040D01*
X95775529Y-151142743D01*
X96343268Y-151711474D01*
X97085434Y-152019648D01*
X97889040Y-152020350D01*
X98631743Y-151713471D01*
X99200474Y-151145732D01*
X99508648Y-150403566D01*
X99509350Y-149599960D01*
X99202471Y-148857257D01*
X98634732Y-148288526D01*
X97892566Y-147980352D01*
X97088960Y-147979650D01*
X96346257Y-148286529D01*
X95777526Y-148854268D01*
X95469352Y-149596434D01*
X95468650Y-150400040D01*
X94918254Y-150400040D01*
X92147107Y-147628893D01*
X91822684Y-147412120D01*
X91440000Y-147336000D01*
X90388332Y-147336000D01*
X90321223Y-147231709D01*
X90037176Y-147037628D01*
X89900000Y-147009849D01*
X89900000Y-130877212D01*
X92514999Y-128262213D01*
X92514999Y-141025999D01*
G36*
X101117618Y-127106991D02*
X101127898Y-127122966D01*
X101126628Y-127124824D01*
X101058348Y-127462000D01*
X101058348Y-128062000D01*
X101086604Y-128212164D01*
X100917893Y-128324893D01*
X100917891Y-128324896D01*
X100767892Y-128474894D01*
X100551119Y-128799317D01*
X100537182Y-128869382D01*
X100474999Y-129182001D01*
X100474999Y-133013407D01*
X100295709Y-133128777D01*
X100101628Y-133412824D01*
X100033348Y-133750000D01*
X100033348Y-134443135D01*
X99966652Y-134429868D01*
X99966652Y-133750000D01*
X99907382Y-133435009D01*
X99721223Y-133145709D01*
X99437176Y-132951628D01*
X99100000Y-132883348D01*
X97600000Y-132883348D01*
X97285009Y-132942618D01*
X96995709Y-133128777D01*
X96801628Y-133412824D01*
X96733348Y-133750000D01*
X96733348Y-135250000D01*
X96792618Y-135564991D01*
X96978777Y-135854291D01*
X97262824Y-136048372D01*
X97600000Y-136116652D01*
X97850000Y-136116652D01*
X97850000Y-136643500D01*
X98062500Y-136856000D01*
X99000000Y-136856000D01*
X99000000Y-136836000D01*
X99100000Y-136836000D01*
X99100000Y-136856000D01*
X99120000Y-136856000D01*
X99120000Y-136956000D01*
X99100000Y-136956000D01*
X99100000Y-136976000D01*
X99000000Y-136976000D01*
X99000000Y-136956000D01*
X98062500Y-136956000D01*
X97850000Y-137168500D01*
X97850000Y-137725076D01*
X97979405Y-138037487D01*
X98218514Y-138276595D01*
X98530925Y-138406000D01*
X98726577Y-138406000D01*
X98277526Y-138854268D01*
X97969352Y-139596434D01*
X97968650Y-140400040D01*
X98275529Y-141142743D01*
X98843268Y-141711474D01*
X99585434Y-142019648D01*
X100389040Y-142020350D01*
X101131743Y-141713471D01*
X101700474Y-141145732D01*
X101771553Y-140974555D01*
X102026313Y-140923880D01*
X102350736Y-140707107D01*
X102457108Y-140600735D01*
X102673881Y-140276312D01*
X102750002Y-139893628D01*
X102750001Y-139893623D01*
X102750001Y-136034854D01*
X103004291Y-135871223D01*
X103089825Y-135746039D01*
X108950001Y-141606214D01*
X108950001Y-148174125D01*
X108899431Y-148123467D01*
X108366688Y-147902252D01*
X107789843Y-147901749D01*
X107256714Y-148122033D01*
X106848467Y-148529569D01*
X106653126Y-149000000D01*
X104261451Y-149000000D01*
X104202471Y-148857257D01*
X103634732Y-148288526D01*
X102892566Y-147980352D01*
X102088960Y-147979650D01*
X101943122Y-148039909D01*
X94514999Y-140611785D01*
X94514999Y-131370913D01*
X94902157Y-131371251D01*
X95435286Y-131150967D01*
X95716200Y-130870542D01*
X95804405Y-131083487D01*
X96043514Y-131322595D01*
X96355925Y-131452000D01*
X97037500Y-131452000D01*
X97250000Y-131239500D01*
X97250000Y-130352000D01*
X97350000Y-130352000D01*
X97350000Y-131239500D01*
X97562500Y-131452000D01*
X98244075Y-131452000D01*
X98556486Y-131322595D01*
X98795595Y-131083487D01*
X98925000Y-130771076D01*
X98925000Y-130564500D01*
X98712500Y-130352000D01*
X97350000Y-130352000D01*
X97250000Y-130352000D01*
X97230000Y-130352000D01*
X97230000Y-130252000D01*
X97250000Y-130252000D01*
X97250000Y-130232000D01*
X97350000Y-130232000D01*
X97350000Y-130252000D01*
X98712500Y-130252000D01*
X98925000Y-130039500D01*
X98925000Y-129832924D01*
X98863287Y-129683936D01*
X98873372Y-129669176D01*
X98941652Y-129332000D01*
X98941652Y-129279562D01*
X101117080Y-127104134D01*
X101117618Y-127106991D01*
X101117618Y-127106991D01*
G37*
X101117618Y-127106991D02*
X101127898Y-127122966D01*
X101126628Y-127124824D01*
X101058348Y-127462000D01*
X101058348Y-128062000D01*
X101086604Y-128212164D01*
X100917893Y-128324893D01*
X100917891Y-128324896D01*
X100767892Y-128474894D01*
X100551119Y-128799317D01*
X100537182Y-128869382D01*
X100474999Y-129182001D01*
X100474999Y-133013407D01*
X100295709Y-133128777D01*
X100101628Y-133412824D01*
X100033348Y-133750000D01*
X100033348Y-134443135D01*
X99966652Y-134429868D01*
X99966652Y-133750000D01*
X99907382Y-133435009D01*
X99721223Y-133145709D01*
X99437176Y-132951628D01*
X99100000Y-132883348D01*
X97600000Y-132883348D01*
X97285009Y-132942618D01*
X96995709Y-133128777D01*
X96801628Y-133412824D01*
X96733348Y-133750000D01*
X96733348Y-135250000D01*
X96792618Y-135564991D01*
X96978777Y-135854291D01*
X97262824Y-136048372D01*
X97600000Y-136116652D01*
X97850000Y-136116652D01*
X97850000Y-136643500D01*
X98062500Y-136856000D01*
X99000000Y-136856000D01*
X99000000Y-136836000D01*
X99100000Y-136836000D01*
X99100000Y-136856000D01*
X99120000Y-136856000D01*
X99120000Y-136956000D01*
X99100000Y-136956000D01*
X99100000Y-136976000D01*
X99000000Y-136976000D01*
X99000000Y-136956000D01*
X98062500Y-136956000D01*
X97850000Y-137168500D01*
X97850000Y-137725076D01*
X97979405Y-138037487D01*
X98218514Y-138276595D01*
X98530925Y-138406000D01*
X98726577Y-138406000D01*
X98277526Y-138854268D01*
X97969352Y-139596434D01*
X97968650Y-140400040D01*
X98275529Y-141142743D01*
X98843268Y-141711474D01*
X99585434Y-142019648D01*
X100389040Y-142020350D01*
X101131743Y-141713471D01*
X101700474Y-141145732D01*
X101771553Y-140974555D01*
X102026313Y-140923880D01*
X102350736Y-140707107D01*
X102457108Y-140600735D01*
X102673881Y-140276312D01*
X102750002Y-139893628D01*
X102750001Y-139893623D01*
X102750001Y-136034854D01*
X103004291Y-135871223D01*
X103089825Y-135746039D01*
X108950001Y-141606214D01*
X108950001Y-148174125D01*
X108899431Y-148123467D01*
X108366688Y-147902252D01*
X107789843Y-147901749D01*
X107256714Y-148122033D01*
X106848467Y-148529569D01*
X106653126Y-149000000D01*
X104261451Y-149000000D01*
X104202471Y-148857257D01*
X103634732Y-148288526D01*
X102892566Y-147980352D01*
X102088960Y-147979650D01*
X101943122Y-148039909D01*
X94514999Y-140611785D01*
X94514999Y-131370913D01*
X94902157Y-131371251D01*
X95435286Y-131150967D01*
X95716200Y-130870542D01*
X95804405Y-131083487D01*
X96043514Y-131322595D01*
X96355925Y-131452000D01*
X97037500Y-131452000D01*
X97250000Y-131239500D01*
X97250000Y-130352000D01*
X97350000Y-130352000D01*
X97350000Y-131239500D01*
X97562500Y-131452000D01*
X98244075Y-131452000D01*
X98556486Y-131322595D01*
X98795595Y-131083487D01*
X98925000Y-130771076D01*
X98925000Y-130564500D01*
X98712500Y-130352000D01*
X97350000Y-130352000D01*
X97250000Y-130352000D01*
X97230000Y-130352000D01*
X97230000Y-130252000D01*
X97250000Y-130252000D01*
X97250000Y-130232000D01*
X97350000Y-130232000D01*
X97350000Y-130252000D01*
X98712500Y-130252000D01*
X98925000Y-130039500D01*
X98925000Y-129832924D01*
X98863287Y-129683936D01*
X98873372Y-129669176D01*
X98941652Y-129332000D01*
X98941652Y-129279562D01*
X101117080Y-127104134D01*
X101117618Y-127106991D01*
G36*
X116891171Y-145499385D02*
X116851863Y-145697000D01*
X116974036Y-146311207D01*
X117321957Y-146831906D01*
X117524139Y-146967000D01*
X117321957Y-147102094D01*
X117231815Y-147237000D01*
X112748000Y-147237000D01*
X112365316Y-147313120D01*
X112040893Y-147529893D01*
X111795755Y-147775031D01*
X111472843Y-147774749D01*
X110950001Y-147990783D01*
X110950001Y-141192006D01*
X110950002Y-141192001D01*
X110873881Y-140809317D01*
X110726669Y-140589000D01*
X110657108Y-140484894D01*
X110657105Y-140484892D01*
X103965107Y-133792893D01*
X103640684Y-133576120D01*
X103258000Y-133500000D01*
X103219611Y-133500000D01*
X103207382Y-133435009D01*
X103191898Y-133410946D01*
X103436286Y-133309967D01*
X103844533Y-132902431D01*
X103976473Y-132584687D01*
X116891171Y-145499385D01*
X116891171Y-145499385D01*
G37*
X116891171Y-145499385D02*
X116851863Y-145697000D01*
X116974036Y-146311207D01*
X117321957Y-146831906D01*
X117524139Y-146967000D01*
X117321957Y-147102094D01*
X117231815Y-147237000D01*
X112748000Y-147237000D01*
X112365316Y-147313120D01*
X112040893Y-147529893D01*
X111795755Y-147775031D01*
X111472843Y-147774749D01*
X110950001Y-147990783D01*
X110950001Y-141192006D01*
X110950002Y-141192001D01*
X110873881Y-140809317D01*
X110726669Y-140589000D01*
X110657108Y-140484894D01*
X110657105Y-140484892D01*
X103965107Y-133792893D01*
X103640684Y-133576120D01*
X103258000Y-133500000D01*
X103219611Y-133500000D01*
X103207382Y-133435009D01*
X103191898Y-133410946D01*
X103436286Y-133309967D01*
X103844533Y-132902431D01*
X103976473Y-132584687D01*
X116891171Y-145499385D01*
G36*
X119303000Y-143107000D02*
X119323000Y-143107000D01*
X119323000Y-143207000D01*
X119303000Y-143207000D01*
X119303000Y-143227000D01*
X119203000Y-143227000D01*
X119203000Y-143207000D01*
X119183000Y-143207000D01*
X119183000Y-143107000D01*
X119203000Y-143107000D01*
X119203000Y-143087000D01*
X119303000Y-143087000D01*
X119303000Y-143107000D01*
X119303000Y-143107000D01*
G37*
X119303000Y-143107000D02*
X119323000Y-143107000D01*
X119323000Y-143207000D01*
X119303000Y-143207000D01*
X119303000Y-143227000D01*
X119203000Y-143227000D01*
X119203000Y-143207000D01*
X119183000Y-143207000D01*
X119183000Y-143107000D01*
X119203000Y-143107000D01*
X119203000Y-143087000D01*
X119303000Y-143087000D01*
X119303000Y-143107000D01*
G36*
X104658000Y-130112652D02*
X105330439Y-130112652D01*
X105670891Y-130453104D01*
X105670893Y-130453107D01*
X105832353Y-130560991D01*
X105995316Y-130669880D01*
X106037025Y-130678176D01*
X106147777Y-130850291D01*
X106431824Y-131044372D01*
X106769000Y-131112652D01*
X108369000Y-131112652D01*
X108683991Y-131053382D01*
X108973291Y-130867223D01*
X109056119Y-130746000D01*
X116377786Y-130746000D01*
X121174000Y-135542214D01*
X121174000Y-136978632D01*
X121173262Y-136977449D01*
X120663401Y-136613308D01*
X120053000Y-136472000D01*
X119303000Y-136472000D01*
X119303000Y-138027000D01*
X119323000Y-138027000D01*
X119323000Y-138127000D01*
X119303000Y-138127000D01*
X119303000Y-138147000D01*
X119203000Y-138147000D01*
X119203000Y-138127000D01*
X117111398Y-138127000D01*
X116926351Y-138377340D01*
X117001039Y-138645013D01*
X117332738Y-139176551D01*
X117548554Y-139330686D01*
X117321957Y-139482094D01*
X116974036Y-140002793D01*
X116851863Y-140617000D01*
X116974036Y-141231207D01*
X117321957Y-141751906D01*
X117548554Y-141903314D01*
X117332738Y-142057449D01*
X117001039Y-142588987D01*
X116959188Y-142738974D01*
X111996874Y-137776660D01*
X116926351Y-137776660D01*
X117111398Y-138027000D01*
X119203000Y-138027000D01*
X119203000Y-136472000D01*
X118453000Y-136472000D01*
X117842599Y-136613308D01*
X117332738Y-136977449D01*
X117001039Y-137508987D01*
X116926351Y-137776660D01*
X111996874Y-137776660D01*
X104831107Y-130610893D01*
X104506684Y-130394120D01*
X104341652Y-130361293D01*
X104341652Y-130048590D01*
X104658000Y-130112652D01*
X104658000Y-130112652D01*
G37*
X104658000Y-130112652D02*
X105330439Y-130112652D01*
X105670891Y-130453104D01*
X105670893Y-130453107D01*
X105832353Y-130560991D01*
X105995316Y-130669880D01*
X106037025Y-130678176D01*
X106147777Y-130850291D01*
X106431824Y-131044372D01*
X106769000Y-131112652D01*
X108369000Y-131112652D01*
X108683991Y-131053382D01*
X108973291Y-130867223D01*
X109056119Y-130746000D01*
X116377786Y-130746000D01*
X121174000Y-135542214D01*
X121174000Y-136978632D01*
X121173262Y-136977449D01*
X120663401Y-136613308D01*
X120053000Y-136472000D01*
X119303000Y-136472000D01*
X119303000Y-138027000D01*
X119323000Y-138027000D01*
X119323000Y-138127000D01*
X119303000Y-138127000D01*
X119303000Y-138147000D01*
X119203000Y-138147000D01*
X119203000Y-138127000D01*
X117111398Y-138127000D01*
X116926351Y-138377340D01*
X117001039Y-138645013D01*
X117332738Y-139176551D01*
X117548554Y-139330686D01*
X117321957Y-139482094D01*
X116974036Y-140002793D01*
X116851863Y-140617000D01*
X116974036Y-141231207D01*
X117321957Y-141751906D01*
X117548554Y-141903314D01*
X117332738Y-142057449D01*
X117001039Y-142588987D01*
X116959188Y-142738974D01*
X111996874Y-137776660D01*
X116926351Y-137776660D01*
X117111398Y-138027000D01*
X119203000Y-138027000D01*
X119203000Y-136472000D01*
X118453000Y-136472000D01*
X117842599Y-136613308D01*
X117332738Y-136977449D01*
X117001039Y-137508987D01*
X116926351Y-137776660D01*
X111996874Y-137776660D01*
X104831107Y-130610893D01*
X104506684Y-130394120D01*
X104341652Y-130361293D01*
X104341652Y-130048590D01*
X104658000Y-130112652D01*
G36*
X97321000Y-108631652D02*
X98471001Y-108631652D01*
X98471001Y-108915000D01*
X98433500Y-108915000D01*
X98221000Y-109127500D01*
X98221000Y-110165000D01*
X98241000Y-110165000D01*
X98241000Y-110265000D01*
X98221000Y-110265000D01*
X98221000Y-111302500D01*
X98433500Y-111515000D01*
X98471001Y-111515000D01*
X98471001Y-120740000D01*
X97212500Y-120740000D01*
X97000000Y-120952500D01*
X97000000Y-122040000D01*
X97020000Y-122040000D01*
X97020000Y-122140000D01*
X97000000Y-122140000D01*
X97000000Y-123227500D01*
X97212500Y-123440000D01*
X98471001Y-123440000D01*
X98471001Y-125433821D01*
X98412176Y-125393628D01*
X98075000Y-125325348D01*
X96525000Y-125325348D01*
X96210009Y-125384618D01*
X96043132Y-125492000D01*
X95722731Y-125492000D01*
X95602176Y-125409628D01*
X95377867Y-125364204D01*
X95523879Y-125145683D01*
X95599999Y-124762999D01*
X95599999Y-123440000D01*
X96687500Y-123440000D01*
X96900000Y-123227500D01*
X96900000Y-122140000D01*
X96880000Y-122140000D01*
X96880000Y-122040000D01*
X96900000Y-122040000D01*
X96900000Y-120952500D01*
X96687500Y-120740000D01*
X95599999Y-120740000D01*
X95599999Y-111520080D01*
X95698700Y-111520080D01*
X95911200Y-111307580D01*
X95911200Y-110270080D01*
X96011200Y-110270080D01*
X96011200Y-111307580D01*
X96223700Y-111520080D01*
X96980276Y-111520080D01*
X97072232Y-111481991D01*
X97151924Y-111515000D01*
X97908500Y-111515000D01*
X98121000Y-111302500D01*
X98121000Y-110265000D01*
X96683500Y-110265000D01*
X96678420Y-110270080D01*
X96011200Y-110270080D01*
X95911200Y-110270080D01*
X95891200Y-110270080D01*
X95891200Y-110170080D01*
X95911200Y-110170080D01*
X95911200Y-109132580D01*
X96011200Y-109132580D01*
X96011200Y-110170080D01*
X97448700Y-110170080D01*
X97453780Y-110165000D01*
X98121000Y-110165000D01*
X98121000Y-109127500D01*
X97908500Y-108915000D01*
X97151924Y-108915000D01*
X97059968Y-108953089D01*
X96980276Y-108920080D01*
X96223700Y-108920080D01*
X96011200Y-109132580D01*
X95911200Y-109132580D01*
X95698700Y-108920080D01*
X95599999Y-108920080D01*
X95599999Y-108636732D01*
X96811200Y-108636732D01*
X97088461Y-108584561D01*
X97321000Y-108631652D01*
X97321000Y-108631652D01*
G37*
X97321000Y-108631652D02*
X98471001Y-108631652D01*
X98471001Y-108915000D01*
X98433500Y-108915000D01*
X98221000Y-109127500D01*
X98221000Y-110165000D01*
X98241000Y-110165000D01*
X98241000Y-110265000D01*
X98221000Y-110265000D01*
X98221000Y-111302500D01*
X98433500Y-111515000D01*
X98471001Y-111515000D01*
X98471001Y-120740000D01*
X97212500Y-120740000D01*
X97000000Y-120952500D01*
X97000000Y-122040000D01*
X97020000Y-122040000D01*
X97020000Y-122140000D01*
X97000000Y-122140000D01*
X97000000Y-123227500D01*
X97212500Y-123440000D01*
X98471001Y-123440000D01*
X98471001Y-125433821D01*
X98412176Y-125393628D01*
X98075000Y-125325348D01*
X96525000Y-125325348D01*
X96210009Y-125384618D01*
X96043132Y-125492000D01*
X95722731Y-125492000D01*
X95602176Y-125409628D01*
X95377867Y-125364204D01*
X95523879Y-125145683D01*
X95599999Y-124762999D01*
X95599999Y-123440000D01*
X96687500Y-123440000D01*
X96900000Y-123227500D01*
X96900000Y-122140000D01*
X96880000Y-122140000D01*
X96880000Y-122040000D01*
X96900000Y-122040000D01*
X96900000Y-120952500D01*
X96687500Y-120740000D01*
X95599999Y-120740000D01*
X95599999Y-111520080D01*
X95698700Y-111520080D01*
X95911200Y-111307580D01*
X95911200Y-110270080D01*
X96011200Y-110270080D01*
X96011200Y-111307580D01*
X96223700Y-111520080D01*
X96980276Y-111520080D01*
X97072232Y-111481991D01*
X97151924Y-111515000D01*
X97908500Y-111515000D01*
X98121000Y-111302500D01*
X98121000Y-110265000D01*
X96683500Y-110265000D01*
X96678420Y-110270080D01*
X96011200Y-110270080D01*
X95911200Y-110270080D01*
X95891200Y-110270080D01*
X95891200Y-110170080D01*
X95911200Y-110170080D01*
X95911200Y-109132580D01*
X96011200Y-109132580D01*
X96011200Y-110170080D01*
X97448700Y-110170080D01*
X97453780Y-110165000D01*
X98121000Y-110165000D01*
X98121000Y-109127500D01*
X97908500Y-108915000D01*
X97151924Y-108915000D01*
X97059968Y-108953089D01*
X96980276Y-108920080D01*
X96223700Y-108920080D01*
X96011200Y-109132580D01*
X95911200Y-109132580D01*
X95698700Y-108920080D01*
X95599999Y-108920080D01*
X95599999Y-108636732D01*
X96811200Y-108636732D01*
X97088461Y-108584561D01*
X97321000Y-108631652D01*
M02*
